<?xml version="1.0" encoding="UTF-8" standalone="no"?>
<!DOCTYPE svg PUBLIC "-//W3C//DTD SVG 1.1//EN"
 "http://www.w3.org/Graphics/SVG/1.1/DTD/svg11.dtd">
<!-- Generated by graphviz version 2.42.3 (20191010.1750)
 -->
<!-- Title: snakemake_dag Pages: 1 -->
<svg width="1216pt" height="476pt"
 viewBox="0.00 0.00 1216.05 476.00" xmlns="http://www.w3.org/2000/svg" xmlns:xlink="http://www.w3.org/1999/xlink">
<g id="graph0" class="graph" transform="scale(1 1) rotate(0) translate(4 472)">
<title>snakemake_dag</title>
<polygon fill="white" stroke="transparent" points="-4,4 -4,-472 1212.05,-472 1212.05,4 -4,4"/>
<!-- 0 -->
<g id="node1" class="node">
<title>0</title>
<path fill="none" stroke="#56d8d0" stroke-width="2" d="M713,-36C713,-36 641,-36 641,-36 635,-36 629,-30 629,-24 629,-24 629,-12 629,-12 629,-6 635,0 641,0 641,0 713,0 713,0 719,0 725,-6 725,-12 725,-12 725,-24 725,-24 725,-30 719,-36 713,-36"/>
<text text-anchor="middle" x="677" y="-15.5" font-family="sans" font-size="10.00">make_summary</text>
</g>
<!-- 1 -->
<g id="node2" class="node">
<title>1</title>
<path fill="none" stroke="#d88d56" stroke-width="2" d="M84,-108C84,-108 12,-108 12,-108 6,-108 0,-102 0,-96 0,-96 0,-84 0,-84 0,-78 6,-72 12,-72 12,-72 84,-72 84,-72 90,-72 96,-78 96,-84 96,-84 96,-96 96,-96 96,-102 90,-108 84,-108"/>
<text text-anchor="middle" x="48" y="-87.5" font-family="sans" font-size="10.00">make_rulegraph</text>
</g>
<!-- 1&#45;&gt;0 -->
<g id="edge7" class="edge">
<title>1&#45;&gt;0</title>
<path fill="none" stroke="grey" stroke-width="2" d="M96.21,-74.91C100.85,-73.82 105.5,-72.82 110,-72 293.83,-38.47 515.29,-25.56 618.6,-21.1"/>
<polygon fill="grey" stroke="grey" stroke-width="2" points="618.98,-24.59 628.83,-20.67 618.69,-17.59 618.98,-24.59"/>
</g>
<!-- 2 -->
<g id="node3" class="node">
<title>2</title>
<path fill="none" stroke="#56d863" stroke-width="2" d="M921,-252C921,-252 835,-252 835,-252 829,-252 823,-246 823,-240 823,-240 823,-228 823,-228 823,-222 829,-216 835,-216 835,-216 921,-216 921,-216 927,-216 933,-222 933,-228 933,-228 933,-240 933,-240 933,-246 927,-252 921,-252"/>
<text text-anchor="middle" x="878" y="-231.5" font-family="sans" font-size="10.00">get_mut_bind_expr</text>
</g>
<!-- 2&#45;&gt;0 -->
<g id="edge3" class="edge">
<title>2&#45;&gt;0</title>
<path fill="none" stroke="grey" stroke-width="2" d="M877.78,-215.94C876.44,-183.52 868.93,-112.67 830,-72 805.27,-46.16 767.33,-32.92 735.42,-26.13"/>
<polygon fill="grey" stroke="grey" stroke-width="2" points="735.78,-22.63 725.29,-24.14 734.43,-29.5 735.78,-22.63"/>
</g>
<!-- 13 -->
<g id="node14" class="node">
<title>13</title>
<path fill="none" stroke="#56a9d8" stroke-width="2" d="M810,-180C810,-180 742,-180 742,-180 736,-180 730,-174 730,-168 730,-168 730,-156 730,-156 730,-150 736,-144 742,-144 742,-144 810,-144 810,-144 816,-144 822,-150 822,-156 822,-156 822,-168 822,-168 822,-174 816,-180 810,-180"/>
<text text-anchor="middle" x="776" y="-159.5" font-family="sans" font-size="10.00">escape_profiles</text>
</g>
<!-- 2&#45;&gt;13 -->
<g id="edge24" class="edge">
<title>2&#45;&gt;13</title>
<path fill="none" stroke="grey" stroke-width="2" d="M853.05,-215.88C839.96,-206.89 823.74,-195.76 809.56,-186.03"/>
<polygon fill="grey" stroke="grey" stroke-width="2" points="811.27,-182.96 801.05,-180.19 807.31,-188.73 811.27,-182.96"/>
</g>
<!-- 15 -->
<g id="node16" class="node">
<title>15</title>
<path fill="none" stroke="#d87556" stroke-width="2" d="M1033,-108C1033,-108 911,-108 911,-108 905,-108 899,-102 899,-96 899,-96 899,-84 899,-84 899,-78 905,-72 911,-72 911,-72 1033,-72 1033,-72 1039,-72 1045,-78 1045,-84 1045,-84 1045,-96 1045,-96 1045,-102 1039,-108 1033,-108"/>
<text text-anchor="middle" x="972" y="-87.5" font-family="sans" font-size="10.00">early2020_escape_profiles</text>
</g>
<!-- 2&#45;&gt;15 -->
<g id="edge28" class="edge">
<title>2&#45;&gt;15</title>
<path fill="none" stroke="grey" stroke-width="2" d="M889.34,-215.87C905.64,-191.24 935.83,-145.64 954.87,-116.88"/>
<polygon fill="grey" stroke="grey" stroke-width="2" points="958.02,-118.46 960.62,-108.19 952.18,-114.6 958.02,-118.46"/>
</g>
<!-- 3 -->
<g id="node4" class="node">
<title>3</title>
<path fill="none" stroke="#56d882" stroke-width="2" d="M304,-108C304,-108 164,-108 164,-108 158,-108 152,-102 152,-96 152,-96 152,-84 152,-84 152,-78 158,-72 164,-72 164,-72 304,-72 304,-72 310,-72 316,-78 316,-84 316,-84 316,-96 316,-96 316,-102 310,-108 304,-108"/>
<text text-anchor="middle" x="234" y="-87.5" font-family="sans" font-size="10.00">get_early2020_mut_bind_expr</text>
</g>
<!-- 3&#45;&gt;0 -->
<g id="edge4" class="edge">
<title>3&#45;&gt;0</title>
<path fill="none" stroke="grey" stroke-width="2" d="M316.2,-74.31C320.87,-73.52 325.49,-72.74 330,-72 431.38,-55.28 549.73,-37.6 618.72,-27.47"/>
<polygon fill="grey" stroke="grey" stroke-width="2" points="619.56,-30.88 628.95,-25.97 618.55,-23.96 619.56,-30.88"/>
</g>
<!-- 4 -->
<g id="node5" class="node">
<title>4</title>
<path fill="none" stroke="#97d856" stroke-width="2" d="M1143.5,-252C1143.5,-252 1012.5,-252 1012.5,-252 1006.5,-252 1000.5,-246 1000.5,-240 1000.5,-240 1000.5,-228 1000.5,-228 1000.5,-222 1006.5,-216 1012.5,-216 1012.5,-216 1143.5,-216 1143.5,-216 1149.5,-216 1155.5,-222 1155.5,-228 1155.5,-228 1155.5,-240 1155.5,-240 1155.5,-246 1149.5,-252 1143.5,-252"/>
<text text-anchor="middle" x="1078" y="-231.5" font-family="sans" font-size="10.00">get_early2020_escape_fracs</text>
</g>
<!-- 4&#45;&gt;0 -->
<g id="edge15" class="edge">
<title>4&#45;&gt;0</title>
<path fill="none" stroke="grey" stroke-width="2" d="M1137.07,-215.9C1154.68,-207.86 1172.15,-196.33 1183,-180 1209.59,-139.97 1220.18,-107.69 1188,-72 1158.15,-38.9 863.4,-25.18 735.6,-20.75"/>
<polygon fill="grey" stroke="grey" stroke-width="2" points="735.34,-17.24 725.23,-20.4 735.1,-24.24 735.34,-17.24"/>
</g>
<!-- 14 -->
<g id="node15" class="node">
<title>14</title>
<path fill="none" stroke="#56c1d8" stroke-width="2" d="M1162,-180C1162,-180 994,-180 994,-180 988,-180 982,-174 982,-168 982,-168 982,-156 982,-156 982,-150 988,-144 994,-144 994,-144 1162,-144 1162,-144 1168,-144 1174,-150 1174,-156 1174,-156 1174,-168 1174,-168 1174,-174 1168,-180 1162,-180"/>
<text text-anchor="middle" x="1078" y="-159.5" font-family="sans" font-size="10.00">early2020_call_strong_escape_sites</text>
</g>
<!-- 4&#45;&gt;14 -->
<g id="edge25" class="edge">
<title>4&#45;&gt;14</title>
<path fill="none" stroke="grey" stroke-width="2" d="M1078,-215.7C1078,-207.98 1078,-198.71 1078,-190.11"/>
<polygon fill="grey" stroke="grey" stroke-width="2" points="1081.5,-190.1 1078,-180.1 1074.5,-190.1 1081.5,-190.1"/>
</g>
<!-- 4&#45;&gt;15 -->
<g id="edge27" class="edge">
<title>4&#45;&gt;15</title>
<path fill="none" stroke="grey" stroke-width="2" d="M1017.55,-215.89C1000.18,-207.89 983.21,-196.38 973,-180 961.61,-161.72 962.33,-136.95 965.34,-118.19"/>
<polygon fill="grey" stroke="grey" stroke-width="2" points="968.81,-118.67 967.25,-108.19 961.94,-117.36 968.81,-118.67"/>
</g>
<!-- 5 -->
<g id="node6" class="node">
<title>5</title>
<path fill="none" stroke="#568ad8" stroke-width="2" d="M266.5,-396C266.5,-396 215.5,-396 215.5,-396 209.5,-396 203.5,-390 203.5,-384 203.5,-384 203.5,-372 203.5,-372 203.5,-366 209.5,-360 215.5,-360 215.5,-360 266.5,-360 266.5,-360 272.5,-360 278.5,-366 278.5,-372 278.5,-372 278.5,-384 278.5,-384 278.5,-390 272.5,-396 266.5,-396"/>
<text text-anchor="middle" x="241" y="-375.5" font-family="sans" font-size="10.00">process_ccs</text>
</g>
<!-- 5&#45;&gt;0 -->
<g id="edge6" class="edge">
<title>5&#45;&gt;0</title>
<path fill="none" stroke="grey" stroke-width="2" d="M212.98,-359.94C178.36,-336.47 124,-290.74 124,-235 124,-235 124,-235 124,-161 124,-120.55 112.85,-98.96 143,-72 177.9,-40.78 487.36,-25.91 618.59,-20.96"/>
<polygon fill="grey" stroke="grey" stroke-width="2" points="618.98,-24.45 628.85,-20.58 618.72,-17.45 618.98,-24.45"/>
</g>
<!-- 7 -->
<g id="node8" class="node">
<title>7</title>
<path fill="none" stroke="#b6d856" stroke-width="2" d="M462,-324C462,-324 400,-324 400,-324 394,-324 388,-318 388,-312 388,-312 388,-300 388,-300 388,-294 394,-288 400,-288 400,-288 462,-288 462,-288 468,-288 474,-294 474,-300 474,-300 474,-312 474,-312 474,-318 468,-324 462,-324"/>
<text text-anchor="middle" x="431" y="-303.5" font-family="sans" font-size="10.00">build_variants</text>
</g>
<!-- 5&#45;&gt;7 -->
<g id="edge17" class="edge">
<title>5&#45;&gt;7</title>
<path fill="none" stroke="grey" stroke-width="2" d="M278.54,-363.17C307.06,-352.66 346.65,-338.08 378.34,-326.4"/>
<polygon fill="grey" stroke="grey" stroke-width="2" points="379.72,-329.62 387.9,-322.88 377.3,-323.05 379.72,-329.62"/>
</g>
<!-- 6 -->
<g id="node7" class="node">
<title>6</title>
<path fill="none" stroke="#5673d8" stroke-width="2" d="M256,-468C256,-468 226,-468 226,-468 220,-468 214,-462 214,-456 214,-456 214,-444 214,-444 214,-438 220,-432 226,-432 226,-432 256,-432 256,-432 262,-432 268,-438 268,-444 268,-444 268,-456 268,-456 268,-462 262,-468 256,-468"/>
<text text-anchor="middle" x="241" y="-447.5" font-family="sans" font-size="10.00">get_ccs</text>
</g>
<!-- 6&#45;&gt;5 -->
<g id="edge16" class="edge">
<title>6&#45;&gt;5</title>
<path fill="none" stroke="grey" stroke-width="2" d="M241,-431.7C241,-423.98 241,-414.71 241,-406.11"/>
<polygon fill="grey" stroke="grey" stroke-width="2" points="244.5,-406.1 241,-396.1 237.5,-406.1 244.5,-406.1"/>
</g>
<!-- 7&#45;&gt;0 -->
<g id="edge13" class="edge">
<title>7&#45;&gt;0</title>
<path fill="none" stroke="grey" stroke-width="2" d="M468.09,-287.92C485.39,-278.82 505.52,-266.5 521,-252 588.33,-188.93 641.47,-91.54 664.53,-45.22"/>
<polygon fill="grey" stroke="grey" stroke-width="2" points="667.72,-46.66 668.98,-36.14 661.43,-43.57 667.72,-46.66"/>
</g>
<!-- 8 -->
<g id="node9" class="node">
<title>8</title>
<path fill="none" stroke="#ced856" stroke-width="2" d="M491.5,-180C491.5,-180 372.5,-180 372.5,-180 366.5,-180 360.5,-174 360.5,-168 360.5,-168 360.5,-156 360.5,-156 360.5,-150 366.5,-144 372.5,-144 372.5,-144 491.5,-144 491.5,-144 497.5,-144 503.5,-150 503.5,-156 503.5,-156 503.5,-168 503.5,-168 503.5,-174 497.5,-180 491.5,-180"/>
<text text-anchor="middle" x="432" y="-159.5" font-family="sans" font-size="10.00">aggregate_variant_counts</text>
</g>
<!-- 7&#45;&gt;8 -->
<g id="edge19" class="edge">
<title>7&#45;&gt;8</title>
<path fill="none" stroke="grey" stroke-width="2" d="M423.93,-287.67C420.16,-277.47 415.91,-264.22 414,-252 411.53,-236.19 411.39,-231.79 414,-216 415.44,-207.28 418.13,-198.06 421,-189.8"/>
<polygon fill="grey" stroke="grey" stroke-width="2" points="424.33,-190.89 424.52,-180.3 417.77,-188.46 424.33,-190.89"/>
</g>
<!-- 9 -->
<g id="node10" class="node">
<title>9</title>
<path fill="none" stroke="#56d89a" stroke-width="2" d="M500.5,-252C500.5,-252 435.5,-252 435.5,-252 429.5,-252 423.5,-246 423.5,-240 423.5,-240 423.5,-228 423.5,-228 423.5,-222 429.5,-216 435.5,-216 435.5,-216 500.5,-216 500.5,-216 506.5,-216 512.5,-222 512.5,-228 512.5,-228 512.5,-240 512.5,-240 512.5,-246 506.5,-252 500.5,-252"/>
<text text-anchor="middle" x="468" y="-231.5" font-family="sans" font-size="10.00">count_variants</text>
</g>
<!-- 7&#45;&gt;9 -->
<g id="edge20" class="edge">
<title>7&#45;&gt;9</title>
<path fill="none" stroke="grey" stroke-width="2" d="M440.15,-287.7C444.4,-279.64 449.56,-269.89 454.27,-260.98"/>
<polygon fill="grey" stroke="grey" stroke-width="2" points="457.38,-262.58 458.96,-252.1 451.19,-259.31 457.38,-262.58"/>
</g>
<!-- 8&#45;&gt;0 -->
<g id="edge14" class="edge">
<title>8&#45;&gt;0</title>
<path fill="none" stroke="grey" stroke-width="2" d="M398.16,-143.96C384.62,-135.22 370.48,-123.17 363,-108 355.93,-93.65 352.67,-84.22 363,-72 395.09,-34.04 537.01,-23.26 618.64,-20.2"/>
<polygon fill="grey" stroke="grey" stroke-width="2" points="618.9,-23.7 628.77,-19.85 618.66,-16.7 618.9,-23.7"/>
</g>
<!-- 10 -->
<g id="node11" class="node">
<title>10</title>
<path fill="none" stroke="#d8ac56" stroke-width="2" d="M479.5,-108C479.5,-108 384.5,-108 384.5,-108 378.5,-108 372.5,-102 372.5,-96 372.5,-96 372.5,-84 372.5,-84 372.5,-78 378.5,-72 384.5,-72 384.5,-72 479.5,-72 479.5,-72 485.5,-72 491.5,-78 491.5,-84 491.5,-84 491.5,-96 491.5,-96 491.5,-102 485.5,-108 479.5,-108"/>
<text text-anchor="middle" x="432" y="-87.5" font-family="sans" font-size="10.00">counts_to_cells_ratio</text>
</g>
<!-- 8&#45;&gt;10 -->
<g id="edge21" class="edge">
<title>8&#45;&gt;10</title>
<path fill="none" stroke="grey" stroke-width="2" d="M432,-143.7C432,-135.98 432,-126.71 432,-118.11"/>
<polygon fill="grey" stroke="grey" stroke-width="2" points="435.5,-118.1 432,-108.1 428.5,-118.1 435.5,-118.1"/>
</g>
<!-- 11 -->
<g id="node12" class="node">
<title>11</title>
<path fill="none" stroke="#d8c356" stroke-width="2" d="M598.5,-108C598.5,-108 521.5,-108 521.5,-108 515.5,-108 509.5,-102 509.5,-96 509.5,-96 509.5,-84 509.5,-84 509.5,-78 515.5,-72 521.5,-72 521.5,-72 598.5,-72 598.5,-72 604.5,-72 610.5,-78 610.5,-84 610.5,-84 610.5,-96 610.5,-96 610.5,-102 604.5,-108 598.5,-108"/>
<text text-anchor="middle" x="560" y="-87.5" font-family="sans" font-size="10.00">counts_to_scores</text>
</g>
<!-- 8&#45;&gt;11 -->
<g id="edge22" class="edge">
<title>8&#45;&gt;11</title>
<path fill="none" stroke="grey" stroke-width="2" d="M463.31,-143.88C480.2,-134.64 501.25,-123.13 519.38,-113.21"/>
<polygon fill="grey" stroke="grey" stroke-width="2" points="521.47,-116.06 528.57,-108.19 518.11,-109.92 521.47,-116.06"/>
</g>
<!-- 9&#45;&gt;8 -->
<g id="edge18" class="edge">
<title>9&#45;&gt;8</title>
<path fill="none" stroke="grey" stroke-width="2" d="M459.1,-215.7C455,-207.73 450.05,-198.1 445.51,-189.26"/>
<polygon fill="grey" stroke="grey" stroke-width="2" points="448.48,-187.4 440.8,-180.1 442.26,-190.6 448.48,-187.4"/>
</g>
<!-- 10&#45;&gt;0 -->
<g id="edge12" class="edge">
<title>10&#45;&gt;0</title>
<path fill="none" stroke="grey" stroke-width="2" d="M491.62,-71.97C530.24,-60.93 580.29,-46.63 618.65,-35.67"/>
<polygon fill="grey" stroke="grey" stroke-width="2" points="619.99,-38.93 628.64,-32.82 618.06,-32.2 619.99,-38.93"/>
</g>
<!-- 11&#45;&gt;0 -->
<g id="edge8" class="edge">
<title>11&#45;&gt;0</title>
<path fill="none" stroke="grey" stroke-width="2" d="M588.62,-71.88C603.92,-62.72 622.94,-51.34 639.42,-41.48"/>
<polygon fill="grey" stroke="grey" stroke-width="2" points="641.48,-44.33 648.27,-36.19 637.89,-38.32 641.48,-44.33"/>
</g>
<!-- 12 -->
<g id="node13" class="node">
<title>12</title>
<path fill="none" stroke="#61d856" stroke-width="2" d="M793,-252C793,-252 679,-252 679,-252 673,-252 667,-246 667,-240 667,-240 667,-228 667,-228 667,-222 673,-216 679,-216 679,-216 793,-216 793,-216 799,-216 805,-222 805,-228 805,-228 805,-240 805,-240 805,-246 799,-252 793,-252"/>
<text text-anchor="middle" x="736" y="-231.5" font-family="sans" font-size="10.00">call_strong_escape_sites</text>
</g>
<!-- 12&#45;&gt;0 -->
<g id="edge2" class="edge">
<title>12&#45;&gt;0</title>
<path fill="none" stroke="grey" stroke-width="2" d="M729.89,-215.77C721.52,-191.81 706.37,-146.97 696,-108 690.55,-87.52 685.59,-64.06 682.11,-46.37"/>
<polygon fill="grey" stroke="grey" stroke-width="2" points="685.48,-45.34 680.14,-36.18 678.6,-46.66 685.48,-45.34"/>
</g>
<!-- 12&#45;&gt;13 -->
<g id="edge23" class="edge">
<title>12&#45;&gt;13</title>
<path fill="none" stroke="grey" stroke-width="2" d="M745.89,-215.7C750.49,-207.64 756.06,-197.89 761.15,-188.98"/>
<polygon fill="grey" stroke="grey" stroke-width="2" points="764.3,-190.52 766.23,-180.1 758.23,-187.05 764.3,-190.52"/>
</g>
<!-- 13&#45;&gt;0 -->
<g id="edge5" class="edge">
<title>13&#45;&gt;0</title>
<path fill="none" stroke="grey" stroke-width="2" d="M792.93,-143.93C809.36,-125.23 829.67,-94.87 814,-72 796.27,-46.13 763.95,-32.88 735.15,-26.1"/>
<polygon fill="grey" stroke="grey" stroke-width="2" points="735.66,-22.63 725.15,-23.96 734.19,-29.47 735.66,-22.63"/>
</g>
<!-- 17 -->
<g id="node18" class="node">
<title>17</title>
<path fill="none" stroke="#56d8b9" stroke-width="2" d="M793,-108C793,-108 717,-108 717,-108 711,-108 705,-102 705,-96 705,-96 705,-84 705,-84 705,-78 711,-72 717,-72 717,-72 793,-72 793,-72 799,-72 805,-78 805,-84 805,-84 805,-96 805,-96 805,-102 799,-108 793,-108"/>
<text text-anchor="middle" x="755" y="-87.5" font-family="sans" font-size="10.00">make_supp_data</text>
</g>
<!-- 13&#45;&gt;17 -->
<g id="edge29" class="edge">
<title>13&#45;&gt;17</title>
<path fill="none" stroke="grey" stroke-width="2" d="M770.81,-143.7C768.47,-135.9 765.65,-126.51 763.05,-117.83"/>
<polygon fill="grey" stroke="grey" stroke-width="2" points="766.36,-116.68 760.13,-108.1 759.65,-118.69 766.36,-116.68"/>
</g>
<!-- 14&#45;&gt;0 -->
<g id="edge9" class="edge">
<title>14&#45;&gt;0</title>
<path fill="none" stroke="grey" stroke-width="2" d="M1078.6,-143.71C1078.28,-123.35 1074.39,-90.01 1054,-72 1007.87,-31.25 829.28,-21.74 735.41,-19.58"/>
<polygon fill="grey" stroke="grey" stroke-width="2" points="735.29,-16.08 725.22,-19.37 735.15,-23.08 735.29,-16.08"/>
</g>
<!-- 14&#45;&gt;15 -->
<g id="edge26" class="edge">
<title>14&#45;&gt;15</title>
<path fill="none" stroke="grey" stroke-width="2" d="M1052.07,-143.88C1038.34,-134.81 1021.29,-123.55 1006.46,-113.76"/>
<polygon fill="grey" stroke="grey" stroke-width="2" points="1008.3,-110.78 998.03,-108.19 1004.45,-116.62 1008.3,-110.78"/>
</g>
<!-- 15&#45;&gt;0 -->
<g id="edge10" class="edge">
<title>15&#45;&gt;0</title>
<path fill="none" stroke="grey" stroke-width="2" d="M900.21,-71.97C849.42,-59.91 782.19,-43.96 734.84,-32.72"/>
<polygon fill="grey" stroke="grey" stroke-width="2" points="735.59,-29.3 725.05,-30.4 733.97,-36.12 735.59,-29.3"/>
</g>
<!-- 16 -->
<g id="node17" class="node">
<title>16</title>
<path fill="none" stroke="#80d856" stroke-width="2" d="M1166.5,-108C1166.5,-108 1113.5,-108 1113.5,-108 1107.5,-108 1101.5,-102 1101.5,-96 1101.5,-96 1101.5,-84 1101.5,-84 1101.5,-78 1107.5,-72 1113.5,-72 1113.5,-72 1166.5,-72 1166.5,-72 1172.5,-72 1178.5,-78 1178.5,-84 1178.5,-84 1178.5,-96 1178.5,-96 1178.5,-102 1172.5,-108 1166.5,-108"/>
<text text-anchor="middle" x="1140" y="-87.5" font-family="sans" font-size="10.00">output_pdbs</text>
</g>
<!-- 16&#45;&gt;0 -->
<g id="edge1" class="edge">
<title>16&#45;&gt;0</title>
<path fill="none" stroke="grey" stroke-width="2" d="M1101.44,-75.74C1096.61,-74.34 1091.72,-73.05 1087,-72 963.48,-44.45 815.6,-29.7 735.52,-23.2"/>
<polygon fill="grey" stroke="grey" stroke-width="2" points="735.4,-19.68 725.15,-22.37 734.84,-26.66 735.4,-19.68"/>
</g>
<!-- 17&#45;&gt;0 -->
<g id="edge11" class="edge">
<title>17&#45;&gt;0</title>
<path fill="none" stroke="grey" stroke-width="2" d="M735.72,-71.7C726.08,-63.05 714.27,-52.45 703.77,-43.03"/>
<polygon fill="grey" stroke="grey" stroke-width="2" points="705.84,-40.18 696.06,-36.1 701.16,-45.39 705.84,-40.18"/>
</g>
</g>
</svg>
