<?xml version="1.0" encoding="UTF-8" standalone="no"?>
<!DOCTYPE svg PUBLIC "-//W3C//DTD SVG 1.1//EN"
 "http://www.w3.org/Graphics/SVG/1.1/DTD/svg11.dtd">
<!-- Generated by graphviz version 2.42.3 (20191010.1750)
 -->
<!-- Title: snakemake_dag Pages: 1 -->
<svg width="594pt" height="476pt"
 viewBox="0.00 0.00 593.50 476.00" xmlns="http://www.w3.org/2000/svg" xmlns:xlink="http://www.w3.org/1999/xlink">
<g id="graph0" class="graph" transform="scale(1 1) rotate(0) translate(4 472)">
<title>snakemake_dag</title>
<polygon fill="white" stroke="transparent" points="-4,4 -4,-472 589.5,-472 589.5,4 -4,4"/>
<!-- 0 -->
<g id="node1" class="node">
<title>0</title>
<path fill="none" stroke="#88d856" stroke-width="2" d="M326,-36C326,-36 254,-36 254,-36 248,-36 242,-30 242,-24 242,-24 242,-12 242,-12 242,-6 248,0 254,0 254,0 326,0 326,0 332,0 338,-6 338,-12 338,-12 338,-24 338,-24 338,-30 332,-36 326,-36"/>
<text text-anchor="middle" x="290" y="-15.5" font-family="sans" font-size="10.00">make_summary</text>
</g>
<!-- 1 -->
<g id="node2" class="node">
<title>1</title>
<path fill="none" stroke="#d85656" stroke-width="2" d="M84,-108C84,-108 12,-108 12,-108 6,-108 0,-102 0,-96 0,-96 0,-84 0,-84 0,-78 6,-72 12,-72 12,-72 84,-72 84,-72 90,-72 96,-78 96,-84 96,-84 96,-96 96,-96 96,-102 90,-108 84,-108"/>
<text text-anchor="middle" x="48" y="-87.5" font-family="sans" font-size="10.00">make_rulegraph</text>
</g>
<!-- 1&#45;&gt;0 -->
<g id="edge1" class="edge">
<title>1&#45;&gt;0</title>
<path fill="none" stroke="grey" stroke-width="2" d="M96.19,-74.59C99.17,-73.71 102.13,-72.84 105,-72 147.36,-59.62 195.25,-45.9 231.7,-35.53"/>
<polygon fill="grey" stroke="grey" stroke-width="2" points="233,-38.8 241.66,-32.69 231.08,-32.06 233,-38.8"/>
</g>
<!-- 2 -->
<g id="node3" class="node">
<title>2</title>
<path fill="none" stroke="#568ad8" stroke-width="2" d="M212,-108C212,-108 126,-108 126,-108 120,-108 114,-102 114,-96 114,-96 114,-84 114,-84 114,-78 120,-72 126,-72 126,-72 212,-72 212,-72 218,-72 224,-78 224,-84 224,-84 224,-96 224,-96 224,-102 218,-108 212,-108"/>
<text text-anchor="middle" x="169" y="-87.5" font-family="sans" font-size="10.00">get_mut_bind_expr</text>
</g>
<!-- 2&#45;&gt;0 -->
<g id="edge6" class="edge">
<title>2&#45;&gt;0</title>
<path fill="none" stroke="grey" stroke-width="2" d="M198.6,-71.88C214.57,-62.64 234.46,-51.13 251.61,-41.21"/>
<polygon fill="grey" stroke="grey" stroke-width="2" points="253.38,-44.23 260.29,-36.19 249.88,-38.17 253.38,-44.23"/>
</g>
<!-- 3 -->
<g id="node4" class="node">
<title>3</title>
<path fill="none" stroke="#d88d56" stroke-width="2" d="M312.5,-396C312.5,-396 261.5,-396 261.5,-396 255.5,-396 249.5,-390 249.5,-384 249.5,-384 249.5,-372 249.5,-372 249.5,-366 255.5,-360 261.5,-360 261.5,-360 312.5,-360 312.5,-360 318.5,-360 324.5,-366 324.5,-372 324.5,-372 324.5,-384 324.5,-384 324.5,-390 318.5,-396 312.5,-396"/>
<text text-anchor="middle" x="287" y="-375.5" font-family="sans" font-size="10.00">process_ccs</text>
</g>
<!-- 3&#45;&gt;0 -->
<g id="edge7" class="edge">
<title>3&#45;&gt;0</title>
<path fill="none" stroke="grey" stroke-width="2" d="M279.92,-359.85C269.69,-333.49 252,-281.21 252,-235 252,-235 252,-235 252,-161 252,-119.63 267.23,-73.72 278.41,-45.61"/>
<polygon fill="grey" stroke="grey" stroke-width="2" points="281.76,-46.67 282.31,-36.09 275.28,-44.02 281.76,-46.67"/>
</g>
<!-- 5 -->
<g id="node6" class="node">
<title>5</title>
<path fill="none" stroke="#d8bc56" stroke-width="2" d="M356,-324C356,-324 294,-324 294,-324 288,-324 282,-318 282,-312 282,-312 282,-300 282,-300 282,-294 288,-288 294,-288 294,-288 356,-288 356,-288 362,-288 368,-294 368,-300 368,-300 368,-312 368,-312 368,-318 362,-324 356,-324"/>
<text text-anchor="middle" x="325" y="-303.5" font-family="sans" font-size="10.00">build_variants</text>
</g>
<!-- 3&#45;&gt;5 -->
<g id="edge9" class="edge">
<title>3&#45;&gt;5</title>
<path fill="none" stroke="grey" stroke-width="2" d="M296.39,-359.7C300.76,-351.64 306.06,-341.89 310.9,-332.98"/>
<polygon fill="grey" stroke="grey" stroke-width="2" points="314.02,-334.56 315.71,-324.1 307.87,-331.22 314.02,-334.56"/>
</g>
<!-- 4 -->
<g id="node5" class="node">
<title>4</title>
<path fill="none" stroke="#bed856" stroke-width="2" d="M302,-468C302,-468 272,-468 272,-468 266,-468 260,-462 260,-456 260,-456 260,-444 260,-444 260,-438 266,-432 272,-432 272,-432 302,-432 302,-432 308,-432 314,-438 314,-444 314,-444 314,-456 314,-456 314,-462 308,-468 302,-468"/>
<text text-anchor="middle" x="287" y="-447.5" font-family="sans" font-size="10.00">get_ccs</text>
</g>
<!-- 4&#45;&gt;3 -->
<g id="edge8" class="edge">
<title>4&#45;&gt;3</title>
<path fill="none" stroke="grey" stroke-width="2" d="M287,-431.7C287,-423.98 287,-414.71 287,-406.11"/>
<polygon fill="grey" stroke="grey" stroke-width="2" points="290.5,-406.1 287,-396.1 283.5,-406.1 290.5,-406.1"/>
</g>
<!-- 5&#45;&gt;0 -->
<g id="edge2" class="edge">
<title>5&#45;&gt;0</title>
<path fill="none" stroke="grey" stroke-width="2" d="M322.92,-287.97C317.07,-240.19 300.48,-104.62 293.34,-46.27"/>
<polygon fill="grey" stroke="grey" stroke-width="2" points="296.81,-45.81 292.12,-36.31 289.86,-46.66 296.81,-45.81"/>
</g>
<!-- 6 -->
<g id="node7" class="node">
<title>6</title>
<path fill="none" stroke="#59d856" stroke-width="2" d="M460.5,-180C460.5,-180 341.5,-180 341.5,-180 335.5,-180 329.5,-174 329.5,-168 329.5,-168 329.5,-156 329.5,-156 329.5,-150 335.5,-144 341.5,-144 341.5,-144 460.5,-144 460.5,-144 466.5,-144 472.5,-150 472.5,-156 472.5,-156 472.5,-168 472.5,-168 472.5,-174 466.5,-180 460.5,-180"/>
<text text-anchor="middle" x="401" y="-159.5" font-family="sans" font-size="10.00">aggregate_variant_counts</text>
</g>
<!-- 5&#45;&gt;6 -->
<g id="edge10" class="edge">
<title>5&#45;&gt;6</title>
<path fill="none" stroke="grey" stroke-width="2" d="M326.43,-287.9C328.61,-269.19 333.98,-238.81 347,-216 353.09,-205.32 361.95,-195.37 370.73,-187.04"/>
<polygon fill="grey" stroke="grey" stroke-width="2" points="373.28,-189.45 378.36,-180.15 368.59,-184.25 373.28,-189.45"/>
</g>
<!-- 7 -->
<g id="node8" class="node">
<title>7</title>
<path fill="none" stroke="#56d8c1" stroke-width="2" d="M433.5,-252C433.5,-252 368.5,-252 368.5,-252 362.5,-252 356.5,-246 356.5,-240 356.5,-240 356.5,-228 356.5,-228 356.5,-222 362.5,-216 368.5,-216 368.5,-216 433.5,-216 433.5,-216 439.5,-216 445.5,-222 445.5,-228 445.5,-228 445.5,-240 445.5,-240 445.5,-246 439.5,-252 433.5,-252"/>
<text text-anchor="middle" x="401" y="-231.5" font-family="sans" font-size="10.00">count_variants</text>
</g>
<!-- 5&#45;&gt;7 -->
<g id="edge12" class="edge">
<title>5&#45;&gt;7</title>
<path fill="none" stroke="grey" stroke-width="2" d="M343.79,-287.7C353.17,-279.05 364.68,-268.45 374.91,-259.03"/>
<polygon fill="grey" stroke="grey" stroke-width="2" points="377.45,-261.45 382.43,-252.1 372.7,-256.3 377.45,-261.45"/>
</g>
<!-- 6&#45;&gt;0 -->
<g id="edge3" class="edge">
<title>6&#45;&gt;0</title>
<path fill="none" stroke="grey" stroke-width="2" d="M381.44,-143.82C370.68,-133.89 357.44,-120.85 347,-108 330.77,-88.02 315.21,-63.21 304.46,-44.86"/>
<polygon fill="grey" stroke="grey" stroke-width="2" points="307.47,-43.08 299.44,-36.17 301.41,-46.58 307.47,-43.08"/>
</g>
<!-- 8 -->
<g id="node9" class="node">
<title>8</title>
<path fill="none" stroke="#56c1d8" stroke-width="2" d="M436,-108C436,-108 368,-108 368,-108 362,-108 356,-102 356,-96 356,-96 356,-84 356,-84 356,-78 362,-72 368,-72 368,-72 436,-72 436,-72 442,-72 448,-78 448,-84 448,-84 448,-96 448,-96 448,-102 442,-108 436,-108"/>
<text text-anchor="middle" x="402" y="-87.5" font-family="sans" font-size="10.00">analyze_counts</text>
</g>
<!-- 6&#45;&gt;8 -->
<g id="edge13" class="edge">
<title>6&#45;&gt;8</title>
<path fill="none" stroke="grey" stroke-width="2" d="M401.25,-143.7C401.36,-135.98 401.49,-126.71 401.61,-118.11"/>
<polygon fill="grey" stroke="grey" stroke-width="2" points="405.11,-118.15 401.76,-108.1 398.11,-118.05 405.11,-118.15"/>
</g>
<!-- 9 -->
<g id="node10" class="node">
<title>9</title>
<path fill="none" stroke="#56d88a" stroke-width="2" d="M573.5,-108C573.5,-108 478.5,-108 478.5,-108 472.5,-108 466.5,-102 466.5,-96 466.5,-96 466.5,-84 466.5,-84 466.5,-78 472.5,-72 478.5,-72 478.5,-72 573.5,-72 573.5,-72 579.5,-72 585.5,-78 585.5,-84 585.5,-84 585.5,-96 585.5,-96 585.5,-102 579.5,-108 573.5,-108"/>
<text text-anchor="middle" x="526" y="-87.5" font-family="sans" font-size="10.00">counts_to_cells_ratio</text>
</g>
<!-- 6&#45;&gt;9 -->
<g id="edge14" class="edge">
<title>6&#45;&gt;9</title>
<path fill="none" stroke="grey" stroke-width="2" d="M431.58,-143.88C448.07,-134.64 468.62,-123.13 486.34,-113.21"/>
<polygon fill="grey" stroke="grey" stroke-width="2" points="488.29,-116.13 495.3,-108.19 484.87,-110.02 488.29,-116.13"/>
</g>
<!-- 7&#45;&gt;6 -->
<g id="edge11" class="edge">
<title>7&#45;&gt;6</title>
<path fill="none" stroke="grey" stroke-width="2" d="M401,-215.7C401,-207.98 401,-198.71 401,-190.11"/>
<polygon fill="grey" stroke="grey" stroke-width="2" points="404.5,-190.1 401,-180.1 397.5,-190.1 404.5,-190.1"/>
</g>
<!-- 8&#45;&gt;0 -->
<g id="edge5" class="edge">
<title>8&#45;&gt;0</title>
<path fill="none" stroke="grey" stroke-width="2" d="M374.6,-71.88C360.09,-62.81 342.08,-51.55 326.41,-41.76"/>
<polygon fill="grey" stroke="grey" stroke-width="2" points="327.84,-38.52 317.5,-36.19 324.13,-44.46 327.84,-38.52"/>
</g>
<!-- 9&#45;&gt;0 -->
<g id="edge4" class="edge">
<title>9&#45;&gt;0</title>
<path fill="none" stroke="grey" stroke-width="2" d="M468.57,-71.97C432.03,-61.13 384.86,-47.14 348.17,-36.25"/>
<polygon fill="grey" stroke="grey" stroke-width="2" points="348.7,-32.76 338.12,-33.27 346.71,-39.47 348.7,-32.76"/>
</g>
</g>
</svg>
