<?xml version="1.0" encoding="UTF-8" standalone="no"?>
<!DOCTYPE svg PUBLIC "-//W3C//DTD SVG 1.1//EN"
 "http://www.w3.org/Graphics/SVG/1.1/DTD/svg11.dtd">
<!-- Generated by graphviz version 2.42.3 (20191010.1750)
 -->
<!-- Title: snakemake_dag Pages: 1 -->
<svg width="874pt" height="476pt"
 viewBox="0.00 0.00 874.00 476.00" xmlns="http://www.w3.org/2000/svg" xmlns:xlink="http://www.w3.org/1999/xlink">
<g id="graph0" class="graph" transform="scale(1 1) rotate(0) translate(4 472)">
<title>snakemake_dag</title>
<polygon fill="white" stroke="transparent" points="-4,4 -4,-472 870,-472 870,4 -4,4"/>
<!-- 0 -->
<g id="node1" class="node">
<title>0</title>
<path fill="none" stroke="#d85656" stroke-width="2" d="M384,-36C384,-36 312,-36 312,-36 306,-36 300,-30 300,-24 300,-24 300,-12 300,-12 300,-6 306,0 312,0 312,0 384,0 384,0 390,0 396,-6 396,-12 396,-12 396,-24 396,-24 396,-30 390,-36 384,-36"/>
<text text-anchor="middle" x="348" y="-15.5" font-family="sans" font-size="10.00">make_summary</text>
</g>
<!-- 1 -->
<g id="node2" class="node">
<title>1</title>
<path fill="none" stroke="#56a2d8" stroke-width="2" d="M84,-108C84,-108 12,-108 12,-108 6,-108 0,-102 0,-96 0,-96 0,-84 0,-84 0,-78 6,-72 12,-72 12,-72 84,-72 84,-72 90,-72 96,-78 96,-84 96,-84 96,-96 96,-96 96,-102 90,-108 84,-108"/>
<text text-anchor="middle" x="48" y="-87.5" font-family="sans" font-size="10.00">make_rulegraph</text>
</g>
<!-- 1&#45;&gt;0 -->
<g id="edge11" class="edge">
<title>1&#45;&gt;0</title>
<path fill="none" stroke="grey" stroke-width="2" d="M96,-75.59C100.72,-74.35 105.45,-73.13 110,-72 171.18,-56.81 241.71,-41.36 290.02,-31.09"/>
<polygon fill="grey" stroke="grey" stroke-width="2" points="290.92,-34.48 299.97,-28.98 289.47,-27.63 290.92,-34.48"/>
</g>
<!-- 2 -->
<g id="node3" class="node">
<title>2</title>
<path fill="none" stroke="#56d87b" stroke-width="2" d="M114,-180C114,-180 28,-180 28,-180 22,-180 16,-174 16,-168 16,-168 16,-156 16,-156 16,-150 22,-144 28,-144 28,-144 114,-144 114,-144 120,-144 126,-150 126,-156 126,-156 126,-168 126,-168 126,-174 120,-180 114,-180"/>
<text text-anchor="middle" x="71" y="-159.5" font-family="sans" font-size="10.00">get_mut_bind_expr</text>
</g>
<!-- 2&#45;&gt;0 -->
<g id="edge8" class="edge">
<title>2&#45;&gt;0</title>
<path fill="none" stroke="grey" stroke-width="2" d="M82.84,-143.91C99.13,-120.86 128.13,-81.57 143,-72 187.36,-43.45 246.4,-30.26 289.72,-24.17"/>
<polygon fill="grey" stroke="grey" stroke-width="2" points="290.37,-27.62 299.83,-22.84 289.45,-20.68 290.37,-27.62"/>
</g>
<!-- 11 -->
<g id="node12" class="node">
<title>11</title>
<path fill="none" stroke="#d8c356" stroke-width="2" d="M232,-108C232,-108 164,-108 164,-108 158,-108 152,-102 152,-96 152,-96 152,-84 152,-84 152,-78 158,-72 164,-72 164,-72 232,-72 232,-72 238,-72 244,-78 244,-84 244,-84 244,-96 244,-96 244,-102 238,-108 232,-108"/>
<text text-anchor="middle" x="198" y="-87.5" font-family="sans" font-size="10.00">escape_profiles</text>
</g>
<!-- 2&#45;&gt;11 -->
<g id="edge20" class="edge">
<title>2&#45;&gt;11</title>
<path fill="none" stroke="grey" stroke-width="2" d="M102.07,-143.88C118.83,-134.64 139.71,-123.13 157.7,-113.21"/>
<polygon fill="grey" stroke="grey" stroke-width="2" points="159.74,-116.08 166.81,-108.19 156.37,-109.95 159.74,-116.08"/>
</g>
<!-- 3 -->
<g id="node4" class="node">
<title>3</title>
<path fill="none" stroke="#9fd856" stroke-width="2" d="M370.5,-396C370.5,-396 319.5,-396 319.5,-396 313.5,-396 307.5,-390 307.5,-384 307.5,-384 307.5,-372 307.5,-372 307.5,-366 313.5,-360 319.5,-360 319.5,-360 370.5,-360 370.5,-360 376.5,-360 382.5,-366 382.5,-372 382.5,-372 382.5,-384 382.5,-384 382.5,-390 376.5,-396 370.5,-396"/>
<text text-anchor="middle" x="345" y="-375.5" font-family="sans" font-size="10.00">process_ccs</text>
</g>
<!-- 3&#45;&gt;0 -->
<g id="edge5" class="edge">
<title>3&#45;&gt;0</title>
<path fill="none" stroke="grey" stroke-width="2" d="M337.92,-359.85C327.69,-333.49 310,-281.21 310,-235 310,-235 310,-235 310,-161 310,-119.63 325.23,-73.72 336.41,-45.61"/>
<polygon fill="grey" stroke="grey" stroke-width="2" points="339.76,-46.67 340.31,-36.09 333.28,-44.02 339.76,-46.67"/>
</g>
<!-- 5 -->
<g id="node6" class="node">
<title>5</title>
<path fill="none" stroke="#56d8c9" stroke-width="2" d="M414,-324C414,-324 352,-324 352,-324 346,-324 340,-318 340,-312 340,-312 340,-300 340,-300 340,-294 346,-288 352,-288 352,-288 414,-288 414,-288 420,-288 426,-294 426,-300 426,-300 426,-312 426,-312 426,-318 420,-324 414,-324"/>
<text text-anchor="middle" x="383" y="-303.5" font-family="sans" font-size="10.00">build_variants</text>
</g>
<!-- 3&#45;&gt;5 -->
<g id="edge13" class="edge">
<title>3&#45;&gt;5</title>
<path fill="none" stroke="grey" stroke-width="2" d="M354.39,-359.7C358.76,-351.64 364.06,-341.89 368.9,-332.98"/>
<polygon fill="grey" stroke="grey" stroke-width="2" points="372.02,-334.56 373.71,-324.1 365.87,-331.22 372.02,-334.56"/>
</g>
<!-- 4 -->
<g id="node5" class="node">
<title>4</title>
<path fill="none" stroke="#56d8a2" stroke-width="2" d="M360,-468C360,-468 330,-468 330,-468 324,-468 318,-462 318,-456 318,-456 318,-444 318,-444 318,-438 324,-432 330,-432 330,-432 360,-432 360,-432 366,-432 372,-438 372,-444 372,-444 372,-456 372,-456 372,-462 366,-468 360,-468"/>
<text text-anchor="middle" x="345" y="-447.5" font-family="sans" font-size="10.00">get_ccs</text>
</g>
<!-- 4&#45;&gt;3 -->
<g id="edge12" class="edge">
<title>4&#45;&gt;3</title>
<path fill="none" stroke="grey" stroke-width="2" d="M345,-431.7C345,-423.98 345,-414.71 345,-406.11"/>
<polygon fill="grey" stroke="grey" stroke-width="2" points="348.5,-406.1 345,-396.1 341.5,-406.1 348.5,-406.1"/>
</g>
<!-- 5&#45;&gt;0 -->
<g id="edge9" class="edge">
<title>5&#45;&gt;0</title>
<path fill="none" stroke="grey" stroke-width="2" d="M380.92,-287.97C375.07,-240.19 358.48,-104.62 351.34,-46.27"/>
<polygon fill="grey" stroke="grey" stroke-width="2" points="354.81,-45.81 350.12,-36.31 347.86,-46.66 354.81,-45.81"/>
</g>
<!-- 6 -->
<g id="node7" class="node">
<title>6</title>
<path fill="none" stroke="#59d856" stroke-width="2" d="M518.5,-180C518.5,-180 399.5,-180 399.5,-180 393.5,-180 387.5,-174 387.5,-168 387.5,-168 387.5,-156 387.5,-156 387.5,-150 393.5,-144 399.5,-144 399.5,-144 518.5,-144 518.5,-144 524.5,-144 530.5,-150 530.5,-156 530.5,-156 530.5,-168 530.5,-168 530.5,-174 524.5,-180 518.5,-180"/>
<text text-anchor="middle" x="459" y="-159.5" font-family="sans" font-size="10.00">aggregate_variant_counts</text>
</g>
<!-- 5&#45;&gt;6 -->
<g id="edge14" class="edge">
<title>5&#45;&gt;6</title>
<path fill="none" stroke="grey" stroke-width="2" d="M384.43,-287.9C386.61,-269.19 391.98,-238.81 405,-216 411.09,-205.32 419.95,-195.37 428.73,-187.04"/>
<polygon fill="grey" stroke="grey" stroke-width="2" points="431.28,-189.45 436.36,-180.15 426.59,-184.25 431.28,-189.45"/>
</g>
<!-- 7 -->
<g id="node8" class="node">
<title>7</title>
<path fill="none" stroke="#567bd8" stroke-width="2" d="M491.5,-252C491.5,-252 426.5,-252 426.5,-252 420.5,-252 414.5,-246 414.5,-240 414.5,-240 414.5,-228 414.5,-228 414.5,-222 420.5,-216 426.5,-216 426.5,-216 491.5,-216 491.5,-216 497.5,-216 503.5,-222 503.5,-228 503.5,-228 503.5,-240 503.5,-240 503.5,-246 497.5,-252 491.5,-252"/>
<text text-anchor="middle" x="459" y="-231.5" font-family="sans" font-size="10.00">count_variants</text>
</g>
<!-- 5&#45;&gt;7 -->
<g id="edge16" class="edge">
<title>5&#45;&gt;7</title>
<path fill="none" stroke="grey" stroke-width="2" d="M401.79,-287.7C411.17,-279.05 422.68,-268.45 432.91,-259.03"/>
<polygon fill="grey" stroke="grey" stroke-width="2" points="435.45,-261.45 440.43,-252.1 430.7,-256.3 435.45,-261.45"/>
</g>
<!-- 6&#45;&gt;0 -->
<g id="edge7" class="edge">
<title>6&#45;&gt;0</title>
<path fill="none" stroke="grey" stroke-width="2" d="M439.44,-143.82C428.68,-133.89 415.44,-120.85 405,-108 388.77,-88.02 373.21,-63.21 362.46,-44.86"/>
<polygon fill="grey" stroke="grey" stroke-width="2" points="365.47,-43.08 357.44,-36.17 359.41,-46.58 365.47,-43.08"/>
</g>
<!-- 8 -->
<g id="node9" class="node">
<title>8</title>
<path fill="none" stroke="#d8a456" stroke-width="2" d="M521.5,-108C521.5,-108 426.5,-108 426.5,-108 420.5,-108 414.5,-102 414.5,-96 414.5,-96 414.5,-84 414.5,-84 414.5,-78 420.5,-72 426.5,-72 426.5,-72 521.5,-72 521.5,-72 527.5,-72 533.5,-78 533.5,-84 533.5,-84 533.5,-96 533.5,-96 533.5,-102 527.5,-108 521.5,-108"/>
<text text-anchor="middle" x="474" y="-87.5" font-family="sans" font-size="10.00">counts_to_cells_ratio</text>
</g>
<!-- 6&#45;&gt;8 -->
<g id="edge17" class="edge">
<title>6&#45;&gt;8</title>
<path fill="none" stroke="grey" stroke-width="2" d="M462.71,-143.7C464.36,-135.98 466.35,-126.71 468.19,-118.11"/>
<polygon fill="grey" stroke="grey" stroke-width="2" points="471.66,-118.62 470.33,-108.1 464.82,-117.15 471.66,-118.62"/>
</g>
<!-- 9 -->
<g id="node10" class="node">
<title>9</title>
<path fill="none" stroke="#56c9d8" stroke-width="2" d="M640.5,-108C640.5,-108 563.5,-108 563.5,-108 557.5,-108 551.5,-102 551.5,-96 551.5,-96 551.5,-84 551.5,-84 551.5,-78 557.5,-72 563.5,-72 563.5,-72 640.5,-72 640.5,-72 646.5,-72 652.5,-78 652.5,-84 652.5,-84 652.5,-96 652.5,-96 652.5,-102 646.5,-108 640.5,-108"/>
<text text-anchor="middle" x="602" y="-87.5" font-family="sans" font-size="10.00">counts_to_scores</text>
</g>
<!-- 6&#45;&gt;9 -->
<g id="edge18" class="edge">
<title>6&#45;&gt;9</title>
<path fill="none" stroke="grey" stroke-width="2" d="M493.98,-143.88C513.2,-134.47 537.23,-122.71 557.74,-112.67"/>
<polygon fill="grey" stroke="grey" stroke-width="2" points="559.44,-115.73 566.88,-108.19 556.36,-109.44 559.44,-115.73"/>
</g>
<!-- 7&#45;&gt;6 -->
<g id="edge15" class="edge">
<title>7&#45;&gt;6</title>
<path fill="none" stroke="grey" stroke-width="2" d="M459,-215.7C459,-207.98 459,-198.71 459,-190.11"/>
<polygon fill="grey" stroke="grey" stroke-width="2" points="462.5,-190.1 459,-180.1 455.5,-190.1 462.5,-190.1"/>
</g>
<!-- 8&#45;&gt;0 -->
<g id="edge2" class="edge">
<title>8&#45;&gt;0</title>
<path fill="none" stroke="grey" stroke-width="2" d="M443.18,-71.88C426.55,-62.64 405.84,-51.13 387.98,-41.21"/>
<polygon fill="grey" stroke="grey" stroke-width="2" points="389.38,-37.99 378.94,-36.19 385.98,-44.11 389.38,-37.99"/>
</g>
<!-- 9&#45;&gt;0 -->
<g id="edge10" class="edge">
<title>9&#45;&gt;0</title>
<path fill="none" stroke="grey" stroke-width="2" d="M551.27,-74.59C548.13,-73.71 545.02,-72.84 542,-72 496.46,-59.33 444.82,-45.23 406.27,-34.77"/>
<polygon fill="grey" stroke="grey" stroke-width="2" points="406.84,-31.29 396.27,-32.05 405,-38.05 406.84,-31.29"/>
</g>
<!-- 10 -->
<g id="node11" class="node">
<title>10</title>
<path fill="none" stroke="#d87d56" stroke-width="2" d="M270,-180C270,-180 156,-180 156,-180 150,-180 144,-174 144,-168 144,-168 144,-156 144,-156 144,-150 150,-144 156,-144 156,-144 270,-144 270,-144 276,-144 282,-150 282,-156 282,-156 282,-168 282,-168 282,-174 276,-180 270,-180"/>
<text text-anchor="middle" x="213" y="-159.5" font-family="sans" font-size="10.00">call_strong_escape_sites</text>
</g>
<!-- 10&#45;&gt;0 -->
<g id="edge1" class="edge">
<title>10&#45;&gt;0</title>
<path fill="none" stroke="grey" stroke-width="2" d="M228.78,-143.82C245.39,-125.8 272.34,-96.73 296,-72 305.05,-62.54 315.1,-52.24 323.94,-43.26"/>
<polygon fill="grey" stroke="grey" stroke-width="2" points="326.5,-45.66 331.03,-36.08 321.51,-40.74 326.5,-45.66"/>
</g>
<!-- 10&#45;&gt;11 -->
<g id="edge19" class="edge">
<title>10&#45;&gt;11</title>
<path fill="none" stroke="grey" stroke-width="2" d="M209.29,-143.7C207.64,-135.98 205.65,-126.71 203.81,-118.11"/>
<polygon fill="grey" stroke="grey" stroke-width="2" points="207.18,-117.15 201.67,-108.1 200.34,-118.62 207.18,-117.15"/>
</g>
<!-- 11&#45;&gt;0 -->
<g id="edge3" class="edge">
<title>11&#45;&gt;0</title>
<path fill="none" stroke="grey" stroke-width="2" d="M234.69,-71.88C255.02,-62.39 280.47,-50.51 302.1,-40.42"/>
<polygon fill="grey" stroke="grey" stroke-width="2" points="303.84,-43.47 311.43,-36.07 300.88,-37.13 303.84,-43.47"/>
</g>
<!-- 12 -->
<g id="node13" class="node">
<title>12</title>
<path fill="none" stroke="#78d856" stroke-width="2" d="M735.5,-108C735.5,-108 682.5,-108 682.5,-108 676.5,-108 670.5,-102 670.5,-96 670.5,-96 670.5,-84 670.5,-84 670.5,-78 676.5,-72 682.5,-72 682.5,-72 735.5,-72 735.5,-72 741.5,-72 747.5,-78 747.5,-84 747.5,-84 747.5,-96 747.5,-96 747.5,-102 741.5,-108 735.5,-108"/>
<text text-anchor="middle" x="709" y="-87.5" font-family="sans" font-size="10.00">output_pdbs</text>
</g>
<!-- 12&#45;&gt;0 -->
<g id="edge6" class="edge">
<title>12&#45;&gt;0</title>
<path fill="none" stroke="grey" stroke-width="2" d="M670.45,-74.43C667.61,-73.55 664.77,-72.73 662,-72 574.25,-48.93 469.97,-33.65 406.41,-25.66"/>
<polygon fill="grey" stroke="grey" stroke-width="2" points="406.53,-22.15 396.18,-24.4 405.67,-29.1 406.53,-22.15"/>
</g>
<!-- 13 -->
<g id="node14" class="node">
<title>13</title>
<path fill="none" stroke="#c6d856" stroke-width="2" d="M854,-108C854,-108 778,-108 778,-108 772,-108 766,-102 766,-96 766,-96 766,-84 766,-84 766,-78 772,-72 778,-72 778,-72 854,-72 854,-72 860,-72 866,-78 866,-84 866,-84 866,-96 866,-96 866,-102 860,-108 854,-108"/>
<text text-anchor="middle" x="816" y="-87.5" font-family="sans" font-size="10.00">make_supp_data</text>
</g>
<!-- 13&#45;&gt;0 -->
<g id="edge4" class="edge">
<title>13&#45;&gt;0</title>
<path fill="none" stroke="grey" stroke-width="2" d="M765.92,-74.01C762.91,-73.28 759.92,-72.61 757,-72 633.55,-46.37 486.41,-30.92 406.59,-23.78"/>
<polygon fill="grey" stroke="grey" stroke-width="2" points="406.52,-20.26 396.25,-22.86 405.9,-27.23 406.52,-20.26"/>
</g>
</g>
</svg>
