<?xml version="1.0" encoding="UTF-8" standalone="no"?>
<!DOCTYPE svg PUBLIC "-//W3C//DTD SVG 1.1//EN"
 "http://www.w3.org/Graphics/SVG/1.1/DTD/svg11.dtd">
<!-- Generated by graphviz version 2.42.3 (20191010.1750)
 -->
<!-- Title: snakemake_dag Pages: 1 -->
<svg width="669pt" height="692pt"
 viewBox="0.00 0.00 669.00 692.00" xmlns="http://www.w3.org/2000/svg" xmlns:xlink="http://www.w3.org/1999/xlink">
<g id="graph0" class="graph" transform="scale(1 1) rotate(0) translate(4 688)">
<title>snakemake_dag</title>
<polygon fill="white" stroke="transparent" points="-4,4 -4,-688 665,-688 665,4 -4,4"/>
<!-- 0 -->
<g id="node1" class="node">
<title>0</title>
<path fill="none" stroke="#56a9d8" stroke-width="2" d="M387,-36C387,-36 315,-36 315,-36 309,-36 303,-30 303,-24 303,-24 303,-12 303,-12 303,-6 309,0 315,0 315,0 387,0 387,0 393,0 399,-6 399,-12 399,-12 399,-24 399,-24 399,-30 393,-36 387,-36"/>
<text text-anchor="middle" x="351" y="-15.5" font-family="sans" font-size="10.00">make_summary</text>
</g>
<!-- 1 -->
<g id="node2" class="node">
<title>1</title>
<path fill="none" stroke="#d8cb56" stroke-width="2" d="M84,-108C84,-108 12,-108 12,-108 6,-108 0,-102 0,-96 0,-96 0,-84 0,-84 0,-78 6,-72 12,-72 12,-72 84,-72 84,-72 90,-72 96,-78 96,-84 96,-84 96,-96 96,-96 96,-102 90,-108 84,-108"/>
<text text-anchor="middle" x="48" y="-87.5" font-family="sans" font-size="10.00">make_rulegraph</text>
</g>
<!-- 1&#45;&gt;0 -->
<g id="edge4" class="edge">
<title>1&#45;&gt;0</title>
<path fill="none" stroke="grey" stroke-width="2" d="M96,-75.58C100.72,-74.34 105.45,-73.12 110,-72 172.13,-56.66 243.81,-41.18 292.74,-30.94"/>
<polygon fill="grey" stroke="grey" stroke-width="2" points="293.75,-34.31 302.82,-28.84 292.32,-27.45 293.75,-34.31"/>
</g>
<!-- 2 -->
<g id="node3" class="node">
<title>2</title>
<path fill="none" stroke="#56d892" stroke-width="2" d="M351,-180C351,-180 265,-180 265,-180 259,-180 253,-174 253,-168 253,-168 253,-156 253,-156 253,-150 259,-144 265,-144 265,-144 351,-144 351,-144 357,-144 363,-150 363,-156 363,-156 363,-168 363,-168 363,-174 357,-180 351,-180"/>
<text text-anchor="middle" x="308" y="-159.5" font-family="sans" font-size="10.00">get_mut_bind_expr</text>
</g>
<!-- 2&#45;&gt;0 -->
<g id="edge8" class="edge">
<title>2&#45;&gt;0</title>
<path fill="none" stroke="grey" stroke-width="2" d="M312.85,-143.9C317.98,-125.95 326.36,-96.93 334,-72 336.62,-63.46 339.56,-54.18 342.25,-45.8"/>
<polygon fill="grey" stroke="grey" stroke-width="2" points="345.63,-46.74 345.37,-36.15 338.97,-44.59 345.63,-46.74"/>
</g>
<!-- 12 -->
<g id="node13" class="node">
<title>12</title>
<path fill="none" stroke="#b6d856" stroke-width="2" d="M423,-108C423,-108 355,-108 355,-108 349,-108 343,-102 343,-96 343,-96 343,-84 343,-84 343,-78 349,-72 355,-72 355,-72 423,-72 423,-72 429,-72 435,-78 435,-84 435,-84 435,-96 435,-96 435,-102 429,-108 423,-108"/>
<text text-anchor="middle" x="389" y="-87.5" font-family="sans" font-size="10.00">escape_profiles</text>
</g>
<!-- 2&#45;&gt;12 -->
<g id="edge20" class="edge">
<title>2&#45;&gt;12</title>
<path fill="none" stroke="grey" stroke-width="2" d="M328.02,-143.7C338.13,-134.97 350.54,-124.24 361.52,-114.75"/>
<polygon fill="grey" stroke="grey" stroke-width="2" points="363.93,-117.29 369.21,-108.1 359.35,-111.99 363.93,-117.29"/>
</g>
<!-- 3 -->
<g id="node4" class="node">
<title>3</title>
<path fill="none" stroke="#8fd856" stroke-width="2" d="M200.5,-612C200.5,-612 149.5,-612 149.5,-612 143.5,-612 137.5,-606 137.5,-600 137.5,-600 137.5,-588 137.5,-588 137.5,-582 143.5,-576 149.5,-576 149.5,-576 200.5,-576 200.5,-576 206.5,-576 212.5,-582 212.5,-588 212.5,-588 212.5,-600 212.5,-600 212.5,-606 206.5,-612 200.5,-612"/>
<text text-anchor="middle" x="175" y="-591.5" font-family="sans" font-size="10.00">process_ccs</text>
</g>
<!-- 3&#45;&gt;0 -->
<g id="edge6" class="edge">
<title>3&#45;&gt;0</title>
<path fill="none" stroke="grey" stroke-width="2" d="M164.43,-575.79C149.49,-549.77 124,-498.41 124,-451 124,-451 124,-451 124,-161 124,-81.41 225.53,-44.77 292.79,-29.22"/>
<polygon fill="grey" stroke="grey" stroke-width="2" points="293.85,-32.57 302.86,-26.99 292.34,-25.74 293.85,-32.57"/>
</g>
<!-- 5 -->
<g id="node6" class="node">
<title>5</title>
<path fill="none" stroke="#d8a456" stroke-width="2" d="M406,-540C406,-540 344,-540 344,-540 338,-540 332,-534 332,-528 332,-528 332,-516 332,-516 332,-510 338,-504 344,-504 344,-504 406,-504 406,-504 412,-504 418,-510 418,-516 418,-516 418,-528 418,-528 418,-534 412,-540 406,-540"/>
<text text-anchor="middle" x="375" y="-519.5" font-family="sans" font-size="10.00">build_variants</text>
</g>
<!-- 3&#45;&gt;5 -->
<g id="edge12" class="edge">
<title>3&#45;&gt;5</title>
<path fill="none" stroke="grey" stroke-width="2" d="M212.62,-579.83C243.65,-568.97 288.02,-553.44 322.54,-541.36"/>
<polygon fill="grey" stroke="grey" stroke-width="2" points="323.71,-544.66 332,-538.05 321.4,-538.05 323.71,-544.66"/>
</g>
<!-- 4 -->
<g id="node5" class="node">
<title>4</title>
<path fill="none" stroke="#56d8b9" stroke-width="2" d="M190,-684C190,-684 160,-684 160,-684 154,-684 148,-678 148,-672 148,-672 148,-660 148,-660 148,-654 154,-648 160,-648 160,-648 190,-648 190,-648 196,-648 202,-654 202,-660 202,-660 202,-672 202,-672 202,-678 196,-684 190,-684"/>
<text text-anchor="middle" x="175" y="-663.5" font-family="sans" font-size="10.00">get_ccs</text>
</g>
<!-- 4&#45;&gt;3 -->
<g id="edge11" class="edge">
<title>4&#45;&gt;3</title>
<path fill="none" stroke="grey" stroke-width="2" d="M175,-647.7C175,-639.98 175,-630.71 175,-622.11"/>
<polygon fill="grey" stroke="grey" stroke-width="2" points="178.5,-622.1 175,-612.1 171.5,-622.1 178.5,-622.1"/>
</g>
<!-- 5&#45;&gt;0 -->
<g id="edge2" class="edge">
<title>5&#45;&gt;0</title>
<path fill="none" stroke="grey" stroke-width="2" d="M418.13,-518.9C498.02,-512.44 661,-486.13 661,-379 661,-379 661,-379 661,-161 661,-51.42 498.91,-26.06 409.14,-20.43"/>
<polygon fill="grey" stroke="grey" stroke-width="2" points="409.28,-16.93 399.1,-19.86 408.88,-23.92 409.28,-16.93"/>
</g>
<!-- 6 -->
<g id="node7" class="node">
<title>6</title>
<path fill="none" stroke="#567bd8" stroke-width="2" d="M435.5,-396C435.5,-396 316.5,-396 316.5,-396 310.5,-396 304.5,-390 304.5,-384 304.5,-384 304.5,-372 304.5,-372 304.5,-366 310.5,-360 316.5,-360 316.5,-360 435.5,-360 435.5,-360 441.5,-360 447.5,-366 447.5,-372 447.5,-372 447.5,-384 447.5,-384 447.5,-390 441.5,-396 435.5,-396"/>
<text text-anchor="middle" x="376" y="-375.5" font-family="sans" font-size="10.00">aggregate_variant_counts</text>
</g>
<!-- 5&#45;&gt;6 -->
<g id="edge14" class="edge">
<title>5&#45;&gt;6</title>
<path fill="none" stroke="grey" stroke-width="2" d="M368.35,-503.63C364.8,-493.42 360.8,-480.17 359,-468 356.66,-452.17 356.53,-447.81 359,-432 360.36,-423.31 362.9,-414.1 365.61,-405.84"/>
<polygon fill="grey" stroke="grey" stroke-width="2" points="368.94,-406.93 368.93,-396.33 362.33,-404.62 368.94,-406.93"/>
</g>
<!-- 7 -->
<g id="node8" class="node">
<title>7</title>
<path fill="none" stroke="#68d856" stroke-width="2" d="M444.5,-468C444.5,-468 379.5,-468 379.5,-468 373.5,-468 367.5,-462 367.5,-456 367.5,-456 367.5,-444 367.5,-444 367.5,-438 373.5,-432 379.5,-432 379.5,-432 444.5,-432 444.5,-432 450.5,-432 456.5,-438 456.5,-444 456.5,-444 456.5,-456 456.5,-456 456.5,-462 450.5,-468 444.5,-468"/>
<text text-anchor="middle" x="412" y="-447.5" font-family="sans" font-size="10.00">count_variants</text>
</g>
<!-- 5&#45;&gt;7 -->
<g id="edge15" class="edge">
<title>5&#45;&gt;7</title>
<path fill="none" stroke="grey" stroke-width="2" d="M384.15,-503.7C388.4,-495.64 393.56,-485.89 398.27,-476.98"/>
<polygon fill="grey" stroke="grey" stroke-width="2" points="401.38,-478.58 402.96,-468.1 395.19,-475.31 401.38,-478.58"/>
</g>
<!-- 6&#45;&gt;0 -->
<g id="edge10" class="edge">
<title>6&#45;&gt;0</title>
<path fill="none" stroke="grey" stroke-width="2" d="M447.77,-366.8C520.7,-351.91 623,-316.49 623,-235 623,-235 623,-235 623,-161 623,-65.22 488.81,-33.93 408.94,-23.79"/>
<polygon fill="grey" stroke="grey" stroke-width="2" points="409.35,-20.32 399,-22.61 408.52,-27.27 409.35,-20.32"/>
</g>
<!-- 8 -->
<g id="node9" class="node">
<title>8</title>
<path fill="none" stroke="#56d0d8" stroke-width="2" d="M259.5,-252C259.5,-252 164.5,-252 164.5,-252 158.5,-252 152.5,-246 152.5,-240 152.5,-240 152.5,-228 152.5,-228 152.5,-222 158.5,-216 164.5,-216 164.5,-216 259.5,-216 259.5,-216 265.5,-216 271.5,-222 271.5,-228 271.5,-228 271.5,-240 271.5,-240 271.5,-246 265.5,-252 259.5,-252"/>
<text text-anchor="middle" x="212" y="-231.5" font-family="sans" font-size="10.00">counts_to_cells_ratio</text>
</g>
<!-- 6&#45;&gt;8 -->
<g id="edge16" class="edge">
<title>6&#45;&gt;8</title>
<path fill="none" stroke="grey" stroke-width="2" d="M356.22,-359.87C327.16,-334.71 272.81,-287.65 239.77,-259.04"/>
<polygon fill="grey" stroke="grey" stroke-width="2" points="241.7,-256.09 231.85,-252.19 237.12,-261.38 241.7,-256.09"/>
</g>
<!-- 9 -->
<g id="node10" class="node">
<title>9</title>
<path fill="none" stroke="#d87d56" stroke-width="2" d="M414.5,-324C414.5,-324 337.5,-324 337.5,-324 331.5,-324 325.5,-318 325.5,-312 325.5,-312 325.5,-300 325.5,-300 325.5,-294 331.5,-288 337.5,-288 337.5,-288 414.5,-288 414.5,-288 420.5,-288 426.5,-294 426.5,-300 426.5,-300 426.5,-312 426.5,-312 426.5,-318 420.5,-324 414.5,-324"/>
<text text-anchor="middle" x="376" y="-303.5" font-family="sans" font-size="10.00">counts_to_scores</text>
</g>
<!-- 6&#45;&gt;9 -->
<g id="edge17" class="edge">
<title>6&#45;&gt;9</title>
<path fill="none" stroke="grey" stroke-width="2" d="M376,-359.7C376,-351.98 376,-342.71 376,-334.11"/>
<polygon fill="grey" stroke="grey" stroke-width="2" points="379.5,-334.1 376,-324.1 372.5,-334.1 379.5,-334.1"/>
</g>
<!-- 7&#45;&gt;6 -->
<g id="edge13" class="edge">
<title>7&#45;&gt;6</title>
<path fill="none" stroke="grey" stroke-width="2" d="M403.1,-431.7C399,-423.73 394.05,-414.1 389.51,-405.26"/>
<polygon fill="grey" stroke="grey" stroke-width="2" points="392.48,-403.4 384.8,-396.1 386.26,-406.6 392.48,-403.4"/>
</g>
<!-- 8&#45;&gt;0 -->
<g id="edge9" class="edge">
<title>8&#45;&gt;0</title>
<path fill="none" stroke="grey" stroke-width="2" d="M206.05,-215.88C196.23,-184.29 180.58,-116.04 211,-72 229.44,-45.29 263.21,-32.03 292.96,-25.45"/>
<polygon fill="grey" stroke="grey" stroke-width="2" points="293.75,-28.86 302.87,-23.47 292.37,-22 293.75,-28.86"/>
</g>
<!-- 9&#45;&gt;0 -->
<g id="edge3" class="edge">
<title>9&#45;&gt;0</title>
<path fill="none" stroke="grey" stroke-width="2" d="M357.77,-287.91C321.73,-254.11 244.76,-181.78 244,-180 221.09,-126.75 277.8,-72.07 317.12,-42.13"/>
<polygon fill="grey" stroke="grey" stroke-width="2" points="319.27,-44.89 325.21,-36.12 315.1,-39.27 319.27,-44.89"/>
</g>
<!-- 10 -->
<g id="node11" class="node">
<title>10</title>
<path fill="none" stroke="#d85656" stroke-width="2" d="M504.5,-252C504.5,-252 401.5,-252 401.5,-252 395.5,-252 389.5,-246 389.5,-240 389.5,-240 389.5,-228 389.5,-228 389.5,-222 395.5,-216 401.5,-216 401.5,-216 504.5,-216 504.5,-216 510.5,-216 516.5,-222 516.5,-228 516.5,-228 516.5,-240 516.5,-240 516.5,-246 510.5,-252 504.5,-252"/>
<text text-anchor="middle" x="453" y="-231.5" font-family="sans" font-size="10.00">scores_to_frac_escape</text>
</g>
<!-- 9&#45;&gt;10 -->
<g id="edge18" class="edge">
<title>9&#45;&gt;10</title>
<path fill="none" stroke="grey" stroke-width="2" d="M395.03,-287.7C404.54,-279.05 416.21,-268.45 426.57,-259.03"/>
<polygon fill="grey" stroke="grey" stroke-width="2" points="429.14,-261.42 434.19,-252.1 424.43,-256.24 429.14,-261.42"/>
</g>
<!-- 10&#45;&gt;0 -->
<g id="edge1" class="edge">
<title>10&#45;&gt;0</title>
<path fill="none" stroke="grey" stroke-width="2" d="M516.58,-217.59C535.77,-209.65 554.73,-197.74 566,-180 574.58,-166.5 573.16,-158.31 566,-144 535.64,-83.29 461.49,-50 408.77,-33.35"/>
<polygon fill="grey" stroke="grey" stroke-width="2" points="409.78,-30 399.2,-30.43 407.74,-36.7 409.78,-30"/>
</g>
<!-- 11 -->
<g id="node12" class="node">
<title>11</title>
<path fill="none" stroke="#56d86b" stroke-width="2" d="M545,-180C545,-180 431,-180 431,-180 425,-180 419,-174 419,-168 419,-168 419,-156 419,-156 419,-150 425,-144 431,-144 431,-144 545,-144 545,-144 551,-144 557,-150 557,-156 557,-156 557,-168 557,-168 557,-174 551,-180 545,-180"/>
<text text-anchor="middle" x="488" y="-159.5" font-family="sans" font-size="10.00">call_strong_escape_sites</text>
</g>
<!-- 10&#45;&gt;11 -->
<g id="edge19" class="edge">
<title>10&#45;&gt;11</title>
<path fill="none" stroke="grey" stroke-width="2" d="M461.65,-215.7C465.64,-207.73 470.45,-198.1 474.87,-189.26"/>
<polygon fill="grey" stroke="grey" stroke-width="2" points="478.11,-190.61 479.45,-180.1 471.85,-187.48 478.11,-190.61"/>
</g>
<!-- 10&#45;&gt;12 -->
<g id="edge22" class="edge">
<title>10&#45;&gt;12</title>
<path fill="none" stroke="grey" stroke-width="2" d="M435.66,-215.78C426.77,-206.03 416.48,-193.19 410,-180 400.4,-160.47 395.06,-136.33 392.17,-118.12"/>
<polygon fill="grey" stroke="grey" stroke-width="2" points="395.63,-117.57 390.74,-108.17 388.7,-118.56 395.63,-117.57"/>
</g>
<!-- 11&#45;&gt;0 -->
<g id="edge7" class="edge">
<title>11&#45;&gt;0</title>
<path fill="none" stroke="grey" stroke-width="2" d="M482.9,-143.8C476.45,-124.44 463.75,-92.94 444,-72 432.18,-59.46 416.71,-49.05 401.8,-40.87"/>
<polygon fill="grey" stroke="grey" stroke-width="2" points="403.1,-37.6 392.62,-36.07 399.86,-43.81 403.1,-37.6"/>
</g>
<!-- 11&#45;&gt;12 -->
<g id="edge21" class="edge">
<title>11&#45;&gt;12</title>
<path fill="none" stroke="grey" stroke-width="2" d="M463.78,-143.88C451.08,-134.89 435.34,-123.76 421.58,-114.03"/>
<polygon fill="grey" stroke="grey" stroke-width="2" points="423.5,-111.11 413.31,-108.19 419.46,-116.82 423.5,-111.11"/>
</g>
<!-- 12&#45;&gt;0 -->
<g id="edge5" class="edge">
<title>12&#45;&gt;0</title>
<path fill="none" stroke="grey" stroke-width="2" d="M379.61,-71.7C375.24,-63.64 369.94,-53.89 365.1,-44.98"/>
<polygon fill="grey" stroke="grey" stroke-width="2" points="368.13,-43.22 360.29,-36.1 361.98,-46.56 368.13,-43.22"/>
</g>
</g>
</svg>
