<?xml version="1.0" encoding="UTF-8" standalone="no"?>
<!DOCTYPE svg PUBLIC "-//W3C//DTD SVG 1.1//EN"
 "http://www.w3.org/Graphics/SVG/1.1/DTD/svg11.dtd">
<!-- Generated by graphviz version 2.42.3 (20191010.1750)
 -->
<!-- Title: snakemake_dag Pages: 1 -->
<svg width="707pt" height="692pt"
 viewBox="0.00 0.00 707.00 692.00" xmlns="http://www.w3.org/2000/svg" xmlns:xlink="http://www.w3.org/1999/xlink">
<g id="graph0" class="graph" transform="scale(1 1) rotate(0) translate(4 688)">
<title>snakemake_dag</title>
<polygon fill="white" stroke="transparent" points="-4,4 -4,-688 703,-688 703,4 -4,4"/>
<!-- 0 -->
<g id="node1" class="node">
<title>0</title>
<path fill="none" stroke="#56d8a2" stroke-width="2" d="M382,-36C382,-36 310,-36 310,-36 304,-36 298,-30 298,-24 298,-24 298,-12 298,-12 298,-6 304,0 310,0 310,0 382,0 382,0 388,0 394,-6 394,-12 394,-12 394,-24 394,-24 394,-30 388,-36 382,-36"/>
<text text-anchor="middle" x="346" y="-15.5" font-family="sans" font-size="10.00">make_summary</text>
</g>
<!-- 1 -->
<g id="node2" class="node">
<title>1</title>
<path fill="none" stroke="#d8c356" stroke-width="2" d="M84,-108C84,-108 12,-108 12,-108 6,-108 0,-102 0,-96 0,-96 0,-84 0,-84 0,-78 6,-72 12,-72 12,-72 84,-72 84,-72 90,-72 96,-78 96,-84 96,-84 96,-96 96,-96 96,-102 90,-108 84,-108"/>
<text text-anchor="middle" x="48" y="-87.5" font-family="sans" font-size="10.00">make_rulegraph</text>
</g>
<!-- 1&#45;&gt;0 -->
<g id="edge4" class="edge">
<title>1&#45;&gt;0</title>
<path fill="none" stroke="grey" stroke-width="2" d="M96.01,-75.6C100.73,-74.35 105.45,-73.13 110,-72 170.48,-56.92 240.17,-41.51 288.06,-31.22"/>
<polygon fill="grey" stroke="grey" stroke-width="2" points="288.89,-34.62 297.93,-29.11 287.42,-27.78 288.89,-34.62"/>
</g>
<!-- 2 -->
<g id="node3" class="node">
<title>2</title>
<path fill="none" stroke="#56a2d8" stroke-width="2" d="M389,-180C389,-180 303,-180 303,-180 297,-180 291,-174 291,-168 291,-168 291,-156 291,-156 291,-150 297,-144 303,-144 303,-144 389,-144 389,-144 395,-144 401,-150 401,-156 401,-156 401,-168 401,-168 401,-174 395,-180 389,-180"/>
<text text-anchor="middle" x="346" y="-159.5" font-family="sans" font-size="10.00">get_mut_bind_expr</text>
</g>
<!-- 2&#45;&gt;0 -->
<g id="edge10" class="edge">
<title>2&#45;&gt;0</title>
<path fill="none" stroke="grey" stroke-width="2" d="M346,-143.87C346,-119.67 346,-75.21 346,-46.39"/>
<polygon fill="grey" stroke="grey" stroke-width="2" points="349.5,-46.19 346,-36.19 342.5,-46.19 349.5,-46.19"/>
</g>
<!-- 12 -->
<g id="node13" class="node">
<title>12</title>
<path fill="none" stroke="#56c9d8" stroke-width="2" d="M459.5,-108C459.5,-108 390.5,-108 390.5,-108 384.5,-108 378.5,-102 378.5,-96 378.5,-96 378.5,-84 378.5,-84 378.5,-78 384.5,-72 390.5,-72 390.5,-72 459.5,-72 459.5,-72 465.5,-72 471.5,-78 471.5,-84 471.5,-84 471.5,-96 471.5,-96 471.5,-102 465.5,-108 459.5,-108"/>
<text text-anchor="middle" x="425" y="-87.5" font-family="sans" font-size="10.00">escape_profiles</text>
</g>
<!-- 2&#45;&gt;12 -->
<g id="edge22" class="edge">
<title>2&#45;&gt;12</title>
<path fill="none" stroke="grey" stroke-width="2" d="M365.53,-143.7C375.38,-134.97 387.49,-124.24 398.2,-114.75"/>
<polygon fill="grey" stroke="grey" stroke-width="2" points="400.53,-117.36 405.7,-108.1 395.89,-112.12 400.53,-117.36"/>
</g>
<!-- 3 -->
<g id="node4" class="node">
<title>3</title>
<path fill="none" stroke="#d87d56" stroke-width="2" d="M200.5,-612C200.5,-612 149.5,-612 149.5,-612 143.5,-612 137.5,-606 137.5,-600 137.5,-600 137.5,-588 137.5,-588 137.5,-582 143.5,-576 149.5,-576 149.5,-576 200.5,-576 200.5,-576 206.5,-576 212.5,-582 212.5,-588 212.5,-588 212.5,-600 212.5,-600 212.5,-606 206.5,-612 200.5,-612"/>
<text text-anchor="middle" x="175" y="-591.5" font-family="sans" font-size="10.00">process_ccs</text>
</g>
<!-- 3&#45;&gt;0 -->
<g id="edge1" class="edge">
<title>3&#45;&gt;0</title>
<path fill="none" stroke="grey" stroke-width="2" d="M164.43,-575.79C149.49,-549.77 124,-498.41 124,-451 124,-451 124,-451 124,-161 124,-83.1 222.2,-46.01 287.97,-29.9"/>
<polygon fill="grey" stroke="grey" stroke-width="2" points="288.9,-33.28 297.83,-27.58 287.29,-26.47 288.9,-33.28"/>
</g>
<!-- 5 -->
<g id="node6" class="node">
<title>5</title>
<path fill="none" stroke="#56d8c9" stroke-width="2" d="M394,-540C394,-540 332,-540 332,-540 326,-540 320,-534 320,-528 320,-528 320,-516 320,-516 320,-510 326,-504 332,-504 332,-504 394,-504 394,-504 400,-504 406,-510 406,-516 406,-516 406,-528 406,-528 406,-534 400,-540 394,-540"/>
<text text-anchor="middle" x="363" y="-519.5" font-family="sans" font-size="10.00">build_variants</text>
</g>
<!-- 3&#45;&gt;5 -->
<g id="edge13" class="edge">
<title>3&#45;&gt;5</title>
<path fill="none" stroke="grey" stroke-width="2" d="M212.59,-579C240.66,-568.55 279.37,-554.14 310.49,-542.55"/>
<polygon fill="grey" stroke="grey" stroke-width="2" points="311.73,-545.82 319.88,-539.05 309.29,-539.26 311.73,-545.82"/>
</g>
<!-- 4 -->
<g id="node5" class="node">
<title>4</title>
<path fill="none" stroke="#9fd856" stroke-width="2" d="M190,-684C190,-684 160,-684 160,-684 154,-684 148,-678 148,-672 148,-672 148,-660 148,-660 148,-654 154,-648 160,-648 160,-648 190,-648 190,-648 196,-648 202,-654 202,-660 202,-660 202,-672 202,-672 202,-678 196,-684 190,-684"/>
<text text-anchor="middle" x="175" y="-663.5" font-family="sans" font-size="10.00">get_ccs</text>
</g>
<!-- 4&#45;&gt;3 -->
<g id="edge12" class="edge">
<title>4&#45;&gt;3</title>
<path fill="none" stroke="grey" stroke-width="2" d="M175,-647.7C175,-639.98 175,-630.71 175,-622.11"/>
<polygon fill="grey" stroke="grey" stroke-width="2" points="178.5,-622.1 175,-612.1 171.5,-622.1 178.5,-622.1"/>
</g>
<!-- 5&#45;&gt;0 -->
<g id="edge8" class="edge">
<title>5&#45;&gt;0</title>
<path fill="none" stroke="grey" stroke-width="2" d="M406.24,-521.75C496.99,-520.84 699,-504.71 699,-379 699,-379 699,-379 699,-161 699,-118.66 697.78,-98.8 665,-72 626.02,-40.14 485.12,-26.91 404.21,-21.84"/>
<polygon fill="grey" stroke="grey" stroke-width="2" points="404.37,-18.34 394.17,-21.24 403.94,-25.33 404.37,-18.34"/>
</g>
<!-- 6 -->
<g id="node7" class="node">
<title>6</title>
<path fill="none" stroke="#59d856" stroke-width="2" d="M423.5,-396C423.5,-396 304.5,-396 304.5,-396 298.5,-396 292.5,-390 292.5,-384 292.5,-384 292.5,-372 292.5,-372 292.5,-366 298.5,-360 304.5,-360 304.5,-360 423.5,-360 423.5,-360 429.5,-360 435.5,-366 435.5,-372 435.5,-372 435.5,-384 435.5,-384 435.5,-390 429.5,-396 423.5,-396"/>
<text text-anchor="middle" x="364" y="-375.5" font-family="sans" font-size="10.00">aggregate_variant_counts</text>
</g>
<!-- 5&#45;&gt;6 -->
<g id="edge15" class="edge">
<title>5&#45;&gt;6</title>
<path fill="none" stroke="grey" stroke-width="2" d="M356.35,-503.63C352.8,-493.42 348.8,-480.17 347,-468 344.66,-452.17 344.53,-447.81 347,-432 348.36,-423.31 350.9,-414.1 353.61,-405.84"/>
<polygon fill="grey" stroke="grey" stroke-width="2" points="356.94,-406.93 356.93,-396.33 350.33,-404.62 356.94,-406.93"/>
</g>
<!-- 7 -->
<g id="node8" class="node">
<title>7</title>
<path fill="none" stroke="#c6d856" stroke-width="2" d="M432.5,-468C432.5,-468 367.5,-468 367.5,-468 361.5,-468 355.5,-462 355.5,-456 355.5,-456 355.5,-444 355.5,-444 355.5,-438 361.5,-432 367.5,-432 367.5,-432 432.5,-432 432.5,-432 438.5,-432 444.5,-438 444.5,-444 444.5,-444 444.5,-456 444.5,-456 444.5,-462 438.5,-468 432.5,-468"/>
<text text-anchor="middle" x="400" y="-447.5" font-family="sans" font-size="10.00">count_variants</text>
</g>
<!-- 5&#45;&gt;7 -->
<g id="edge16" class="edge">
<title>5&#45;&gt;7</title>
<path fill="none" stroke="grey" stroke-width="2" d="M372.15,-503.7C376.4,-495.64 381.56,-485.89 386.27,-476.98"/>
<polygon fill="grey" stroke="grey" stroke-width="2" points="389.38,-478.58 390.96,-468.1 383.19,-475.31 389.38,-478.58"/>
</g>
<!-- 6&#45;&gt;0 -->
<g id="edge6" class="edge">
<title>6&#45;&gt;0</title>
<path fill="none" stroke="grey" stroke-width="2" d="M435.52,-373.27C523.4,-364.39 661,-334.59 661,-235 661,-235 661,-235 661,-161 661,-120.55 671.07,-100.12 642,-72 608.94,-40.02 481.15,-26.95 404.7,-21.92"/>
<polygon fill="grey" stroke="grey" stroke-width="2" points="404.47,-18.39 394.27,-21.26 404.03,-25.38 404.47,-18.39"/>
</g>
<!-- 8 -->
<g id="node9" class="node">
<title>8</title>
<path fill="none" stroke="#78d856" stroke-width="2" d="M259.5,-252C259.5,-252 164.5,-252 164.5,-252 158.5,-252 152.5,-246 152.5,-240 152.5,-240 152.5,-228 152.5,-228 152.5,-222 158.5,-216 164.5,-216 164.5,-216 259.5,-216 259.5,-216 265.5,-216 271.5,-222 271.5,-228 271.5,-228 271.5,-240 271.5,-240 271.5,-246 265.5,-252 259.5,-252"/>
<text text-anchor="middle" x="212" y="-231.5" font-family="sans" font-size="10.00">counts_to_cells_ratio</text>
</g>
<!-- 6&#45;&gt;8 -->
<g id="edge17" class="edge">
<title>6&#45;&gt;8</title>
<path fill="none" stroke="grey" stroke-width="2" d="M344.73,-359.97C333.14,-349.65 318.13,-336.17 305,-324 281.77,-302.46 255.75,-277.49 237.16,-259.49"/>
<polygon fill="grey" stroke="grey" stroke-width="2" points="239.29,-256.68 229.67,-252.23 234.41,-261.7 239.29,-256.68"/>
</g>
<!-- 9 -->
<g id="node10" class="node">
<title>9</title>
<path fill="none" stroke="#d8a456" stroke-width="2" d="M402.5,-324C402.5,-324 325.5,-324 325.5,-324 319.5,-324 313.5,-318 313.5,-312 313.5,-312 313.5,-300 313.5,-300 313.5,-294 319.5,-288 325.5,-288 325.5,-288 402.5,-288 402.5,-288 408.5,-288 414.5,-294 414.5,-300 414.5,-300 414.5,-312 414.5,-312 414.5,-318 408.5,-324 402.5,-324"/>
<text text-anchor="middle" x="364" y="-303.5" font-family="sans" font-size="10.00">counts_to_scores</text>
</g>
<!-- 6&#45;&gt;9 -->
<g id="edge18" class="edge">
<title>6&#45;&gt;9</title>
<path fill="none" stroke="grey" stroke-width="2" d="M364,-359.7C364,-351.98 364,-342.71 364,-334.11"/>
<polygon fill="grey" stroke="grey" stroke-width="2" points="367.5,-334.1 364,-324.1 360.5,-334.1 367.5,-334.1"/>
</g>
<!-- 7&#45;&gt;6 -->
<g id="edge14" class="edge">
<title>7&#45;&gt;6</title>
<path fill="none" stroke="grey" stroke-width="2" d="M391.1,-431.7C387,-423.73 382.05,-414.1 377.51,-405.26"/>
<polygon fill="grey" stroke="grey" stroke-width="2" points="380.48,-403.4 372.8,-396.1 374.26,-406.6 380.48,-403.4"/>
</g>
<!-- 8&#45;&gt;0 -->
<g id="edge5" class="edge">
<title>8&#45;&gt;0</title>
<path fill="none" stroke="grey" stroke-width="2" d="M206.02,-215.66C196.29,-184.02 180.93,-116.11 211,-72 228.32,-46.6 259.83,-33.37 288.05,-26.48"/>
<polygon fill="grey" stroke="grey" stroke-width="2" points="288.87,-29.89 297.87,-24.3 287.35,-23.05 288.87,-29.89"/>
</g>
<!-- 9&#45;&gt;0 -->
<g id="edge3" class="edge">
<title>9&#45;&gt;0</title>
<path fill="none" stroke="grey" stroke-width="2" d="M344.47,-287.89C320.83,-265.76 282.31,-224.7 267,-180 258.78,-155.99 275.93,-73.83 277,-72 283.9,-60.14 294.59,-50.02 305.52,-41.9"/>
<polygon fill="grey" stroke="grey" stroke-width="2" points="307.65,-44.68 313.86,-36.09 303.65,-38.94 307.65,-44.68"/>
</g>
<!-- 10 -->
<g id="node11" class="node">
<title>10</title>
<path fill="none" stroke="#567bd8" stroke-width="2" d="M480.5,-252C480.5,-252 377.5,-252 377.5,-252 371.5,-252 365.5,-246 365.5,-240 365.5,-240 365.5,-228 365.5,-228 365.5,-222 371.5,-216 377.5,-216 377.5,-216 480.5,-216 480.5,-216 486.5,-216 492.5,-222 492.5,-228 492.5,-228 492.5,-240 492.5,-240 492.5,-246 486.5,-252 480.5,-252"/>
<text text-anchor="middle" x="429" y="-231.5" font-family="sans" font-size="10.00">scores_to_frac_escape</text>
</g>
<!-- 9&#45;&gt;10 -->
<g id="edge19" class="edge">
<title>9&#45;&gt;10</title>
<path fill="none" stroke="grey" stroke-width="2" d="M380.07,-287.7C387.94,-279.22 397.56,-268.86 406.17,-259.58"/>
<polygon fill="grey" stroke="grey" stroke-width="2" points="408.88,-261.81 413.12,-252.1 403.75,-257.05 408.88,-261.81"/>
</g>
<!-- 10&#45;&gt;0 -->
<g id="edge11" class="edge">
<title>10&#45;&gt;0</title>
<path fill="none" stroke="grey" stroke-width="2" d="M365.22,-226.74C334.74,-220.17 300.87,-206.86 282,-180 251.59,-136.71 293.18,-76.9 322.19,-43.71"/>
<polygon fill="grey" stroke="grey" stroke-width="2" points="324.8,-46.04 328.88,-36.26 319.59,-41.36 324.8,-46.04"/>
</g>
<!-- 11 -->
<g id="node12" class="node">
<title>11</title>
<path fill="none" stroke="#56d87b" stroke-width="2" d="M583,-180C583,-180 469,-180 469,-180 463,-180 457,-174 457,-168 457,-168 457,-156 457,-156 457,-150 463,-144 469,-144 469,-144 583,-144 583,-144 589,-144 595,-150 595,-156 595,-156 595,-168 595,-168 595,-174 589,-180 583,-180"/>
<text text-anchor="middle" x="526" y="-159.5" font-family="sans" font-size="10.00">call_strong_escape_sites</text>
</g>
<!-- 10&#45;&gt;11 -->
<g id="edge20" class="edge">
<title>10&#45;&gt;11</title>
<path fill="none" stroke="grey" stroke-width="2" d="M452.98,-215.7C465.31,-206.8 480.52,-195.82 493.85,-186.2"/>
<polygon fill="grey" stroke="grey" stroke-width="2" points="496.24,-188.79 502.3,-180.1 492.14,-183.12 496.24,-188.79"/>
</g>
<!-- 10&#45;&gt;12 -->
<g id="edge23" class="edge">
<title>10&#45;&gt;12</title>
<path fill="none" stroke="grey" stroke-width="2" d="M428.52,-215.87C427.84,-191.67 426.58,-147.21 425.77,-118.39"/>
<polygon fill="grey" stroke="grey" stroke-width="2" points="429.26,-118.09 425.48,-108.19 422.27,-118.28 429.26,-118.09"/>
</g>
<!-- 13 -->
<g id="node14" class="node">
<title>13</title>
<path fill="none" stroke="#d85656" stroke-width="2" d="M620.5,-108C620.5,-108 567.5,-108 567.5,-108 561.5,-108 555.5,-102 555.5,-96 555.5,-96 555.5,-84 555.5,-84 555.5,-78 561.5,-72 567.5,-72 567.5,-72 620.5,-72 620.5,-72 626.5,-72 632.5,-78 632.5,-84 632.5,-84 632.5,-96 632.5,-96 632.5,-102 626.5,-108 620.5,-108"/>
<text text-anchor="middle" x="594" y="-87.5" font-family="sans" font-size="10.00">output_pdbs</text>
</g>
<!-- 10&#45;&gt;13 -->
<g id="edge24" class="edge">
<title>10&#45;&gt;13</title>
<path fill="none" stroke="grey" stroke-width="2" d="M492.65,-231.69C531.54,-227.18 578.56,-214.29 604,-180 617.18,-162.24 612.63,-136.75 605.98,-117.59"/>
<polygon fill="grey" stroke="grey" stroke-width="2" points="609.24,-116.32 602.4,-108.23 602.7,-118.82 609.24,-116.32"/>
</g>
<!-- 11&#45;&gt;0 -->
<g id="edge7" class="edge">
<title>11&#45;&gt;0</title>
<path fill="none" stroke="grey" stroke-width="2" d="M521.44,-143.97C515.32,-124.17 502.64,-91.7 481,-72 459.45,-52.39 429.8,-39.68 403.77,-31.64"/>
<polygon fill="grey" stroke="grey" stroke-width="2" points="404.58,-28.23 394,-28.78 402.62,-34.94 404.58,-28.23"/>
</g>
<!-- 11&#45;&gt;12 -->
<g id="edge21" class="edge">
<title>11&#45;&gt;12</title>
<path fill="none" stroke="grey" stroke-width="2" d="M501.29,-143.88C488.33,-134.89 472.27,-123.76 458.23,-114.03"/>
<polygon fill="grey" stroke="grey" stroke-width="2" points="460.02,-111.01 449.8,-108.19 456.03,-116.76 460.02,-111.01"/>
</g>
<!-- 12&#45;&gt;0 -->
<g id="edge9" class="edge">
<title>12&#45;&gt;0</title>
<path fill="none" stroke="grey" stroke-width="2" d="M405.47,-71.7C395.62,-62.97 383.51,-52.24 372.8,-42.75"/>
<polygon fill="grey" stroke="grey" stroke-width="2" points="375.11,-40.12 365.3,-36.1 370.47,-45.36 375.11,-40.12"/>
</g>
<!-- 13&#45;&gt;0 -->
<g id="edge2" class="edge">
<title>13&#45;&gt;0</title>
<path fill="none" stroke="grey" stroke-width="2" d="M555.25,-78.06C514.68,-66.61 450.51,-48.5 403.92,-35.35"/>
<polygon fill="grey" stroke="grey" stroke-width="2" points="404.83,-31.97 394.26,-32.62 402.93,-38.71 404.83,-31.97"/>
</g>
</g>
</svg>
