<?xml version="1.0" encoding="UTF-8" standalone="no"?>
<!DOCTYPE svg PUBLIC "-//W3C//DTD SVG 1.1//EN"
 "http://www.w3.org/Graphics/SVG/1.1/DTD/svg11.dtd">
<!-- Generated by graphviz version 2.42.3 (20191010.1750)
 -->
<!-- Title: snakemake_dag Pages: 1 -->
<svg width="1342pt" height="476pt"
 viewBox="0.00 0.00 1341.50 476.00" xmlns="http://www.w3.org/2000/svg" xmlns:xlink="http://www.w3.org/1999/xlink">
<g id="graph0" class="graph" transform="scale(1 1) rotate(0) translate(4 472)">
<title>snakemake_dag</title>
<polygon fill="white" stroke="transparent" points="-4,4 -4,-472 1337.5,-472 1337.5,4 -4,4"/>
<!-- 0 -->
<g id="node1" class="node">
<title>0</title>
<path fill="none" stroke="#56d8d0" stroke-width="2" d="M733,-36C733,-36 661,-36 661,-36 655,-36 649,-30 649,-24 649,-24 649,-12 649,-12 649,-6 655,0 661,0 661,0 733,0 733,0 739,0 745,-6 745,-12 745,-12 745,-24 745,-24 745,-30 739,-36 733,-36"/>
<text text-anchor="middle" x="697" y="-15.5" font-family="sans" font-size="10.00">make_summary</text>
</g>
<!-- 1 -->
<g id="node2" class="node">
<title>1</title>
<path fill="none" stroke="#56d89a" stroke-width="2" d="M84,-108C84,-108 12,-108 12,-108 6,-108 0,-102 0,-96 0,-96 0,-84 0,-84 0,-78 6,-72 12,-72 12,-72 84,-72 84,-72 90,-72 96,-78 96,-84 96,-84 96,-96 96,-96 96,-102 90,-108 84,-108"/>
<text text-anchor="middle" x="48" y="-87.5" font-family="sans" font-size="10.00">make_rulegraph</text>
</g>
<!-- 1&#45;&gt;0 -->
<g id="edge3" class="edge">
<title>1&#45;&gt;0</title>
<path fill="none" stroke="grey" stroke-width="2" d="M96.21,-74.89C100.85,-73.8 105.5,-72.81 110,-72 301.48,-37.39 532.4,-24.95 638.5,-20.85"/>
<polygon fill="grey" stroke="grey" stroke-width="2" points="638.81,-24.34 648.68,-20.46 638.55,-17.34 638.81,-24.34"/>
</g>
<!-- 2 -->
<g id="node3" class="node">
<title>2</title>
<path fill="none" stroke="#d85656" stroke-width="2" d="M922,-252C922,-252 836,-252 836,-252 830,-252 824,-246 824,-240 824,-240 824,-228 824,-228 824,-222 830,-216 836,-216 836,-216 922,-216 922,-216 928,-216 934,-222 934,-228 934,-228 934,-240 934,-240 934,-246 928,-252 922,-252"/>
<text text-anchor="middle" x="879" y="-231.5" font-family="sans" font-size="10.00">get_mut_bind_expr</text>
</g>
<!-- 2&#45;&gt;0 -->
<g id="edge2" class="edge">
<title>2&#45;&gt;0</title>
<path fill="none" stroke="grey" stroke-width="2" d="M881.52,-215.63C885.17,-183.32 888.09,-113.52 853,-72 828.9,-43.49 788.84,-30.28 755.34,-24.17"/>
<polygon fill="grey" stroke="grey" stroke-width="2" points="755.62,-20.67 745.18,-22.49 754.48,-27.57 755.62,-20.67"/>
</g>
<!-- 13 -->
<g id="node14" class="node">
<title>13</title>
<path fill="none" stroke="#56c1d8" stroke-width="2" d="M807,-180C807,-180 739,-180 739,-180 733,-180 727,-174 727,-168 727,-168 727,-156 727,-156 727,-150 733,-144 739,-144 739,-144 807,-144 807,-144 813,-144 819,-150 819,-156 819,-156 819,-168 819,-168 819,-174 813,-180 807,-180"/>
<text text-anchor="middle" x="773" y="-159.5" font-family="sans" font-size="10.00">escape_profiles</text>
</g>
<!-- 2&#45;&gt;13 -->
<g id="edge25" class="edge">
<title>2&#45;&gt;13</title>
<path fill="none" stroke="grey" stroke-width="2" d="M853.07,-215.88C839.34,-206.81 822.29,-195.55 807.46,-185.76"/>
<polygon fill="grey" stroke="grey" stroke-width="2" points="809.3,-182.78 799.03,-180.19 805.45,-188.62 809.3,-182.78"/>
</g>
<!-- 15 -->
<g id="node16" class="node">
<title>15</title>
<path fill="none" stroke="#ced856" stroke-width="2" d="M1072,-108C1072,-108 950,-108 950,-108 944,-108 938,-102 938,-96 938,-96 938,-84 938,-84 938,-78 944,-72 950,-72 950,-72 1072,-72 1072,-72 1078,-72 1084,-78 1084,-84 1084,-84 1084,-96 1084,-96 1084,-102 1078,-108 1072,-108"/>
<text text-anchor="middle" x="1011" y="-87.5" font-family="sans" font-size="10.00">early2020_escape_profiles</text>
</g>
<!-- 2&#45;&gt;15 -->
<g id="edge27" class="edge">
<title>2&#45;&gt;15</title>
<path fill="none" stroke="grey" stroke-width="2" d="M894.92,-215.87C918.11,-190.92 961.31,-144.45 987.97,-115.77"/>
<polygon fill="grey" stroke="grey" stroke-width="2" points="990.78,-117.9 995.02,-108.19 985.65,-113.13 990.78,-117.9"/>
</g>
<!-- 3 -->
<g id="node4" class="node">
<title>3</title>
<path fill="none" stroke="#5673d8" stroke-width="2" d="M304,-108C304,-108 164,-108 164,-108 158,-108 152,-102 152,-96 152,-96 152,-84 152,-84 152,-78 158,-72 164,-72 164,-72 304,-72 304,-72 310,-72 316,-78 316,-84 316,-84 316,-96 316,-96 316,-102 310,-108 304,-108"/>
<text text-anchor="middle" x="234" y="-87.5" font-family="sans" font-size="10.00">get_early2020_mut_bind_expr</text>
</g>
<!-- 3&#45;&gt;0 -->
<g id="edge16" class="edge">
<title>3&#45;&gt;0</title>
<path fill="none" stroke="grey" stroke-width="2" d="M316.31,-73.46C319.24,-72.96 322.15,-72.47 325,-72 435.66,-53.79 565.45,-36.14 638.78,-26.5"/>
<polygon fill="grey" stroke="grey" stroke-width="2" points="639.28,-29.97 648.74,-25.2 638.37,-23.03 639.28,-29.97"/>
</g>
<!-- 4 -->
<g id="node5" class="node">
<title>4</title>
<path fill="none" stroke="#97d856" stroke-width="2" d="M1135.5,-252C1135.5,-252 1004.5,-252 1004.5,-252 998.5,-252 992.5,-246 992.5,-240 992.5,-240 992.5,-228 992.5,-228 992.5,-222 998.5,-216 1004.5,-216 1004.5,-216 1135.5,-216 1135.5,-216 1141.5,-216 1147.5,-222 1147.5,-228 1147.5,-228 1147.5,-240 1147.5,-240 1147.5,-246 1141.5,-252 1135.5,-252"/>
<text text-anchor="middle" x="1070" y="-231.5" font-family="sans" font-size="10.00">get_early2020_escape_fracs</text>
</g>
<!-- 4&#45;&gt;0 -->
<g id="edge12" class="edge">
<title>4&#45;&gt;0</title>
<path fill="none" stroke="grey" stroke-width="2" d="M1043.7,-215.92C1028.78,-205.91 1009.95,-192.77 994,-180 938.5,-135.57 937.89,-106.99 876,-72 838.48,-50.79 791.63,-37.31 755.27,-29.26"/>
<polygon fill="grey" stroke="grey" stroke-width="2" points="755.83,-25.8 745.31,-27.13 754.36,-32.64 755.83,-25.8"/>
</g>
<!-- 14 -->
<g id="node15" class="node">
<title>14</title>
<path fill="none" stroke="#d8ac56" stroke-width="2" d="M1194,-180C1194,-180 1026,-180 1026,-180 1020,-180 1014,-174 1014,-168 1014,-168 1014,-156 1014,-156 1014,-150 1020,-144 1026,-144 1026,-144 1194,-144 1194,-144 1200,-144 1206,-150 1206,-156 1206,-156 1206,-168 1206,-168 1206,-174 1200,-180 1194,-180"/>
<text text-anchor="middle" x="1110" y="-159.5" font-family="sans" font-size="10.00">early2020_call_strong_escape_sites</text>
</g>
<!-- 4&#45;&gt;14 -->
<g id="edge26" class="edge">
<title>4&#45;&gt;14</title>
<path fill="none" stroke="grey" stroke-width="2" d="M1079.89,-215.7C1084.49,-207.64 1090.06,-197.89 1095.15,-188.98"/>
<polygon fill="grey" stroke="grey" stroke-width="2" points="1098.3,-190.52 1100.23,-180.1 1092.23,-187.05 1098.3,-190.52"/>
</g>
<!-- 4&#45;&gt;15 -->
<g id="edge28" class="edge">
<title>4&#45;&gt;15</title>
<path fill="none" stroke="grey" stroke-width="2" d="M1038.42,-215.78C1025.55,-206.93 1012.06,-194.86 1005,-180 995.85,-160.73 998.28,-136.43 1002.48,-118.1"/>
<polygon fill="grey" stroke="grey" stroke-width="2" points="1005.89,-118.89 1005.01,-108.33 999.12,-117.14 1005.89,-118.89"/>
</g>
<!-- 18 -->
<g id="node19" class="node">
<title>18</title>
<path fill="none" stroke="#56d8b9" stroke-width="2" d="M1321.5,-180C1321.5,-180 1236.5,-180 1236.5,-180 1230.5,-180 1224.5,-174 1224.5,-168 1224.5,-168 1224.5,-156 1224.5,-156 1224.5,-150 1230.5,-144 1236.5,-144 1236.5,-144 1321.5,-144 1321.5,-144 1327.5,-144 1333.5,-150 1333.5,-156 1333.5,-156 1333.5,-168 1333.5,-168 1333.5,-174 1327.5,-180 1321.5,-180"/>
<text text-anchor="middle" x="1279" y="-159.5" font-family="sans" font-size="10.00">lineplots_by_group</text>
</g>
<!-- 4&#45;&gt;18 -->
<g id="edge31" class="edge">
<title>4&#45;&gt;18</title>
<path fill="none" stroke="grey" stroke-width="2" d="M1120.86,-215.97C1150.19,-206.14 1187.25,-193.73 1218.12,-183.39"/>
<polygon fill="grey" stroke="grey" stroke-width="2" points="1219.54,-186.61 1227.91,-180.11 1217.32,-179.97 1219.54,-186.61"/>
</g>
<!-- 5 -->
<g id="node6" class="node">
<title>5</title>
<path fill="none" stroke="#d8c356" stroke-width="2" d="M319.5,-396C319.5,-396 268.5,-396 268.5,-396 262.5,-396 256.5,-390 256.5,-384 256.5,-384 256.5,-372 256.5,-372 256.5,-366 262.5,-360 268.5,-360 268.5,-360 319.5,-360 319.5,-360 325.5,-360 331.5,-366 331.5,-372 331.5,-372 331.5,-384 331.5,-384 331.5,-390 325.5,-396 319.5,-396"/>
<text text-anchor="middle" x="294" y="-375.5" font-family="sans" font-size="10.00">process_ccs</text>
</g>
<!-- 5&#45;&gt;0 -->
<g id="edge13" class="edge">
<title>5&#45;&gt;0</title>
<path fill="none" stroke="grey" stroke-width="2" d="M256.27,-364.55C206.19,-345.36 124,-303.45 124,-235 124,-235 124,-235 124,-161 124,-120.55 112.8,-98.91 143,-72 179.47,-39.5 504.04,-25.27 638.77,-20.73"/>
<polygon fill="grey" stroke="grey" stroke-width="2" points="639.03,-24.22 648.91,-20.4 638.8,-17.23 639.03,-24.22"/>
</g>
<!-- 7 -->
<g id="node8" class="node">
<title>7</title>
<path fill="none" stroke="#61d856" stroke-width="2" d="M495,-324C495,-324 433,-324 433,-324 427,-324 421,-318 421,-312 421,-312 421,-300 421,-300 421,-294 427,-288 433,-288 433,-288 495,-288 495,-288 501,-288 507,-294 507,-300 507,-300 507,-312 507,-312 507,-318 501,-324 495,-324"/>
<text text-anchor="middle" x="464" y="-303.5" font-family="sans" font-size="10.00">build_variants</text>
</g>
<!-- 5&#45;&gt;7 -->
<g id="edge18" class="edge">
<title>5&#45;&gt;7</title>
<path fill="none" stroke="grey" stroke-width="2" d="M331.73,-361.46C355.69,-351.6 386.99,-338.71 413.13,-327.95"/>
<polygon fill="grey" stroke="grey" stroke-width="2" points="414.59,-331.13 422.51,-324.09 411.93,-324.66 414.59,-331.13"/>
</g>
<!-- 6 -->
<g id="node7" class="node">
<title>6</title>
<path fill="none" stroke="#56d863" stroke-width="2" d="M309,-468C309,-468 279,-468 279,-468 273,-468 267,-462 267,-456 267,-456 267,-444 267,-444 267,-438 273,-432 279,-432 279,-432 309,-432 309,-432 315,-432 321,-438 321,-444 321,-444 321,-456 321,-456 321,-462 315,-468 309,-468"/>
<text text-anchor="middle" x="294" y="-447.5" font-family="sans" font-size="10.00">get_ccs</text>
</g>
<!-- 6&#45;&gt;5 -->
<g id="edge17" class="edge">
<title>6&#45;&gt;5</title>
<path fill="none" stroke="grey" stroke-width="2" d="M294,-431.7C294,-423.98 294,-414.71 294,-406.11"/>
<polygon fill="grey" stroke="grey" stroke-width="2" points="297.5,-406.1 294,-396.1 290.5,-406.1 297.5,-406.1"/>
</g>
<!-- 7&#45;&gt;0 -->
<g id="edge14" class="edge">
<title>7&#45;&gt;0</title>
<path fill="none" stroke="grey" stroke-width="2" d="M502.29,-287.77C519.45,-278.79 539.12,-266.61 554,-252 618.05,-189.11 665.51,-91.98 685.93,-45.52"/>
<polygon fill="grey" stroke="grey" stroke-width="2" points="689.23,-46.71 689.99,-36.15 682.81,-43.93 689.23,-46.71"/>
</g>
<!-- 8 -->
<g id="node9" class="node">
<title>8</title>
<path fill="none" stroke="#56d882" stroke-width="2" d="M523.5,-180C523.5,-180 404.5,-180 404.5,-180 398.5,-180 392.5,-174 392.5,-168 392.5,-168 392.5,-156 392.5,-156 392.5,-150 398.5,-144 404.5,-144 404.5,-144 523.5,-144 523.5,-144 529.5,-144 535.5,-150 535.5,-156 535.5,-156 535.5,-168 535.5,-168 535.5,-174 529.5,-180 523.5,-180"/>
<text text-anchor="middle" x="464" y="-159.5" font-family="sans" font-size="10.00">aggregate_variant_counts</text>
</g>
<!-- 7&#45;&gt;8 -->
<g id="edge20" class="edge">
<title>7&#45;&gt;8</title>
<path fill="none" stroke="grey" stroke-width="2" d="M456.93,-287.67C453.16,-277.47 448.91,-264.22 447,-252 444.53,-236.19 444.53,-231.81 447,-216 448.36,-207.31 450.9,-198.1 453.61,-189.84"/>
<polygon fill="grey" stroke="grey" stroke-width="2" points="456.94,-190.93 456.93,-180.33 450.33,-188.62 456.94,-190.93"/>
</g>
<!-- 9 -->
<g id="node10" class="node">
<title>9</title>
<path fill="none" stroke="#b6d856" stroke-width="2" d="M533.5,-252C533.5,-252 468.5,-252 468.5,-252 462.5,-252 456.5,-246 456.5,-240 456.5,-240 456.5,-228 456.5,-228 456.5,-222 462.5,-216 468.5,-216 468.5,-216 533.5,-216 533.5,-216 539.5,-216 545.5,-222 545.5,-228 545.5,-228 545.5,-240 545.5,-240 545.5,-246 539.5,-252 533.5,-252"/>
<text text-anchor="middle" x="501" y="-231.5" font-family="sans" font-size="10.00">count_variants</text>
</g>
<!-- 7&#45;&gt;9 -->
<g id="edge21" class="edge">
<title>7&#45;&gt;9</title>
<path fill="none" stroke="grey" stroke-width="2" d="M473.15,-287.7C477.4,-279.64 482.56,-269.89 487.27,-260.98"/>
<polygon fill="grey" stroke="grey" stroke-width="2" points="490.38,-262.58 491.96,-252.1 484.19,-259.31 490.38,-262.58"/>
</g>
<!-- 8&#45;&gt;0 -->
<g id="edge1" class="edge">
<title>8&#45;&gt;0</title>
<path fill="none" stroke="grey" stroke-width="2" d="M462.66,-143.8C462.1,-123.83 464.43,-91.18 483,-72 504.37,-49.93 583.07,-34.7 638.81,-26.41"/>
<polygon fill="grey" stroke="grey" stroke-width="2" points="639.53,-29.84 648.93,-24.94 638.53,-22.91 639.53,-29.84"/>
</g>
<!-- 10 -->
<g id="node11" class="node">
<title>10</title>
<path fill="none" stroke="#d87556" stroke-width="2" d="M599.5,-108C599.5,-108 504.5,-108 504.5,-108 498.5,-108 492.5,-102 492.5,-96 492.5,-96 492.5,-84 492.5,-84 492.5,-78 498.5,-72 504.5,-72 504.5,-72 599.5,-72 599.5,-72 605.5,-72 611.5,-78 611.5,-84 611.5,-84 611.5,-96 611.5,-96 611.5,-102 605.5,-108 599.5,-108"/>
<text text-anchor="middle" x="552" y="-87.5" font-family="sans" font-size="10.00">counts_to_cells_ratio</text>
</g>
<!-- 8&#45;&gt;10 -->
<g id="edge22" class="edge">
<title>8&#45;&gt;10</title>
<path fill="none" stroke="grey" stroke-width="2" d="M485.75,-143.7C496.84,-134.88 510.47,-124.03 522.49,-114.47"/>
<polygon fill="grey" stroke="grey" stroke-width="2" points="524.85,-117.07 530.5,-108.1 520.49,-111.59 524.85,-117.07"/>
</g>
<!-- 11 -->
<g id="node12" class="node">
<title>11</title>
<path fill="none" stroke="#d88d56" stroke-width="2" d="M423.5,-108C423.5,-108 346.5,-108 346.5,-108 340.5,-108 334.5,-102 334.5,-96 334.5,-96 334.5,-84 334.5,-84 334.5,-78 340.5,-72 346.5,-72 346.5,-72 423.5,-72 423.5,-72 429.5,-72 435.5,-78 435.5,-84 435.5,-84 435.5,-96 435.5,-96 435.5,-102 429.5,-108 423.5,-108"/>
<text text-anchor="middle" x="385" y="-87.5" font-family="sans" font-size="10.00">counts_to_scores</text>
</g>
<!-- 8&#45;&gt;11 -->
<g id="edge23" class="edge">
<title>8&#45;&gt;11</title>
<path fill="none" stroke="grey" stroke-width="2" d="M444.47,-143.7C434.62,-134.97 422.51,-124.24 411.8,-114.75"/>
<polygon fill="grey" stroke="grey" stroke-width="2" points="414.11,-112.12 404.3,-108.1 409.47,-117.36 414.11,-112.12"/>
</g>
<!-- 9&#45;&gt;8 -->
<g id="edge19" class="edge">
<title>9&#45;&gt;8</title>
<path fill="none" stroke="grey" stroke-width="2" d="M491.85,-215.7C487.6,-207.64 482.44,-197.89 477.73,-188.98"/>
<polygon fill="grey" stroke="grey" stroke-width="2" points="480.81,-187.31 473.04,-180.1 474.62,-190.58 480.81,-187.31"/>
</g>
<!-- 10&#45;&gt;0 -->
<g id="edge4" class="edge">
<title>10&#45;&gt;0</title>
<path fill="none" stroke="grey" stroke-width="2" d="M587.47,-71.88C607.12,-62.39 631.72,-50.51 652.63,-40.42"/>
<polygon fill="grey" stroke="grey" stroke-width="2" points="654.16,-43.57 661.64,-36.07 651.12,-37.26 654.16,-43.57"/>
</g>
<!-- 11&#45;&gt;0 -->
<g id="edge8" class="edge">
<title>11&#45;&gt;0</title>
<path fill="none" stroke="grey" stroke-width="2" d="M435.69,-75.51C440.52,-74.3 445.35,-73.11 450,-72 514.27,-56.71 588.41,-41.06 638.57,-30.77"/>
<polygon fill="grey" stroke="grey" stroke-width="2" points="639.49,-34.16 648.58,-28.73 638.08,-27.3 639.49,-34.16"/>
</g>
<!-- 12 -->
<g id="node13" class="node">
<title>12</title>
<path fill="none" stroke="#80d856" stroke-width="2" d="M794,-252C794,-252 680,-252 680,-252 674,-252 668,-246 668,-240 668,-240 668,-228 668,-228 668,-222 674,-216 680,-216 680,-216 794,-216 794,-216 800,-216 806,-222 806,-228 806,-228 806,-240 806,-240 806,-246 800,-252 794,-252"/>
<text text-anchor="middle" x="737" y="-231.5" font-family="sans" font-size="10.00">call_strong_escape_sites</text>
</g>
<!-- 12&#45;&gt;0 -->
<g id="edge10" class="edge">
<title>12&#45;&gt;0</title>
<path fill="none" stroke="grey" stroke-width="2" d="M729.7,-215.62C725.69,-205.41 720.94,-192.16 718,-180 706.82,-133.72 701.25,-78.42 698.76,-46.15"/>
<polygon fill="grey" stroke="grey" stroke-width="2" points="702.24,-45.86 698.02,-36.14 695.26,-46.37 702.24,-45.86"/>
</g>
<!-- 12&#45;&gt;13 -->
<g id="edge24" class="edge">
<title>12&#45;&gt;13</title>
<path fill="none" stroke="grey" stroke-width="2" d="M745.9,-215.7C750,-207.73 754.95,-198.1 759.49,-189.26"/>
<polygon fill="grey" stroke="grey" stroke-width="2" points="762.74,-190.6 764.2,-180.1 756.52,-187.4 762.74,-190.6"/>
</g>
<!-- 13&#45;&gt;0 -->
<g id="edge5" class="edge">
<title>13&#45;&gt;0</title>
<path fill="none" stroke="grey" stroke-width="2" d="M759.33,-143.97C751.61,-133.88 742.11,-120.63 735,-108 723.72,-87.96 713.63,-63.9 706.7,-45.85"/>
<polygon fill="grey" stroke="grey" stroke-width="2" points="709.88,-44.38 703.08,-36.26 703.33,-46.85 709.88,-44.38"/>
</g>
<!-- 17 -->
<g id="node18" class="node">
<title>17</title>
<path fill="none" stroke="#568ad8" stroke-width="2" d="M832,-108C832,-108 756,-108 756,-108 750,-108 744,-102 744,-96 744,-96 744,-84 744,-84 744,-78 750,-72 756,-72 756,-72 832,-72 832,-72 838,-72 844,-78 844,-84 844,-84 844,-96 844,-96 844,-102 838,-108 832,-108"/>
<text text-anchor="middle" x="794" y="-87.5" font-family="sans" font-size="10.00">make_supp_data</text>
</g>
<!-- 13&#45;&gt;17 -->
<g id="edge30" class="edge">
<title>13&#45;&gt;17</title>
<path fill="none" stroke="grey" stroke-width="2" d="M778.19,-143.7C780.53,-135.9 783.35,-126.51 785.95,-117.83"/>
<polygon fill="grey" stroke="grey" stroke-width="2" points="789.35,-118.69 788.87,-108.1 782.64,-116.68 789.35,-118.69"/>
</g>
<!-- 14&#45;&gt;0 -->
<g id="edge9" class="edge">
<title>14&#45;&gt;0</title>
<path fill="none" stroke="grey" stroke-width="2" d="M1150.68,-143.88C1165.52,-135.41 1180.68,-123.59 1189,-108 1196.53,-93.88 1199.69,-83.9 1189,-72 1160.46,-40.22 879.24,-25.83 755.24,-20.99"/>
<polygon fill="grey" stroke="grey" stroke-width="2" points="755.29,-17.49 745.16,-20.6 755.02,-24.48 755.29,-17.49"/>
</g>
<!-- 14&#45;&gt;15 -->
<g id="edge29" class="edge">
<title>14&#45;&gt;15</title>
<path fill="none" stroke="grey" stroke-width="2" d="M1085.78,-143.88C1073.08,-134.89 1057.34,-123.76 1043.58,-114.03"/>
<polygon fill="grey" stroke="grey" stroke-width="2" points="1045.5,-111.11 1035.31,-108.19 1041.46,-116.82 1045.5,-111.11"/>
</g>
<!-- 15&#45;&gt;0 -->
<g id="edge7" class="edge">
<title>15&#45;&gt;0</title>
<path fill="none" stroke="grey" stroke-width="2" d="M937.78,-72.68C882.22,-60.29 806.87,-43.49 755.35,-32.01"/>
<polygon fill="grey" stroke="grey" stroke-width="2" points="755.9,-28.54 745.38,-29.79 754.38,-35.38 755.9,-28.54"/>
</g>
<!-- 16 -->
<g id="node17" class="node">
<title>16</title>
<path fill="none" stroke="#56a9d8" stroke-width="2" d="M1167.5,-108C1167.5,-108 1114.5,-108 1114.5,-108 1108.5,-108 1102.5,-102 1102.5,-96 1102.5,-96 1102.5,-84 1102.5,-84 1102.5,-78 1108.5,-72 1114.5,-72 1114.5,-72 1167.5,-72 1167.5,-72 1173.5,-72 1179.5,-78 1179.5,-84 1179.5,-84 1179.5,-96 1179.5,-96 1179.5,-102 1173.5,-108 1167.5,-108"/>
<text text-anchor="middle" x="1141" y="-87.5" font-family="sans" font-size="10.00">output_pdbs</text>
</g>
<!-- 16&#45;&gt;0 -->
<g id="edge11" class="edge">
<title>16&#45;&gt;0</title>
<path fill="none" stroke="grey" stroke-width="2" d="M1102.44,-74.57C1099.27,-73.62 1096.09,-72.75 1093,-72 974.91,-43.51 833.06,-29.2 755.22,-23"/>
<polygon fill="grey" stroke="grey" stroke-width="2" points="755.38,-19.5 745.14,-22.21 754.83,-26.48 755.38,-19.5"/>
</g>
<!-- 17&#45;&gt;0 -->
<g id="edge15" class="edge">
<title>17&#45;&gt;0</title>
<path fill="none" stroke="grey" stroke-width="2" d="M770.02,-71.7C757.69,-62.8 742.48,-51.82 729.15,-42.2"/>
<polygon fill="grey" stroke="grey" stroke-width="2" points="730.86,-39.12 720.7,-36.1 726.76,-44.79 730.86,-39.12"/>
</g>
<!-- 18&#45;&gt;0 -->
<g id="edge6" class="edge">
<title>18&#45;&gt;0</title>
<path fill="none" stroke="grey" stroke-width="2" d="M1270.36,-143.8C1258.82,-122.87 1236.27,-88.29 1206,-72 1129.4,-30.77 872.12,-21.6 755.43,-19.57"/>
<polygon fill="grey" stroke="grey" stroke-width="2" points="755.31,-16.07 745.25,-19.41 755.2,-23.07 755.31,-16.07"/>
</g>
</g>
</svg>
