<?xml version="1.0" encoding="UTF-8" standalone="no"?>
<!DOCTYPE svg PUBLIC "-//W3C//DTD SVG 1.1//EN"
 "http://www.w3.org/Graphics/SVG/1.1/DTD/svg11.dtd">
<!-- Generated by graphviz version 2.42.3 (20191010.1750)
 -->
<!-- Title: snakemake_dag Pages: 1 -->
<svg width="825pt" height="692pt"
 viewBox="0.00 0.00 825.00 692.00" xmlns="http://www.w3.org/2000/svg" xmlns:xlink="http://www.w3.org/1999/xlink">
<g id="graph0" class="graph" transform="scale(1 1) rotate(0) translate(4 688)">
<title>snakemake_dag</title>
<polygon fill="white" stroke="transparent" points="-4,4 -4,-688 821,-688 821,4 -4,4"/>
<!-- 0 -->
<g id="node1" class="node">
<title>0</title>
<path fill="none" stroke="#d85656" stroke-width="2" d="M447,-36C447,-36 375,-36 375,-36 369,-36 363,-30 363,-24 363,-24 363,-12 363,-12 363,-6 369,0 375,0 375,0 447,0 447,0 453,0 459,-6 459,-12 459,-12 459,-24 459,-24 459,-30 453,-36 447,-36"/>
<text text-anchor="middle" x="411" y="-15.5" font-family="sans" font-size="10.00">make_summary</text>
</g>
<!-- 1 -->
<g id="node2" class="node">
<title>1</title>
<path fill="none" stroke="#d89c56" stroke-width="2" d="M84,-108C84,-108 12,-108 12,-108 6,-108 0,-102 0,-96 0,-96 0,-84 0,-84 0,-78 6,-72 12,-72 12,-72 84,-72 84,-72 90,-72 96,-78 96,-84 96,-84 96,-96 96,-96 96,-102 90,-108 84,-108"/>
<text text-anchor="middle" x="48" y="-87.5" font-family="sans" font-size="10.00">make_rulegraph</text>
</g>
<!-- 1&#45;&gt;0 -->
<g id="edge2" class="edge">
<title>1&#45;&gt;0</title>
<path fill="none" stroke="grey" stroke-width="2" d="M96.29,-75.29C100.91,-74.12 105.54,-73 110,-72 193.69,-53.2 291.7,-37.01 352.58,-27.63"/>
<polygon fill="grey" stroke="grey" stroke-width="2" points="353.41,-31.05 362.76,-26.07 352.35,-24.13 353.41,-31.05"/>
</g>
<!-- 2 -->
<g id="node3" class="node">
<title>2</title>
<path fill="none" stroke="#56d8d0" stroke-width="2" d="M507,-180C507,-180 421,-180 421,-180 415,-180 409,-174 409,-168 409,-168 409,-156 409,-156 409,-150 415,-144 421,-144 421,-144 507,-144 507,-144 513,-144 519,-150 519,-156 519,-156 519,-168 519,-168 519,-174 513,-180 507,-180"/>
<text text-anchor="middle" x="464" y="-159.5" font-family="sans" font-size="10.00">get_mut_bind_expr</text>
</g>
<!-- 2&#45;&gt;0 -->
<g id="edge9" class="edge">
<title>2&#45;&gt;0</title>
<path fill="none" stroke="grey" stroke-width="2" d="M457.61,-143.87C448.49,-119.46 431.69,-74.43 420.94,-45.64"/>
<polygon fill="grey" stroke="grey" stroke-width="2" points="424.19,-44.33 417.42,-36.19 417.63,-46.78 424.19,-44.33"/>
</g>
<!-- 12 -->
<g id="node13" class="node">
<title>12</title>
<path fill="none" stroke="#569ad8" stroke-width="2" d="M566.5,-108C566.5,-108 497.5,-108 497.5,-108 491.5,-108 485.5,-102 485.5,-96 485.5,-96 485.5,-84 485.5,-84 485.5,-78 491.5,-72 497.5,-72 497.5,-72 566.5,-72 566.5,-72 572.5,-72 578.5,-78 578.5,-84 578.5,-84 578.5,-96 578.5,-96 578.5,-102 572.5,-108 566.5,-108"/>
<text text-anchor="middle" x="532" y="-87.5" font-family="sans" font-size="10.00">escape_profiles</text>
</g>
<!-- 2&#45;&gt;12 -->
<g id="edge23" class="edge">
<title>2&#45;&gt;12</title>
<path fill="none" stroke="grey" stroke-width="2" d="M480.81,-143.7C489.13,-135.14 499.31,-124.66 508.39,-115.3"/>
<polygon fill="grey" stroke="grey" stroke-width="2" points="510.93,-117.72 515.38,-108.1 505.91,-112.84 510.93,-117.72"/>
</g>
<!-- 3 -->
<g id="node4" class="node">
<title>3</title>
<path fill="none" stroke="#afd856" stroke-width="2" d="M200.5,-612C200.5,-612 149.5,-612 149.5,-612 143.5,-612 137.5,-606 137.5,-600 137.5,-600 137.5,-588 137.5,-588 137.5,-582 143.5,-576 149.5,-576 149.5,-576 200.5,-576 200.5,-576 206.5,-576 212.5,-582 212.5,-588 212.5,-588 212.5,-600 212.5,-600 212.5,-606 206.5,-612 200.5,-612"/>
<text text-anchor="middle" x="175" y="-591.5" font-family="sans" font-size="10.00">process_ccs</text>
</g>
<!-- 3&#45;&gt;0 -->
<g id="edge4" class="edge">
<title>3&#45;&gt;0</title>
<path fill="none" stroke="grey" stroke-width="2" d="M164.43,-575.79C149.49,-549.77 124,-498.41 124,-451 124,-451 124,-451 124,-161 124,-59.87 268.92,-30.76 352.8,-22.39"/>
<polygon fill="grey" stroke="grey" stroke-width="2" points="353.33,-25.85 362.96,-21.44 352.68,-18.88 353.33,-25.85"/>
</g>
<!-- 5 -->
<g id="node6" class="node">
<title>5</title>
<path fill="none" stroke="#56d8a9" stroke-width="2" d="M421,-540C421,-540 359,-540 359,-540 353,-540 347,-534 347,-528 347,-528 347,-516 347,-516 347,-510 353,-504 359,-504 359,-504 421,-504 421,-504 427,-504 433,-510 433,-516 433,-516 433,-528 433,-528 433,-534 427,-540 421,-540"/>
<text text-anchor="middle" x="390" y="-519.5" font-family="sans" font-size="10.00">build_variants</text>
</g>
<!-- 3&#45;&gt;5 -->
<g id="edge14" class="edge">
<title>3&#45;&gt;5</title>
<path fill="none" stroke="grey" stroke-width="2" d="M212.94,-580.65C247.36,-569.44 298.44,-552.81 336.91,-540.29"/>
<polygon fill="grey" stroke="grey" stroke-width="2" points="338.47,-543.46 346.9,-537.03 336.3,-536.8 338.47,-543.46"/>
</g>
<!-- 4 -->
<g id="node5" class="node">
<title>4</title>
<path fill="none" stroke="#d8bc56" stroke-width="2" d="M190,-684C190,-684 160,-684 160,-684 154,-684 148,-678 148,-672 148,-672 148,-660 148,-660 148,-654 154,-648 160,-648 160,-648 190,-648 190,-648 196,-648 202,-654 202,-660 202,-660 202,-672 202,-672 202,-678 196,-684 190,-684"/>
<text text-anchor="middle" x="175" y="-663.5" font-family="sans" font-size="10.00">get_ccs</text>
</g>
<!-- 4&#45;&gt;3 -->
<g id="edge13" class="edge">
<title>4&#45;&gt;3</title>
<path fill="none" stroke="grey" stroke-width="2" d="M175,-647.7C175,-639.98 175,-630.71 175,-622.11"/>
<polygon fill="grey" stroke="grey" stroke-width="2" points="178.5,-622.1 175,-612.1 171.5,-622.1 178.5,-622.1"/>
</g>
<!-- 5&#45;&gt;0 -->
<g id="edge6" class="edge">
<title>5&#45;&gt;0</title>
<path fill="none" stroke="grey" stroke-width="2" d="M433.29,-515.97C541.85,-502.17 817,-459.27 817,-379 817,-379 817,-379 817,-161 817,-117.63 811.63,-98.11 777,-72 729.68,-36.31 560.23,-24.53 469.44,-20.74"/>
<polygon fill="grey" stroke="grey" stroke-width="2" points="469.43,-17.24 459.3,-20.34 469.16,-24.23 469.43,-17.24"/>
</g>
<!-- 6 -->
<g id="node7" class="node">
<title>6</title>
<path fill="none" stroke="#ced856" stroke-width="2" d="M450.5,-396C450.5,-396 331.5,-396 331.5,-396 325.5,-396 319.5,-390 319.5,-384 319.5,-384 319.5,-372 319.5,-372 319.5,-366 325.5,-360 331.5,-360 331.5,-360 450.5,-360 450.5,-360 456.5,-360 462.5,-366 462.5,-372 462.5,-372 462.5,-384 462.5,-384 462.5,-390 456.5,-396 450.5,-396"/>
<text text-anchor="middle" x="391" y="-375.5" font-family="sans" font-size="10.00">aggregate_variant_counts</text>
</g>
<!-- 5&#45;&gt;6 -->
<g id="edge15" class="edge">
<title>5&#45;&gt;6</title>
<path fill="none" stroke="grey" stroke-width="2" d="M383.35,-503.63C379.8,-493.42 375.8,-480.17 374,-468 371.66,-452.17 371.53,-447.81 374,-432 375.36,-423.31 377.9,-414.1 380.61,-405.84"/>
<polygon fill="grey" stroke="grey" stroke-width="2" points="383.94,-406.93 383.93,-396.33 377.33,-404.62 383.94,-406.93"/>
</g>
<!-- 7 -->
<g id="node8" class="node">
<title>7</title>
<path fill="none" stroke="#567bd8" stroke-width="2" d="M459.5,-468C459.5,-468 394.5,-468 394.5,-468 388.5,-468 382.5,-462 382.5,-456 382.5,-456 382.5,-444 382.5,-444 382.5,-438 388.5,-432 394.5,-432 394.5,-432 459.5,-432 459.5,-432 465.5,-432 471.5,-438 471.5,-444 471.5,-444 471.5,-456 471.5,-456 471.5,-462 465.5,-468 459.5,-468"/>
<text text-anchor="middle" x="427" y="-447.5" font-family="sans" font-size="10.00">count_variants</text>
</g>
<!-- 5&#45;&gt;7 -->
<g id="edge17" class="edge">
<title>5&#45;&gt;7</title>
<path fill="none" stroke="grey" stroke-width="2" d="M399.15,-503.7C403.4,-495.64 408.56,-485.89 413.27,-476.98"/>
<polygon fill="grey" stroke="grey" stroke-width="2" points="416.38,-478.58 417.96,-468.1 410.19,-475.31 416.38,-478.58"/>
</g>
<!-- 6&#45;&gt;0 -->
<g id="edge3" class="edge">
<title>6&#45;&gt;0</title>
<path fill="none" stroke="grey" stroke-width="2" d="M462.62,-365.84C574.73,-346.32 779,-301.62 779,-235 779,-235 779,-235 779,-161 779,-119.53 782.44,-99.04 751,-72 709.76,-36.53 555.16,-24.71 469.33,-20.83"/>
<polygon fill="grey" stroke="grey" stroke-width="2" points="469.36,-17.33 459.22,-20.4 469.06,-24.32 469.36,-17.33"/>
</g>
<!-- 8 -->
<g id="node9" class="node">
<title>8</title>
<path fill="none" stroke="#56d88a" stroke-width="2" d="M259.5,-252C259.5,-252 164.5,-252 164.5,-252 158.5,-252 152.5,-246 152.5,-240 152.5,-240 152.5,-228 152.5,-228 152.5,-222 158.5,-216 164.5,-216 164.5,-216 259.5,-216 259.5,-216 265.5,-216 271.5,-222 271.5,-228 271.5,-228 271.5,-240 271.5,-240 271.5,-246 265.5,-252 259.5,-252"/>
<text text-anchor="middle" x="212" y="-231.5" font-family="sans" font-size="10.00">counts_to_cells_ratio</text>
</g>
<!-- 6&#45;&gt;8 -->
<g id="edge18" class="edge">
<title>6&#45;&gt;8</title>
<path fill="none" stroke="grey" stroke-width="2" d="M369.41,-359.87C337.56,-334.6 277.87,-287.25 241.85,-258.68"/>
<polygon fill="grey" stroke="grey" stroke-width="2" points="243.68,-255.66 233.67,-252.19 239.33,-261.15 243.68,-255.66"/>
</g>
<!-- 9 -->
<g id="node10" class="node">
<title>9</title>
<path fill="none" stroke="#d87556" stroke-width="2" d="M429.5,-324C429.5,-324 352.5,-324 352.5,-324 346.5,-324 340.5,-318 340.5,-312 340.5,-312 340.5,-300 340.5,-300 340.5,-294 346.5,-288 352.5,-288 352.5,-288 429.5,-288 429.5,-288 435.5,-288 441.5,-294 441.5,-300 441.5,-300 441.5,-312 441.5,-312 441.5,-318 435.5,-324 429.5,-324"/>
<text text-anchor="middle" x="391" y="-303.5" font-family="sans" font-size="10.00">counts_to_scores</text>
</g>
<!-- 6&#45;&gt;9 -->
<g id="edge19" class="edge">
<title>6&#45;&gt;9</title>
<path fill="none" stroke="grey" stroke-width="2" d="M391,-359.7C391,-351.98 391,-342.71 391,-334.11"/>
<polygon fill="grey" stroke="grey" stroke-width="2" points="394.5,-334.1 391,-324.1 387.5,-334.1 394.5,-334.1"/>
</g>
<!-- 7&#45;&gt;6 -->
<g id="edge16" class="edge">
<title>7&#45;&gt;6</title>
<path fill="none" stroke="grey" stroke-width="2" d="M418.1,-431.7C414,-423.73 409.05,-414.1 404.51,-405.26"/>
<polygon fill="grey" stroke="grey" stroke-width="2" points="407.48,-403.4 399.8,-396.1 401.26,-406.6 407.48,-403.4"/>
</g>
<!-- 8&#45;&gt;0 -->
<g id="edge8" class="edge">
<title>8&#45;&gt;0</title>
<path fill="none" stroke="grey" stroke-width="2" d="M205.71,-215.82C195.2,-183.83 178.27,-114.53 211,-72 228.29,-49.53 300.28,-34.63 352.95,-26.49"/>
<polygon fill="grey" stroke="grey" stroke-width="2" points="353.5,-29.95 362.87,-25.01 352.46,-23.03 353.5,-29.95"/>
</g>
<!-- 9&#45;&gt;0 -->
<g id="edge1" class="edge">
<title>9&#45;&gt;0</title>
<path fill="none" stroke="grey" stroke-width="2" d="M369.91,-287.85C330.07,-255.36 247.41,-187.37 244,-180 237.29,-165.48 236.95,-158.37 244,-144 267.89,-95.28 321.02,-60.77 360.98,-40.53"/>
<polygon fill="grey" stroke="grey" stroke-width="2" points="362.64,-43.62 370.06,-36.06 359.54,-37.34 362.64,-43.62"/>
</g>
<!-- 10 -->
<g id="node11" class="node">
<title>10</title>
<path fill="none" stroke="#56d86b" stroke-width="2" d="M533.5,-252C533.5,-252 430.5,-252 430.5,-252 424.5,-252 418.5,-246 418.5,-240 418.5,-240 418.5,-228 418.5,-228 418.5,-222 424.5,-216 430.5,-216 430.5,-216 533.5,-216 533.5,-216 539.5,-216 545.5,-222 545.5,-228 545.5,-228 545.5,-240 545.5,-240 545.5,-246 539.5,-252 533.5,-252"/>
<text text-anchor="middle" x="482" y="-231.5" font-family="sans" font-size="10.00">scores_to_frac_escape</text>
</g>
<!-- 9&#45;&gt;10 -->
<g id="edge20" class="edge">
<title>9&#45;&gt;10</title>
<path fill="none" stroke="grey" stroke-width="2" d="M413.49,-287.7C424.96,-278.88 439.06,-268.03 451.48,-258.47"/>
<polygon fill="grey" stroke="grey" stroke-width="2" points="453.97,-260.98 459.76,-252.1 449.7,-255.43 453.97,-260.98"/>
</g>
<!-- 10&#45;&gt;0 -->
<g id="edge7" class="edge">
<title>10&#45;&gt;0</title>
<path fill="none" stroke="grey" stroke-width="2" d="M439.38,-215.99C424.13,-207.58 408.59,-195.78 400,-180 376.94,-137.63 389.87,-79.42 400.82,-45.85"/>
<polygon fill="grey" stroke="grey" stroke-width="2" points="404.17,-46.86 404.11,-36.26 397.55,-44.58 404.17,-46.86"/>
</g>
<!-- 11 -->
<g id="node12" class="node">
<title>11</title>
<path fill="none" stroke="#88d856" stroke-width="2" d="M701,-180C701,-180 587,-180 587,-180 581,-180 575,-174 575,-168 575,-168 575,-156 575,-156 575,-150 581,-144 587,-144 587,-144 701,-144 701,-144 707,-144 713,-150 713,-156 713,-156 713,-168 713,-168 713,-174 707,-180 701,-180"/>
<text text-anchor="middle" x="644" y="-159.5" font-family="sans" font-size="10.00">call_strong_escape_sites</text>
</g>
<!-- 10&#45;&gt;11 -->
<g id="edge21" class="edge">
<title>10&#45;&gt;11</title>
<path fill="none" stroke="grey" stroke-width="2" d="M521.63,-215.88C543.78,-206.31 571.56,-194.3 595.06,-184.15"/>
<polygon fill="grey" stroke="grey" stroke-width="2" points="596.71,-187.25 604.5,-180.07 593.93,-180.82 596.71,-187.25"/>
</g>
<!-- 10&#45;&gt;12 -->
<g id="edge22" class="edge">
<title>10&#45;&gt;12</title>
<path fill="none" stroke="grey" stroke-width="2" d="M502.09,-215.98C511.78,-206.49 522.49,-193.8 528,-180 535.83,-160.4 536.45,-136.41 535.32,-118.28"/>
<polygon fill="grey" stroke="grey" stroke-width="2" points="538.79,-117.77 534.47,-108.09 531.81,-118.35 538.79,-117.77"/>
</g>
<!-- 13 -->
<g id="node14" class="node">
<title>13</title>
<path fill="none" stroke="#56c1d8" stroke-width="2" d="M729.5,-108C729.5,-108 676.5,-108 676.5,-108 670.5,-108 664.5,-102 664.5,-96 664.5,-96 664.5,-84 664.5,-84 664.5,-78 670.5,-72 676.5,-72 676.5,-72 729.5,-72 729.5,-72 735.5,-72 741.5,-78 741.5,-84 741.5,-84 741.5,-96 741.5,-96 741.5,-102 735.5,-108 729.5,-108"/>
<text text-anchor="middle" x="703" y="-87.5" font-family="sans" font-size="10.00">output_pdbs</text>
</g>
<!-- 10&#45;&gt;13 -->
<g id="edge25" class="edge">
<title>10&#45;&gt;13</title>
<path fill="none" stroke="grey" stroke-width="2" d="M545.68,-227.8C609.16,-221.14 700.25,-207.07 722,-180 736.2,-162.32 728.51,-136.49 719.01,-117.21"/>
<polygon fill="grey" stroke="grey" stroke-width="2" points="722.07,-115.52 714.28,-108.33 715.89,-118.81 722.07,-115.52"/>
</g>
<!-- 14 -->
<g id="node15" class="node">
<title>14</title>
<path fill="none" stroke="#68d856" stroke-width="2" d="M341,-180C341,-180 265,-180 265,-180 259,-180 253,-174 253,-168 253,-168 253,-156 253,-156 253,-150 259,-144 265,-144 265,-144 341,-144 341,-144 347,-144 353,-150 353,-156 353,-156 353,-168 353,-168 353,-174 347,-180 341,-180"/>
<text text-anchor="middle" x="303" y="-159.5" font-family="sans" font-size="10.00">make_supp_data</text>
</g>
<!-- 10&#45;&gt;14 -->
<g id="edge26" class="edge">
<title>10&#45;&gt;14</title>
<path fill="none" stroke="grey" stroke-width="2" d="M438.21,-215.88C413.42,-206.18 382.22,-193.98 356.04,-183.74"/>
<polygon fill="grey" stroke="grey" stroke-width="2" points="357.23,-180.45 346.65,-180.07 354.68,-186.97 357.23,-180.45"/>
</g>
<!-- 11&#45;&gt;0 -->
<g id="edge5" class="edge">
<title>11&#45;&gt;0</title>
<path fill="none" stroke="grey" stroke-width="2" d="M637.65,-143.98C629.29,-123.87 612.71,-90.78 588,-72 553.57,-45.83 506.31,-32.52 469.29,-25.79"/>
<polygon fill="grey" stroke="grey" stroke-width="2" points="469.58,-22.29 459.14,-24.06 468.41,-29.19 469.58,-22.29"/>
</g>
<!-- 11&#45;&gt;12 -->
<g id="edge24" class="edge">
<title>11&#45;&gt;12</title>
<path fill="none" stroke="grey" stroke-width="2" d="M616.6,-143.88C602.09,-134.81 584.08,-123.55 568.41,-113.76"/>
<polygon fill="grey" stroke="grey" stroke-width="2" points="569.84,-110.52 559.5,-108.19 566.13,-116.46 569.84,-110.52"/>
</g>
<!-- 12&#45;&gt;0 -->
<g id="edge12" class="edge">
<title>12&#45;&gt;0</title>
<path fill="none" stroke="grey" stroke-width="2" d="M502.4,-71.88C486.43,-62.64 466.54,-51.13 449.39,-41.21"/>
<polygon fill="grey" stroke="grey" stroke-width="2" points="451.12,-38.17 440.71,-36.19 447.62,-44.23 451.12,-38.17"/>
</g>
<!-- 13&#45;&gt;0 -->
<g id="edge11" class="edge">
<title>13&#45;&gt;0</title>
<path fill="none" stroke="grey" stroke-width="2" d="M664.41,-78.35C656.36,-76.19 647.91,-73.98 640,-72 582.1,-57.49 515.61,-42.26 469.24,-31.87"/>
<polygon fill="grey" stroke="grey" stroke-width="2" points="469.89,-28.43 459.37,-29.66 468.37,-35.26 469.89,-28.43"/>
</g>
<!-- 14&#45;&gt;0 -->
<g id="edge10" class="edge">
<title>14&#45;&gt;0</title>
<path fill="none" stroke="grey" stroke-width="2" d="M314.92,-143.68C327.52,-125.55 348.14,-96.39 367,-72 374.1,-62.82 382.13,-52.99 389.38,-44.32"/>
<polygon fill="grey" stroke="grey" stroke-width="2" points="392.26,-46.32 396.02,-36.42 386.91,-41.82 392.26,-46.32"/>
</g>
</g>
</svg>
