<?xml version="1.0" encoding="UTF-8" standalone="no"?>
<!DOCTYPE svg PUBLIC "-//W3C//DTD SVG 1.1//EN"
 "http://www.w3.org/Graphics/SVG/1.1/DTD/svg11.dtd">
<!-- Generated by graphviz version 2.42.3 (20191010.1750)
 -->
<!-- Title: snakemake_dag Pages: 1 -->
<svg width="1048pt" height="476pt"
 viewBox="0.00 0.00 1048.00 476.00" xmlns="http://www.w3.org/2000/svg" xmlns:xlink="http://www.w3.org/1999/xlink">
<g id="graph0" class="graph" transform="scale(1 1) rotate(0) translate(4 472)">
<title>snakemake_dag</title>
<polygon fill="white" stroke="transparent" points="-4,4 -4,-472 1044,-472 1044,4 -4,4"/>
<!-- 0 -->
<g id="node1" class="node">
<title>0</title>
<path fill="none" stroke="#56d8a9" stroke-width="2" d="M539,-36C539,-36 467,-36 467,-36 461,-36 455,-30 455,-24 455,-24 455,-12 455,-12 455,-6 461,0 467,0 467,0 539,0 539,0 545,0 551,-6 551,-12 551,-12 551,-24 551,-24 551,-30 545,-36 539,-36"/>
<text text-anchor="middle" x="503" y="-15.5" font-family="sans" font-size="10.00">make_summary</text>
</g>
<!-- 1 -->
<g id="node2" class="node">
<title>1</title>
<path fill="none" stroke="#56c1d8" stroke-width="2" d="M84,-108C84,-108 12,-108 12,-108 6,-108 0,-102 0,-96 0,-96 0,-84 0,-84 0,-78 6,-72 12,-72 12,-72 84,-72 84,-72 90,-72 96,-78 96,-84 96,-84 96,-96 96,-96 96,-102 90,-108 84,-108"/>
<text text-anchor="middle" x="48" y="-87.5" font-family="sans" font-size="10.00">make_rulegraph</text>
</g>
<!-- 1&#45;&gt;0 -->
<g id="edge11" class="edge">
<title>1&#45;&gt;0</title>
<path fill="none" stroke="grey" stroke-width="2" d="M96.25,-75.1C100.88,-73.97 105.52,-72.91 110,-72 227.83,-48.01 367.81,-32.09 444.87,-24.39"/>
<polygon fill="grey" stroke="grey" stroke-width="2" points="445.25,-27.87 454.86,-23.4 444.57,-20.9 445.25,-27.87"/>
</g>
<!-- 2 -->
<g id="node3" class="node">
<title>2</title>
<path fill="none" stroke="#567bd8" stroke-width="2" d="M169,-180C169,-180 83,-180 83,-180 77,-180 71,-174 71,-168 71,-168 71,-156 71,-156 71,-150 77,-144 83,-144 83,-144 169,-144 169,-144 175,-144 181,-150 181,-156 181,-156 181,-168 181,-168 181,-174 175,-180 169,-180"/>
<text text-anchor="middle" x="126" y="-159.5" font-family="sans" font-size="10.00">get_mut_bind_expr</text>
</g>
<!-- 2&#45;&gt;0 -->
<g id="edge12" class="edge">
<title>2&#45;&gt;0</title>
<path fill="none" stroke="grey" stroke-width="2" d="M123.93,-143.88C122.53,-123.68 123.69,-90.5 143,-72 185.16,-31.6 354.18,-21.91 444.84,-19.64"/>
<polygon fill="grey" stroke="grey" stroke-width="2" points="445.04,-23.14 454.96,-19.41 444.88,-16.14 445.04,-23.14"/>
</g>
<!-- 12 -->
<g id="node13" class="node">
<title>12</title>
<path fill="none" stroke="#ced856" stroke-width="2" d="M232,-108C232,-108 164,-108 164,-108 158,-108 152,-102 152,-96 152,-96 152,-84 152,-84 152,-78 158,-72 164,-72 164,-72 232,-72 232,-72 238,-72 244,-78 244,-84 244,-84 244,-96 244,-96 244,-102 238,-108 232,-108"/>
<text text-anchor="middle" x="198" y="-87.5" font-family="sans" font-size="10.00">escape_profiles</text>
</g>
<!-- 2&#45;&gt;12 -->
<g id="edge20" class="edge">
<title>2&#45;&gt;12</title>
<path fill="none" stroke="grey" stroke-width="2" d="M143.8,-143.7C152.6,-135.14 163.38,-124.66 173,-115.3"/>
<polygon fill="grey" stroke="grey" stroke-width="2" points="175.68,-117.58 180.41,-108.1 170.8,-112.57 175.68,-117.58"/>
</g>
<!-- 3 -->
<g id="node4" class="node">
<title>3</title>
<path fill="none" stroke="#d87556" stroke-width="2" d="M443.5,-108C443.5,-108 312.5,-108 312.5,-108 306.5,-108 300.5,-102 300.5,-96 300.5,-96 300.5,-84 300.5,-84 300.5,-78 306.5,-72 312.5,-72 312.5,-72 443.5,-72 443.5,-72 449.5,-72 455.5,-78 455.5,-84 455.5,-84 455.5,-96 455.5,-96 455.5,-102 449.5,-108 443.5,-108"/>
<text text-anchor="middle" x="378" y="-87.5" font-family="sans" font-size="10.00">get_early2020_escape_fracs</text>
</g>
<!-- 3&#45;&gt;0 -->
<g id="edge2" class="edge">
<title>3&#45;&gt;0</title>
<path fill="none" stroke="grey" stroke-width="2" d="M408.58,-71.88C425.07,-62.64 445.62,-51.13 463.34,-41.21"/>
<polygon fill="grey" stroke="grey" stroke-width="2" points="465.29,-44.13 472.3,-36.19 461.87,-38.02 465.29,-44.13"/>
</g>
<!-- 4 -->
<g id="node5" class="node">
<title>4</title>
<path fill="none" stroke="#56d86b" stroke-width="2" d="M544.5,-396C544.5,-396 493.5,-396 493.5,-396 487.5,-396 481.5,-390 481.5,-384 481.5,-384 481.5,-372 481.5,-372 481.5,-366 487.5,-360 493.5,-360 493.5,-360 544.5,-360 544.5,-360 550.5,-360 556.5,-366 556.5,-372 556.5,-372 556.5,-384 556.5,-384 556.5,-390 550.5,-396 544.5,-396"/>
<text text-anchor="middle" x="519" y="-375.5" font-family="sans" font-size="10.00">process_ccs</text>
</g>
<!-- 4&#45;&gt;0 -->
<g id="edge8" class="edge">
<title>4&#45;&gt;0</title>
<path fill="none" stroke="grey" stroke-width="2" d="M511.92,-359.85C501.69,-333.49 484,-281.21 484,-235 484,-235 484,-235 484,-161 484,-120.86 491.55,-74.9 497.13,-46.4"/>
<polygon fill="grey" stroke="grey" stroke-width="2" points="500.61,-46.88 499.16,-36.39 493.74,-45.5 500.61,-46.88"/>
</g>
<!-- 6 -->
<g id="node7" class="node">
<title>6</title>
<path fill="none" stroke="#88d856" stroke-width="2" d="M588,-324C588,-324 526,-324 526,-324 520,-324 514,-318 514,-312 514,-312 514,-300 514,-300 514,-294 520,-288 526,-288 526,-288 588,-288 588,-288 594,-288 600,-294 600,-300 600,-300 600,-312 600,-312 600,-318 594,-324 588,-324"/>
<text text-anchor="middle" x="557" y="-303.5" font-family="sans" font-size="10.00">build_variants</text>
</g>
<!-- 4&#45;&gt;6 -->
<g id="edge14" class="edge">
<title>4&#45;&gt;6</title>
<path fill="none" stroke="grey" stroke-width="2" d="M528.39,-359.7C532.76,-351.64 538.06,-341.89 542.9,-332.98"/>
<polygon fill="grey" stroke="grey" stroke-width="2" points="546.02,-334.56 547.71,-324.1 539.87,-331.22 546.02,-334.56"/>
</g>
<!-- 5 -->
<g id="node6" class="node">
<title>5</title>
<path fill="none" stroke="#56d8d0" stroke-width="2" d="M534,-468C534,-468 504,-468 504,-468 498,-468 492,-462 492,-456 492,-456 492,-444 492,-444 492,-438 498,-432 504,-432 504,-432 534,-432 534,-432 540,-432 546,-438 546,-444 546,-444 546,-456 546,-456 546,-462 540,-468 534,-468"/>
<text text-anchor="middle" x="519" y="-447.5" font-family="sans" font-size="10.00">get_ccs</text>
</g>
<!-- 5&#45;&gt;4 -->
<g id="edge13" class="edge">
<title>5&#45;&gt;4</title>
<path fill="none" stroke="grey" stroke-width="2" d="M519,-431.7C519,-423.98 519,-414.71 519,-406.11"/>
<polygon fill="grey" stroke="grey" stroke-width="2" points="522.5,-406.1 519,-396.1 515.5,-406.1 522.5,-406.1"/>
</g>
<!-- 6&#45;&gt;0 -->
<g id="edge5" class="edge">
<title>6&#45;&gt;0</title>
<path fill="none" stroke="grey" stroke-width="2" d="M553.78,-287.97C544.76,-240.19 519.17,-104.62 508.15,-46.27"/>
<polygon fill="grey" stroke="grey" stroke-width="2" points="511.56,-45.48 506.27,-36.31 504.68,-46.78 511.56,-45.48"/>
</g>
<!-- 7 -->
<g id="node8" class="node">
<title>7</title>
<path fill="none" stroke="#d89c56" stroke-width="2" d="M692.5,-180C692.5,-180 573.5,-180 573.5,-180 567.5,-180 561.5,-174 561.5,-168 561.5,-168 561.5,-156 561.5,-156 561.5,-150 567.5,-144 573.5,-144 573.5,-144 692.5,-144 692.5,-144 698.5,-144 704.5,-150 704.5,-156 704.5,-156 704.5,-168 704.5,-168 704.5,-174 698.5,-180 692.5,-180"/>
<text text-anchor="middle" x="633" y="-159.5" font-family="sans" font-size="10.00">aggregate_variant_counts</text>
</g>
<!-- 6&#45;&gt;7 -->
<g id="edge15" class="edge">
<title>6&#45;&gt;7</title>
<path fill="none" stroke="grey" stroke-width="2" d="M558.43,-287.9C560.61,-269.19 565.98,-238.81 579,-216 585.09,-205.32 593.95,-195.37 602.73,-187.04"/>
<polygon fill="grey" stroke="grey" stroke-width="2" points="605.28,-189.45 610.36,-180.15 600.59,-184.25 605.28,-189.45"/>
</g>
<!-- 8 -->
<g id="node9" class="node">
<title>8</title>
<path fill="none" stroke="#d8bc56" stroke-width="2" d="M665.5,-252C665.5,-252 600.5,-252 600.5,-252 594.5,-252 588.5,-246 588.5,-240 588.5,-240 588.5,-228 588.5,-228 588.5,-222 594.5,-216 600.5,-216 600.5,-216 665.5,-216 665.5,-216 671.5,-216 677.5,-222 677.5,-228 677.5,-228 677.5,-240 677.5,-240 677.5,-246 671.5,-252 665.5,-252"/>
<text text-anchor="middle" x="633" y="-231.5" font-family="sans" font-size="10.00">count_variants</text>
</g>
<!-- 6&#45;&gt;8 -->
<g id="edge17" class="edge">
<title>6&#45;&gt;8</title>
<path fill="none" stroke="grey" stroke-width="2" d="M575.79,-287.7C585.17,-279.05 596.68,-268.45 606.91,-259.03"/>
<polygon fill="grey" stroke="grey" stroke-width="2" points="609.45,-261.45 614.43,-252.1 604.7,-256.3 609.45,-261.45"/>
</g>
<!-- 7&#45;&gt;0 -->
<g id="edge3" class="edge">
<title>7&#45;&gt;0</title>
<path fill="none" stroke="grey" stroke-width="2" d="M614.6,-143.72C603.97,-133.54 590.47,-120.29 579,-108 559.41,-87 538.28,-62.06 523.29,-43.93"/>
<polygon fill="grey" stroke="grey" stroke-width="2" points="525.91,-41.61 516.86,-36.12 520.51,-46.06 525.91,-41.61"/>
</g>
<!-- 9 -->
<g id="node10" class="node">
<title>9</title>
<path fill="none" stroke="#afd856" stroke-width="2" d="M695.5,-108C695.5,-108 600.5,-108 600.5,-108 594.5,-108 588.5,-102 588.5,-96 588.5,-96 588.5,-84 588.5,-84 588.5,-78 594.5,-72 600.5,-72 600.5,-72 695.5,-72 695.5,-72 701.5,-72 707.5,-78 707.5,-84 707.5,-84 707.5,-96 707.5,-96 707.5,-102 701.5,-108 695.5,-108"/>
<text text-anchor="middle" x="648" y="-87.5" font-family="sans" font-size="10.00">counts_to_cells_ratio</text>
</g>
<!-- 7&#45;&gt;9 -->
<g id="edge18" class="edge">
<title>7&#45;&gt;9</title>
<path fill="none" stroke="grey" stroke-width="2" d="M636.71,-143.7C638.36,-135.98 640.35,-126.71 642.19,-118.11"/>
<polygon fill="grey" stroke="grey" stroke-width="2" points="645.66,-118.62 644.33,-108.1 638.82,-117.15 645.66,-118.62"/>
</g>
<!-- 10 -->
<g id="node11" class="node">
<title>10</title>
<path fill="none" stroke="#d85656" stroke-width="2" d="M814.5,-108C814.5,-108 737.5,-108 737.5,-108 731.5,-108 725.5,-102 725.5,-96 725.5,-96 725.5,-84 725.5,-84 725.5,-78 731.5,-72 737.5,-72 737.5,-72 814.5,-72 814.5,-72 820.5,-72 826.5,-78 826.5,-84 826.5,-84 826.5,-96 826.5,-96 826.5,-102 820.5,-108 814.5,-108"/>
<text text-anchor="middle" x="776" y="-87.5" font-family="sans" font-size="10.00">counts_to_scores</text>
</g>
<!-- 7&#45;&gt;10 -->
<g id="edge19" class="edge">
<title>7&#45;&gt;10</title>
<path fill="none" stroke="grey" stroke-width="2" d="M667.98,-143.88C687.2,-134.47 711.23,-122.71 731.74,-112.67"/>
<polygon fill="grey" stroke="grey" stroke-width="2" points="733.44,-115.73 740.88,-108.19 730.36,-109.44 733.44,-115.73"/>
</g>
<!-- 8&#45;&gt;7 -->
<g id="edge16" class="edge">
<title>8&#45;&gt;7</title>
<path fill="none" stroke="grey" stroke-width="2" d="M633,-215.7C633,-207.98 633,-198.71 633,-190.11"/>
<polygon fill="grey" stroke="grey" stroke-width="2" points="636.5,-190.1 633,-180.1 629.5,-190.1 636.5,-190.1"/>
</g>
<!-- 9&#45;&gt;0 -->
<g id="edge4" class="edge">
<title>9&#45;&gt;0</title>
<path fill="none" stroke="grey" stroke-width="2" d="M612.53,-71.88C592.88,-62.39 568.28,-50.51 547.37,-40.42"/>
<polygon fill="grey" stroke="grey" stroke-width="2" points="548.88,-37.26 538.36,-36.07 545.84,-43.57 548.88,-37.26"/>
</g>
<!-- 10&#45;&gt;0 -->
<g id="edge1" class="edge">
<title>10&#45;&gt;0</title>
<path fill="none" stroke="grey" stroke-width="2" d="M725.29,-74.51C722.15,-73.65 719.03,-72.81 716,-72 663.84,-58.12 604.19,-43.38 561.31,-32.97"/>
<polygon fill="grey" stroke="grey" stroke-width="2" points="561.88,-29.51 551.33,-30.56 560.23,-36.31 561.88,-29.51"/>
</g>
<!-- 11 -->
<g id="node12" class="node">
<title>11</title>
<path fill="none" stroke="#569ad8" stroke-width="2" d="M326,-180C326,-180 212,-180 212,-180 206,-180 200,-174 200,-168 200,-168 200,-156 200,-156 200,-150 206,-144 212,-144 212,-144 326,-144 326,-144 332,-144 338,-150 338,-156 338,-156 338,-168 338,-168 338,-174 332,-180 326,-180"/>
<text text-anchor="middle" x="269" y="-159.5" font-family="sans" font-size="10.00">call_strong_escape_sites</text>
</g>
<!-- 11&#45;&gt;0 -->
<g id="edge9" class="edge">
<title>11&#45;&gt;0</title>
<path fill="none" stroke="grey" stroke-width="2" d="M268.31,-143.75C268.5,-123.73 272,-91.05 291,-72 312.37,-50.57 389.47,-35.26 444.52,-26.77"/>
<polygon fill="grey" stroke="grey" stroke-width="2" points="445.15,-30.22 454.52,-25.27 444.11,-23.29 445.15,-30.22"/>
</g>
<!-- 11&#45;&gt;12 -->
<g id="edge21" class="edge">
<title>11&#45;&gt;12</title>
<path fill="none" stroke="grey" stroke-width="2" d="M251.45,-143.7C242.77,-135.14 232.14,-124.66 222.65,-115.3"/>
<polygon fill="grey" stroke="grey" stroke-width="2" points="224.93,-112.63 215.35,-108.1 220.01,-117.62 224.93,-112.63"/>
</g>
<!-- 12&#45;&gt;0 -->
<g id="edge6" class="edge">
<title>12&#45;&gt;0</title>
<path fill="none" stroke="grey" stroke-width="2" d="M244.11,-75.62C248.79,-74.36 253.48,-73.13 258,-72 321.6,-56.13 395.17,-40.59 444.97,-30.48"/>
<polygon fill="grey" stroke="grey" stroke-width="2" points="445.8,-33.88 454.91,-28.47 444.41,-27.02 445.8,-33.88"/>
</g>
<!-- 13 -->
<g id="node14" class="node">
<title>13</title>
<path fill="none" stroke="#68d856" stroke-width="2" d="M909.5,-108C909.5,-108 856.5,-108 856.5,-108 850.5,-108 844.5,-102 844.5,-96 844.5,-96 844.5,-84 844.5,-84 844.5,-78 850.5,-72 856.5,-72 856.5,-72 909.5,-72 909.5,-72 915.5,-72 921.5,-78 921.5,-84 921.5,-84 921.5,-96 921.5,-96 921.5,-102 915.5,-108 909.5,-108"/>
<text text-anchor="middle" x="883" y="-87.5" font-family="sans" font-size="10.00">output_pdbs</text>
</g>
<!-- 13&#45;&gt;0 -->
<g id="edge7" class="edge">
<title>13&#45;&gt;0</title>
<path fill="none" stroke="grey" stroke-width="2" d="M844.45,-74.4C841.61,-73.53 838.77,-72.72 836,-72 741.11,-47.52 627.92,-32.39 560.95,-24.85"/>
<polygon fill="grey" stroke="grey" stroke-width="2" points="561.33,-21.38 551.01,-23.75 560.56,-28.33 561.33,-21.38"/>
</g>
<!-- 14 -->
<g id="node15" class="node">
<title>14</title>
<path fill="none" stroke="#56d88a" stroke-width="2" d="M1028,-108C1028,-108 952,-108 952,-108 946,-108 940,-102 940,-96 940,-96 940,-84 940,-84 940,-78 946,-72 952,-72 952,-72 1028,-72 1028,-72 1034,-72 1040,-78 1040,-84 1040,-84 1040,-96 1040,-96 1040,-102 1034,-108 1028,-108"/>
<text text-anchor="middle" x="990" y="-87.5" font-family="sans" font-size="10.00">make_supp_data</text>
</g>
<!-- 14&#45;&gt;0 -->
<g id="edge10" class="edge">
<title>14&#45;&gt;0</title>
<path fill="none" stroke="grey" stroke-width="2" d="M939.92,-73.99C936.91,-73.27 933.92,-72.6 931,-72 800.34,-45.26 644.28,-30.07 561.44,-23.31"/>
<polygon fill="grey" stroke="grey" stroke-width="2" points="561.47,-19.8 551.22,-22.48 560.91,-26.77 561.47,-19.8"/>
</g>
</g>
</svg>
