<?xml version="1.0" encoding="UTF-8" standalone="no"?>
<!DOCTYPE svg PUBLIC "-//W3C//DTD SVG 1.1//EN"
 "http://www.w3.org/Graphics/SVG/1.1/DTD/svg11.dtd">
<!-- Generated by graphviz version 2.42.3 (20191010.1750)
 -->
<!-- Title: snakemake_dag Pages: 1 -->
<svg width="1457pt" height="476pt"
 viewBox="0.00 0.00 1457.00 476.00" xmlns="http://www.w3.org/2000/svg" xmlns:xlink="http://www.w3.org/1999/xlink">
<g id="graph0" class="graph" transform="scale(1 1) rotate(0) translate(4 472)">
<title>snakemake_dag</title>
<polygon fill="white" stroke="transparent" points="-4,4 -4,-472 1453,-472 1453,4 -4,4"/>
<!-- 0 -->
<g id="node1" class="node">
<title>0</title>
<path fill="none" stroke="#d6d856" stroke-width="2" d="M751,-36C751,-36 679,-36 679,-36 673,-36 667,-30 667,-24 667,-24 667,-12 667,-12 667,-6 673,0 679,0 679,0 751,0 751,0 757,0 763,-6 763,-12 763,-12 763,-24 763,-24 763,-30 757,-36 751,-36"/>
<text text-anchor="middle" x="715" y="-15.5" font-family="sans" font-size="10.00">make_summary</text>
</g>
<!-- 1 -->
<g id="node2" class="node">
<title>1</title>
<path fill="none" stroke="#d85656" stroke-width="2" d="M84,-108C84,-108 12,-108 12,-108 6,-108 0,-102 0,-96 0,-96 0,-84 0,-84 0,-78 6,-72 12,-72 12,-72 84,-72 84,-72 90,-72 96,-78 96,-84 96,-84 96,-96 96,-96 96,-102 90,-108 84,-108"/>
<text text-anchor="middle" x="48" y="-87.5" font-family="sans" font-size="10.00">make_rulegraph</text>
</g>
<!-- 1&#45;&gt;0 -->
<g id="edge4" class="edge">
<title>1&#45;&gt;0</title>
<path fill="none" stroke="grey" stroke-width="2" d="M96.21,-74.88C100.84,-73.79 105.5,-72.81 110,-72 308.56,-36.38 548.26,-24.4 656.69,-20.62"/>
<polygon fill="grey" stroke="grey" stroke-width="2" points="656.89,-24.11 666.77,-20.28 656.66,-17.12 656.89,-24.11"/>
</g>
<!-- 2 -->
<g id="node3" class="node">
<title>2</title>
<path fill="none" stroke="#5673d8" stroke-width="2" d="M921,-252C921,-252 835,-252 835,-252 829,-252 823,-246 823,-240 823,-240 823,-228 823,-228 823,-222 829,-216 835,-216 835,-216 921,-216 921,-216 927,-216 933,-222 933,-228 933,-228 933,-240 933,-240 933,-246 927,-252 921,-252"/>
<text text-anchor="middle" x="878" y="-231.5" font-family="sans" font-size="10.00">get_mut_bind_expr</text>
</g>
<!-- 2&#45;&gt;0 -->
<g id="edge15" class="edge">
<title>2&#45;&gt;0</title>
<path fill="none" stroke="grey" stroke-width="2" d="M880.35,-215.76C883.73,-183.68 886.22,-114.24 852,-72 832.54,-47.98 800.8,-34.83 772.76,-27.63"/>
<polygon fill="grey" stroke="grey" stroke-width="2" points="773.57,-24.22 763.03,-25.33 771.95,-31.04 773.57,-24.22"/>
</g>
<!-- 14 -->
<g id="node15" class="node">
<title>14</title>
<path fill="none" stroke="#d8bc56" stroke-width="2" d="M806,-180C806,-180 738,-180 738,-180 732,-180 726,-174 726,-168 726,-168 726,-156 726,-156 726,-150 732,-144 738,-144 738,-144 806,-144 806,-144 812,-144 818,-150 818,-156 818,-156 818,-168 818,-168 818,-174 812,-180 806,-180"/>
<text text-anchor="middle" x="772" y="-159.5" font-family="sans" font-size="10.00">escape_profiles</text>
</g>
<!-- 2&#45;&gt;14 -->
<g id="edge26" class="edge">
<title>2&#45;&gt;14</title>
<path fill="none" stroke="grey" stroke-width="2" d="M852.07,-215.88C838.34,-206.81 821.29,-195.55 806.46,-185.76"/>
<polygon fill="grey" stroke="grey" stroke-width="2" points="808.3,-182.78 798.03,-180.19 804.45,-188.62 808.3,-182.78"/>
</g>
<!-- 16 -->
<g id="node17" class="node">
<title>16</title>
<path fill="none" stroke="#88d856" stroke-width="2" d="M1033,-108C1033,-108 911,-108 911,-108 905,-108 899,-102 899,-96 899,-96 899,-84 899,-84 899,-78 905,-72 911,-72 911,-72 1033,-72 1033,-72 1039,-72 1045,-78 1045,-84 1045,-84 1045,-96 1045,-96 1045,-102 1039,-108 1033,-108"/>
<text text-anchor="middle" x="972" y="-87.5" font-family="sans" font-size="10.00">early2020_escape_profiles</text>
</g>
<!-- 2&#45;&gt;16 -->
<g id="edge30" class="edge">
<title>2&#45;&gt;16</title>
<path fill="none" stroke="grey" stroke-width="2" d="M888.14,-215.68C898.88,-197.55 916.53,-168.39 933,-144 939.14,-134.91 946.16,-125.19 952.53,-116.58"/>
<polygon fill="grey" stroke="grey" stroke-width="2" points="955.45,-118.52 958.64,-108.41 949.85,-114.33 955.45,-118.52"/>
</g>
<!-- 3 -->
<g id="node4" class="node">
<title>3</title>
<path fill="none" stroke="#56d873" stroke-width="2" d="M304,-108C304,-108 164,-108 164,-108 158,-108 152,-102 152,-96 152,-96 152,-84 152,-84 152,-78 158,-72 164,-72 164,-72 304,-72 304,-72 310,-72 316,-78 316,-84 316,-84 316,-96 316,-96 316,-102 310,-108 304,-108"/>
<text text-anchor="middle" x="234" y="-87.5" font-family="sans" font-size="10.00">get_early2020_mut_bind_expr</text>
</g>
<!-- 3&#45;&gt;0 -->
<g id="edge2" class="edge">
<title>3&#45;&gt;0</title>
<path fill="none" stroke="grey" stroke-width="2" d="M316.31,-73.43C319.24,-72.94 322.14,-72.46 325,-72 442.26,-53.09 580.09,-35.43 656.49,-26.03"/>
<polygon fill="grey" stroke="grey" stroke-width="2" points="657.35,-29.45 666.85,-24.76 656.5,-22.5 657.35,-29.45"/>
</g>
<!-- 4 -->
<g id="node5" class="node">
<title>4</title>
<path fill="none" stroke="#568ad8" stroke-width="2" d="M1305.5,-252C1305.5,-252 1174.5,-252 1174.5,-252 1168.5,-252 1162.5,-246 1162.5,-240 1162.5,-240 1162.5,-228 1162.5,-228 1162.5,-222 1168.5,-216 1174.5,-216 1174.5,-216 1305.5,-216 1305.5,-216 1311.5,-216 1317.5,-222 1317.5,-228 1317.5,-228 1317.5,-240 1317.5,-240 1317.5,-246 1311.5,-252 1305.5,-252"/>
<text text-anchor="middle" x="1240" y="-231.5" font-family="sans" font-size="10.00">get_early2020_escape_fracs</text>
</g>
<!-- 4&#45;&gt;0 -->
<g id="edge14" class="edge">
<title>4&#45;&gt;0</title>
<path fill="none" stroke="grey" stroke-width="2" d="M1270.77,-215.91C1283.54,-207.02 1297,-194.88 1304,-180 1310.81,-165.52 1310.42,-158.66 1304,-144 1285.08,-100.78 1268.99,-91.43 1226,-72 1146.41,-36.04 889.55,-24.08 773.21,-20.45"/>
<polygon fill="grey" stroke="grey" stroke-width="2" points="773.17,-16.94 763.07,-20.14 772.96,-23.94 773.17,-16.94"/>
</g>
<!-- 5 -->
<g id="node6" class="node">
<title>5</title>
<path fill="none" stroke="#56d8c1" stroke-width="2" d="M1437,-180C1437,-180 1363,-180 1363,-180 1357,-180 1351,-174 1351,-168 1351,-168 1351,-156 1351,-156 1351,-150 1357,-144 1363,-144 1363,-144 1437,-144 1437,-144 1443,-144 1449,-150 1449,-156 1449,-156 1449,-168 1449,-168 1449,-174 1443,-180 1437,-180"/>
<text text-anchor="middle" x="1400" y="-159.5" font-family="sans" font-size="10.00">bind_expr_filters</text>
</g>
<!-- 4&#45;&gt;5 -->
<g id="edge18" class="edge">
<title>4&#45;&gt;5</title>
<path fill="none" stroke="grey" stroke-width="2" d="M1279.14,-215.88C1301.01,-206.31 1328.46,-194.3 1351.66,-184.15"/>
<polygon fill="grey" stroke="grey" stroke-width="2" points="1353.23,-187.28 1360.99,-180.07 1350.42,-180.87 1353.23,-187.28"/>
</g>
<!-- 15 -->
<g id="node16" class="node">
<title>15</title>
<path fill="none" stroke="#d88d56" stroke-width="2" d="M1155,-180C1155,-180 987,-180 987,-180 981,-180 975,-174 975,-168 975,-168 975,-156 975,-156 975,-150 981,-144 987,-144 987,-144 1155,-144 1155,-144 1161,-144 1167,-150 1167,-156 1167,-156 1167,-168 1167,-168 1167,-174 1161,-180 1155,-180"/>
<text text-anchor="middle" x="1071" y="-159.5" font-family="sans" font-size="10.00">early2020_call_strong_escape_sites</text>
</g>
<!-- 4&#45;&gt;15 -->
<g id="edge28" class="edge">
<title>4&#45;&gt;15</title>
<path fill="none" stroke="grey" stroke-width="2" d="M1198.66,-215.88C1175.45,-206.26 1146.31,-194.19 1121.73,-184.01"/>
<polygon fill="grey" stroke="grey" stroke-width="2" points="1122.79,-180.66 1112.21,-180.07 1120.11,-187.13 1122.79,-180.66"/>
</g>
<!-- 4&#45;&gt;16 -->
<g id="edge31" class="edge">
<title>4&#45;&gt;16</title>
<path fill="none" stroke="grey" stroke-width="2" d="M1162.36,-228.74C1090.27,-222.96 990.51,-209.71 966,-180 951.9,-162.91 955.43,-137.13 961.29,-117.7"/>
<polygon fill="grey" stroke="grey" stroke-width="2" points="964.62,-118.8 964.49,-108.21 957.98,-116.57 964.62,-118.8"/>
</g>
<!-- 19 -->
<g id="node20" class="node">
<title>19</title>
<path fill="none" stroke="#59d856" stroke-width="2" d="M1282.5,-180C1282.5,-180 1197.5,-180 1197.5,-180 1191.5,-180 1185.5,-174 1185.5,-168 1185.5,-168 1185.5,-156 1185.5,-156 1185.5,-150 1191.5,-144 1197.5,-144 1197.5,-144 1282.5,-144 1282.5,-144 1288.5,-144 1294.5,-150 1294.5,-156 1294.5,-156 1294.5,-168 1294.5,-168 1294.5,-174 1288.5,-180 1282.5,-180"/>
<text text-anchor="middle" x="1240" y="-159.5" font-family="sans" font-size="10.00">lineplots_by_group</text>
</g>
<!-- 4&#45;&gt;19 -->
<g id="edge33" class="edge">
<title>4&#45;&gt;19</title>
<path fill="none" stroke="grey" stroke-width="2" d="M1240,-215.7C1240,-207.98 1240,-198.71 1240,-190.11"/>
<polygon fill="grey" stroke="grey" stroke-width="2" points="1243.5,-190.1 1240,-180.1 1236.5,-190.1 1243.5,-190.1"/>
</g>
<!-- 5&#45;&gt;0 -->
<g id="edge3" class="edge">
<title>5&#45;&gt;0</title>
<path fill="none" stroke="grey" stroke-width="2" d="M1393.23,-143.77C1383.98,-122.79 1365.26,-88.18 1337,-72 1288.78,-44.4 918.65,-27.01 773.32,-21.18"/>
<polygon fill="grey" stroke="grey" stroke-width="2" points="773.38,-17.68 763.25,-20.78 773.1,-24.67 773.38,-17.68"/>
</g>
<!-- 6 -->
<g id="node7" class="node">
<title>6</title>
<path fill="none" stroke="#56d8d8" stroke-width="2" d="M311.5,-396C311.5,-396 260.5,-396 260.5,-396 254.5,-396 248.5,-390 248.5,-384 248.5,-384 248.5,-372 248.5,-372 248.5,-366 254.5,-360 260.5,-360 260.5,-360 311.5,-360 311.5,-360 317.5,-360 323.5,-366 323.5,-372 323.5,-372 323.5,-384 323.5,-384 323.5,-390 317.5,-396 311.5,-396"/>
<text text-anchor="middle" x="286" y="-375.5" font-family="sans" font-size="10.00">process_ccs</text>
</g>
<!-- 6&#45;&gt;0 -->
<g id="edge5" class="edge">
<title>6&#45;&gt;0</title>
<path fill="none" stroke="grey" stroke-width="2" d="M248.43,-363.35C200.57,-343.26 124,-300.82 124,-235 124,-235 124,-235 124,-161 124,-120.55 112.76,-98.87 143,-72 180.83,-38.39 518.21,-24.76 656.39,-20.55"/>
<polygon fill="grey" stroke="grey" stroke-width="2" points="656.88,-24.04 666.77,-20.24 656.67,-17.04 656.88,-24.04"/>
</g>
<!-- 8 -->
<g id="node9" class="node">
<title>8</title>
<path fill="none" stroke="#56d8a2" stroke-width="2" d="M538,-324C538,-324 476,-324 476,-324 470,-324 464,-318 464,-312 464,-312 464,-300 464,-300 464,-294 470,-288 476,-288 476,-288 538,-288 538,-288 544,-288 550,-294 550,-300 550,-300 550,-312 550,-312 550,-318 544,-324 538,-324"/>
<text text-anchor="middle" x="507" y="-303.5" font-family="sans" font-size="10.00">build_variants</text>
</g>
<!-- 6&#45;&gt;8 -->
<g id="edge20" class="edge">
<title>6&#45;&gt;8</title>
<path fill="none" stroke="grey" stroke-width="2" d="M323.74,-365.05C359.62,-353.68 413.91,-336.49 454.1,-323.76"/>
<polygon fill="grey" stroke="grey" stroke-width="2" points="455.26,-327.06 463.73,-320.7 453.14,-320.39 455.26,-327.06"/>
</g>
<!-- 7 -->
<g id="node8" class="node">
<title>7</title>
<path fill="none" stroke="#a7d856" stroke-width="2" d="M301,-468C301,-468 271,-468 271,-468 265,-468 259,-462 259,-456 259,-456 259,-444 259,-444 259,-438 265,-432 271,-432 271,-432 301,-432 301,-432 307,-432 313,-438 313,-444 313,-444 313,-456 313,-456 313,-462 307,-468 301,-468"/>
<text text-anchor="middle" x="286" y="-447.5" font-family="sans" font-size="10.00">get_ccs</text>
</g>
<!-- 7&#45;&gt;6 -->
<g id="edge19" class="edge">
<title>7&#45;&gt;6</title>
<path fill="none" stroke="grey" stroke-width="2" d="M286,-431.7C286,-423.98 286,-414.71 286,-406.11"/>
<polygon fill="grey" stroke="grey" stroke-width="2" points="289.5,-406.1 286,-396.1 282.5,-406.1 289.5,-406.1"/>
</g>
<!-- 8&#45;&gt;0 -->
<g id="edge10" class="edge">
<title>8&#45;&gt;0</title>
<path fill="none" stroke="grey" stroke-width="2" d="M546.75,-287.85C563.8,-279.02 582.98,-266.94 597,-252 655.56,-189.6 691.91,-92.57 706.97,-45.89"/>
<polygon fill="grey" stroke="grey" stroke-width="2" points="710.36,-46.78 710.02,-36.19 703.68,-44.68 710.36,-46.78"/>
</g>
<!-- 9 -->
<g id="node10" class="node">
<title>9</title>
<path fill="none" stroke="#56c1d8" stroke-width="2" d="M581.5,-180C581.5,-180 462.5,-180 462.5,-180 456.5,-180 450.5,-174 450.5,-168 450.5,-168 450.5,-156 450.5,-156 450.5,-150 456.5,-144 462.5,-144 462.5,-144 581.5,-144 581.5,-144 587.5,-144 593.5,-150 593.5,-156 593.5,-156 593.5,-168 593.5,-168 593.5,-174 587.5,-180 581.5,-180"/>
<text text-anchor="middle" x="522" y="-159.5" font-family="sans" font-size="10.00">aggregate_variant_counts</text>
</g>
<!-- 8&#45;&gt;9 -->
<g id="edge22" class="edge">
<title>8&#45;&gt;9</title>
<path fill="none" stroke="grey" stroke-width="2" d="M499.04,-287.74C491.79,-269.67 483.16,-240.55 490,-216 492.67,-206.42 497.59,-196.84 502.78,-188.51"/>
<polygon fill="grey" stroke="grey" stroke-width="2" points="505.8,-190.29 508.44,-180.03 499.98,-186.41 505.8,-190.29"/>
</g>
<!-- 10 -->
<g id="node11" class="node">
<title>10</title>
<path fill="none" stroke="#56a2d8" stroke-width="2" d="M576.5,-252C576.5,-252 511.5,-252 511.5,-252 505.5,-252 499.5,-246 499.5,-240 499.5,-240 499.5,-228 499.5,-228 499.5,-222 505.5,-216 511.5,-216 511.5,-216 576.5,-216 576.5,-216 582.5,-216 588.5,-222 588.5,-228 588.5,-228 588.5,-240 588.5,-240 588.5,-246 582.5,-252 576.5,-252"/>
<text text-anchor="middle" x="544" y="-231.5" font-family="sans" font-size="10.00">count_variants</text>
</g>
<!-- 8&#45;&gt;10 -->
<g id="edge23" class="edge">
<title>8&#45;&gt;10</title>
<path fill="none" stroke="grey" stroke-width="2" d="M516.15,-287.7C520.4,-279.64 525.56,-269.89 530.27,-260.98"/>
<polygon fill="grey" stroke="grey" stroke-width="2" points="533.38,-262.58 534.96,-252.1 527.19,-259.31 533.38,-262.58"/>
</g>
<!-- 9&#45;&gt;0 -->
<g id="edge11" class="edge">
<title>9&#45;&gt;0</title>
<path fill="none" stroke="grey" stroke-width="2" d="M540.94,-143.91C565.76,-121.64 608.1,-84.12 625,-72 640.39,-60.95 658.22,-50.09 673.92,-41.11"/>
<polygon fill="grey" stroke="grey" stroke-width="2" points="675.9,-44.01 682.89,-36.05 672.46,-37.92 675.9,-44.01"/>
</g>
<!-- 11 -->
<g id="node12" class="node">
<title>11</title>
<path fill="none" stroke="#bed856" stroke-width="2" d="M441.5,-108C441.5,-108 346.5,-108 346.5,-108 340.5,-108 334.5,-102 334.5,-96 334.5,-96 334.5,-84 334.5,-84 334.5,-78 340.5,-72 346.5,-72 346.5,-72 441.5,-72 441.5,-72 447.5,-72 453.5,-78 453.5,-84 453.5,-84 453.5,-96 453.5,-96 453.5,-102 447.5,-108 441.5,-108"/>
<text text-anchor="middle" x="394" y="-87.5" font-family="sans" font-size="10.00">counts_to_cells_ratio</text>
</g>
<!-- 9&#45;&gt;11 -->
<g id="edge24" class="edge">
<title>9&#45;&gt;11</title>
<path fill="none" stroke="grey" stroke-width="2" d="M490.69,-143.88C473.8,-134.64 452.75,-123.13 434.62,-113.21"/>
<polygon fill="grey" stroke="grey" stroke-width="2" points="435.89,-109.92 425.43,-108.19 432.53,-116.06 435.89,-109.92"/>
</g>
<!-- 12 -->
<g id="node13" class="node">
<title>12</title>
<path fill="none" stroke="#d8a456" stroke-width="2" d="M560.5,-108C560.5,-108 483.5,-108 483.5,-108 477.5,-108 471.5,-102 471.5,-96 471.5,-96 471.5,-84 471.5,-84 471.5,-78 477.5,-72 483.5,-72 483.5,-72 560.5,-72 560.5,-72 566.5,-72 572.5,-78 572.5,-84 572.5,-84 572.5,-96 572.5,-96 572.5,-102 566.5,-108 560.5,-108"/>
<text text-anchor="middle" x="522" y="-87.5" font-family="sans" font-size="10.00">counts_to_scores</text>
</g>
<!-- 9&#45;&gt;12 -->
<g id="edge25" class="edge">
<title>9&#45;&gt;12</title>
<path fill="none" stroke="grey" stroke-width="2" d="M522,-143.7C522,-135.98 522,-126.71 522,-118.11"/>
<polygon fill="grey" stroke="grey" stroke-width="2" points="525.5,-118.1 522,-108.1 518.5,-118.1 525.5,-118.1"/>
</g>
<!-- 10&#45;&gt;9 -->
<g id="edge21" class="edge">
<title>10&#45;&gt;9</title>
<path fill="none" stroke="grey" stroke-width="2" d="M538.56,-215.7C536.11,-207.9 533.16,-198.51 530.43,-189.83"/>
<polygon fill="grey" stroke="grey" stroke-width="2" points="533.71,-188.59 527.38,-180.1 527.04,-190.69 533.71,-188.59"/>
</g>
<!-- 11&#45;&gt;0 -->
<g id="edge17" class="edge">
<title>11&#45;&gt;0</title>
<path fill="none" stroke="grey" stroke-width="2" d="M453.67,-73.94C456.49,-73.28 459.27,-72.63 462,-72 528.63,-56.7 605.56,-40.84 656.93,-30.5"/>
<polygon fill="grey" stroke="grey" stroke-width="2" points="657.73,-33.91 666.85,-28.51 656.36,-27.05 657.73,-33.91"/>
</g>
<!-- 12&#45;&gt;0 -->
<g id="edge12" class="edge">
<title>12&#45;&gt;0</title>
<path fill="none" stroke="grey" stroke-width="2" d="M569.21,-71.88C596.07,-62.14 629.88,-49.87 658.18,-39.61"/>
<polygon fill="grey" stroke="grey" stroke-width="2" points="659.73,-42.77 667.94,-36.07 657.35,-36.19 659.73,-42.77"/>
</g>
<!-- 13 -->
<g id="node14" class="node">
<title>13</title>
<path fill="none" stroke="#70d856" stroke-width="2" d="M793,-252C793,-252 679,-252 679,-252 673,-252 667,-246 667,-240 667,-240 667,-228 667,-228 667,-222 673,-216 679,-216 679,-216 793,-216 793,-216 799,-216 805,-222 805,-228 805,-228 805,-240 805,-240 805,-246 799,-252 793,-252"/>
<text text-anchor="middle" x="736" y="-231.5" font-family="sans" font-size="10.00">call_strong_escape_sites</text>
</g>
<!-- 13&#45;&gt;0 -->
<g id="edge16" class="edge">
<title>13&#45;&gt;0</title>
<path fill="none" stroke="grey" stroke-width="2" d="M728.16,-215.73C723.97,-205.56 719.22,-192.31 717,-180 708.63,-133.53 710.43,-78.3 712.63,-46.09"/>
<polygon fill="grey" stroke="grey" stroke-width="2" points="716.12,-46.33 713.38,-36.1 709.14,-45.81 716.12,-46.33"/>
</g>
<!-- 13&#45;&gt;14 -->
<g id="edge27" class="edge">
<title>13&#45;&gt;14</title>
<path fill="none" stroke="grey" stroke-width="2" d="M744.9,-215.7C749,-207.73 753.95,-198.1 758.49,-189.26"/>
<polygon fill="grey" stroke="grey" stroke-width="2" points="761.74,-190.6 763.2,-180.1 755.52,-187.4 761.74,-190.6"/>
</g>
<!-- 14&#45;&gt;0 -->
<g id="edge13" class="edge">
<title>14&#45;&gt;0</title>
<path fill="none" stroke="grey" stroke-width="2" d="M757.02,-143.97C749.06,-134.09 739.77,-121.05 734,-108 725.28,-88.28 720.46,-64.3 717.86,-46.2"/>
<polygon fill="grey" stroke="grey" stroke-width="2" points="721.3,-45.51 716.54,-36.04 714.36,-46.41 721.3,-45.51"/>
</g>
<!-- 18 -->
<g id="node19" class="node">
<title>18</title>
<path fill="none" stroke="#56d88a" stroke-width="2" d="M831,-108C831,-108 755,-108 755,-108 749,-108 743,-102 743,-96 743,-96 743,-84 743,-84 743,-78 749,-72 755,-72 755,-72 831,-72 831,-72 837,-72 843,-78 843,-84 843,-84 843,-96 843,-96 843,-102 837,-108 831,-108"/>
<text text-anchor="middle" x="793" y="-87.5" font-family="sans" font-size="10.00">make_supp_data</text>
</g>
<!-- 14&#45;&gt;18 -->
<g id="edge32" class="edge">
<title>14&#45;&gt;18</title>
<path fill="none" stroke="grey" stroke-width="2" d="M777.19,-143.7C779.53,-135.9 782.35,-126.51 784.95,-117.83"/>
<polygon fill="grey" stroke="grey" stroke-width="2" points="788.35,-118.69 787.87,-108.1 781.64,-116.68 788.35,-118.69"/>
</g>
<!-- 15&#45;&gt;0 -->
<g id="edge6" class="edge">
<title>15&#45;&gt;0</title>
<path fill="none" stroke="grey" stroke-width="2" d="M1073.04,-143.91C1074.41,-123.74 1073.23,-90.59 1054,-72 1014.96,-34.25 859.55,-23.39 773.35,-20.26"/>
<polygon fill="grey" stroke="grey" stroke-width="2" points="773.31,-16.76 763.2,-19.92 773.07,-23.76 773.31,-16.76"/>
</g>
<!-- 15&#45;&gt;16 -->
<g id="edge29" class="edge">
<title>15&#45;&gt;16</title>
<path fill="none" stroke="grey" stroke-width="2" d="M1046.78,-143.88C1034.08,-134.89 1018.34,-123.76 1004.58,-114.03"/>
<polygon fill="grey" stroke="grey" stroke-width="2" points="1006.5,-111.11 996.31,-108.19 1002.46,-116.82 1006.5,-111.11"/>
</g>
<!-- 16&#45;&gt;0 -->
<g id="edge7" class="edge">
<title>16&#45;&gt;0</title>
<path fill="none" stroke="grey" stroke-width="2" d="M909.46,-71.97C867.87,-60.64 813.63,-45.86 773.01,-34.8"/>
<polygon fill="grey" stroke="grey" stroke-width="2" points="773.82,-31.39 763.25,-32.14 771.98,-38.15 773.82,-31.39"/>
</g>
<!-- 17 -->
<g id="node18" class="node">
<title>17</title>
<path fill="none" stroke="#d86e56" stroke-width="2" d="M1204.5,-108C1204.5,-108 1151.5,-108 1151.5,-108 1145.5,-108 1139.5,-102 1139.5,-96 1139.5,-96 1139.5,-84 1139.5,-84 1139.5,-78 1145.5,-72 1151.5,-72 1151.5,-72 1204.5,-72 1204.5,-72 1210.5,-72 1216.5,-78 1216.5,-84 1216.5,-84 1216.5,-96 1216.5,-96 1216.5,-102 1210.5,-108 1204.5,-108"/>
<text text-anchor="middle" x="1178" y="-87.5" font-family="sans" font-size="10.00">output_pdbs</text>
</g>
<!-- 17&#45;&gt;0 -->
<g id="edge8" class="edge">
<title>17&#45;&gt;0</title>
<path fill="none" stroke="grey" stroke-width="2" d="M1139.44,-75.74C1134.61,-74.34 1129.72,-73.05 1125,-72 1001.48,-44.45 853.6,-29.7 773.52,-23.2"/>
<polygon fill="grey" stroke="grey" stroke-width="2" points="773.4,-19.68 763.15,-22.37 772.84,-26.66 773.4,-19.68"/>
</g>
<!-- 18&#45;&gt;0 -->
<g id="edge9" class="edge">
<title>18&#45;&gt;0</title>
<path fill="none" stroke="grey" stroke-width="2" d="M773.72,-71.7C764.08,-63.05 752.27,-52.45 741.77,-43.03"/>
<polygon fill="grey" stroke="grey" stroke-width="2" points="743.84,-40.18 734.06,-36.1 739.16,-45.39 743.84,-40.18"/>
</g>
<!-- 19&#45;&gt;0 -->
<g id="edge1" class="edge">
<title>19&#45;&gt;0</title>
<path fill="none" stroke="grey" stroke-width="2" d="M1201.81,-143.88C1180.61,-134.02 1153.97,-121.03 1131,-108 1105.59,-93.58 1103.31,-82.36 1076,-72 974.25,-33.39 846.48,-22.73 773.45,-19.9"/>
<polygon fill="grey" stroke="grey" stroke-width="2" points="773.19,-16.39 763.08,-19.54 772.95,-23.38 773.19,-16.39"/>
</g>
</g>
</svg>
