<?xml version="1.0" encoding="UTF-8" standalone="no"?>
<!DOCTYPE svg PUBLIC "-//W3C//DTD SVG 1.1//EN"
 "http://www.w3.org/Graphics/SVG/1.1/DTD/svg11.dtd">
<!-- Generated by graphviz version 2.42.3 (20191010.1750)
 -->
<!-- Title: snakemake_dag Pages: 1 -->
<svg width="610pt" height="548pt"
 viewBox="0.00 0.00 609.50 548.00" xmlns="http://www.w3.org/2000/svg" xmlns:xlink="http://www.w3.org/1999/xlink">
<g id="graph0" class="graph" transform="scale(1 1) rotate(0) translate(4 544)">
<title>snakemake_dag</title>
<polygon fill="white" stroke="transparent" points="-4,4 -4,-544 605.5,-544 605.5,4 -4,4"/>
<!-- 0 -->
<g id="node1" class="node">
<title>0</title>
<path fill="none" stroke="#56d86b" stroke-width="2" d="M345,-36C345,-36 273,-36 273,-36 267,-36 261,-30 261,-24 261,-24 261,-12 261,-12 261,-6 267,0 273,0 273,0 345,0 345,0 351,0 357,-6 357,-12 357,-12 357,-24 357,-24 357,-30 351,-36 345,-36"/>
<text text-anchor="middle" x="309" y="-15.5" font-family="sans" font-size="10.00">make_summary</text>
</g>
<!-- 1 -->
<g id="node2" class="node">
<title>1</title>
<path fill="none" stroke="#5682d8" stroke-width="2" d="M84,-108C84,-108 12,-108 12,-108 6,-108 0,-102 0,-96 0,-96 0,-84 0,-84 0,-78 6,-72 12,-72 12,-72 84,-72 84,-72 90,-72 96,-78 96,-84 96,-84 96,-96 96,-96 96,-102 90,-108 84,-108"/>
<text text-anchor="middle" x="48" y="-87.5" font-family="sans" font-size="10.00">make_rulegraph</text>
</g>
<!-- 1&#45;&gt;0 -->
<g id="edge8" class="edge">
<title>1&#45;&gt;0</title>
<path fill="none" stroke="grey" stroke-width="2" d="M96.17,-74.5C99.15,-73.65 102.12,-72.8 105,-72 154.01,-58.33 209.95,-43.88 250.85,-33.52"/>
<polygon fill="grey" stroke="grey" stroke-width="2" points="251.81,-36.89 260.64,-31.05 250.09,-30.1 251.81,-36.89"/>
</g>
<!-- 2 -->
<g id="node3" class="node">
<title>2</title>
<path fill="none" stroke="#ced856" stroke-width="2" d="M212,-108C212,-108 126,-108 126,-108 120,-108 114,-102 114,-96 114,-96 114,-84 114,-84 114,-78 120,-72 126,-72 126,-72 212,-72 212,-72 218,-72 224,-78 224,-84 224,-84 224,-96 224,-96 224,-102 218,-108 212,-108"/>
<text text-anchor="middle" x="169" y="-87.5" font-family="sans" font-size="10.00">get_mut_bind_expr</text>
</g>
<!-- 2&#45;&gt;0 -->
<g id="edge2" class="edge">
<title>2&#45;&gt;0</title>
<path fill="none" stroke="grey" stroke-width="2" d="M203.25,-71.88C222.06,-62.47 245.58,-50.71 265.67,-40.67"/>
<polygon fill="grey" stroke="grey" stroke-width="2" points="267.24,-43.79 274.62,-36.19 264.11,-37.53 267.24,-43.79"/>
</g>
<!-- 3 -->
<g id="node4" class="node">
<title>3</title>
<path fill="none" stroke="#56d89a" stroke-width="2" d="M312.5,-468C312.5,-468 261.5,-468 261.5,-468 255.5,-468 249.5,-462 249.5,-456 249.5,-456 249.5,-444 249.5,-444 249.5,-438 255.5,-432 261.5,-432 261.5,-432 312.5,-432 312.5,-432 318.5,-432 324.5,-438 324.5,-444 324.5,-444 324.5,-456 324.5,-456 324.5,-462 318.5,-468 312.5,-468"/>
<text text-anchor="middle" x="287" y="-447.5" font-family="sans" font-size="10.00">process_ccs</text>
</g>
<!-- 3&#45;&gt;0 -->
<g id="edge6" class="edge">
<title>3&#45;&gt;0</title>
<path fill="none" stroke="grey" stroke-width="2" d="M279.92,-431.85C269.69,-405.49 252,-353.21 252,-307 252,-307 252,-307 252,-161 252,-117.8 275,-72.19 291.78,-44.66"/>
<polygon fill="grey" stroke="grey" stroke-width="2" points="294.83,-46.37 297.19,-36.04 288.91,-42.65 294.83,-46.37"/>
</g>
<!-- 5 -->
<g id="node6" class="node">
<title>5</title>
<path fill="none" stroke="#d88556" stroke-width="2" d="M356,-396C356,-396 294,-396 294,-396 288,-396 282,-390 282,-384 282,-384 282,-372 282,-372 282,-366 288,-360 294,-360 294,-360 356,-360 356,-360 362,-360 368,-366 368,-372 368,-372 368,-384 368,-384 368,-390 362,-396 356,-396"/>
<text text-anchor="middle" x="325" y="-375.5" font-family="sans" font-size="10.00">build_variants</text>
</g>
<!-- 3&#45;&gt;5 -->
<g id="edge10" class="edge">
<title>3&#45;&gt;5</title>
<path fill="none" stroke="grey" stroke-width="2" d="M296.39,-431.7C300.76,-423.64 306.06,-413.89 310.9,-404.98"/>
<polygon fill="grey" stroke="grey" stroke-width="2" points="314.02,-406.56 315.71,-396.1 307.87,-403.22 314.02,-406.56"/>
</g>
<!-- 4 -->
<g id="node5" class="node">
<title>4</title>
<path fill="none" stroke="#56d8c9" stroke-width="2" d="M302,-540C302,-540 272,-540 272,-540 266,-540 260,-534 260,-528 260,-528 260,-516 260,-516 260,-510 266,-504 272,-504 272,-504 302,-504 302,-504 308,-504 314,-510 314,-516 314,-516 314,-528 314,-528 314,-534 308,-540 302,-540"/>
<text text-anchor="middle" x="287" y="-519.5" font-family="sans" font-size="10.00">get_ccs</text>
</g>
<!-- 4&#45;&gt;3 -->
<g id="edge9" class="edge">
<title>4&#45;&gt;3</title>
<path fill="none" stroke="grey" stroke-width="2" d="M287,-503.7C287,-495.98 287,-486.71 287,-478.11"/>
<polygon fill="grey" stroke="grey" stroke-width="2" points="290.5,-478.1 287,-468.1 283.5,-478.1 290.5,-478.1"/>
</g>
<!-- 5&#45;&gt;0 -->
<g id="edge1" class="edge">
<title>5&#45;&gt;0</title>
<path fill="none" stroke="grey" stroke-width="2" d="M317.92,-359.85C307.69,-333.49 290,-281.21 290,-235 290,-235 290,-235 290,-161 290,-120.86 297.55,-74.9 303.13,-46.4"/>
<polygon fill="grey" stroke="grey" stroke-width="2" points="306.61,-46.88 305.16,-36.39 299.74,-45.5 306.61,-46.88"/>
</g>
<!-- 6 -->
<g id="node7" class="node">
<title>6</title>
<path fill="none" stroke="#70d856" stroke-width="2" d="M460.5,-252C460.5,-252 341.5,-252 341.5,-252 335.5,-252 329.5,-246 329.5,-240 329.5,-240 329.5,-228 329.5,-228 329.5,-222 335.5,-216 341.5,-216 341.5,-216 460.5,-216 460.5,-216 466.5,-216 472.5,-222 472.5,-228 472.5,-228 472.5,-240 472.5,-240 472.5,-246 466.5,-252 460.5,-252"/>
<text text-anchor="middle" x="401" y="-231.5" font-family="sans" font-size="10.00">aggregate_variant_counts</text>
</g>
<!-- 5&#45;&gt;6 -->
<g id="edge12" class="edge">
<title>5&#45;&gt;6</title>
<path fill="none" stroke="grey" stroke-width="2" d="M326.43,-359.9C328.61,-341.19 333.98,-310.81 347,-288 353.09,-277.32 361.95,-267.37 370.73,-259.04"/>
<polygon fill="grey" stroke="grey" stroke-width="2" points="373.28,-261.45 378.36,-252.15 368.59,-256.25 373.28,-261.45"/>
</g>
<!-- 7 -->
<g id="node8" class="node">
<title>7</title>
<path fill="none" stroke="#d85656" stroke-width="2" d="M433.5,-324C433.5,-324 368.5,-324 368.5,-324 362.5,-324 356.5,-318 356.5,-312 356.5,-312 356.5,-300 356.5,-300 356.5,-294 362.5,-288 368.5,-288 368.5,-288 433.5,-288 433.5,-288 439.5,-288 445.5,-294 445.5,-300 445.5,-300 445.5,-312 445.5,-312 445.5,-318 439.5,-324 433.5,-324"/>
<text text-anchor="middle" x="401" y="-303.5" font-family="sans" font-size="10.00">count_variants</text>
</g>
<!-- 5&#45;&gt;7 -->
<g id="edge13" class="edge">
<title>5&#45;&gt;7</title>
<path fill="none" stroke="grey" stroke-width="2" d="M343.79,-359.7C353.17,-351.05 364.68,-340.45 374.91,-331.03"/>
<polygon fill="grey" stroke="grey" stroke-width="2" points="377.45,-333.45 382.43,-324.1 372.7,-328.3 377.45,-333.45"/>
</g>
<!-- 6&#45;&gt;0 -->
<g id="edge5" class="edge">
<title>6&#45;&gt;0</title>
<path fill="none" stroke="grey" stroke-width="2" d="M378.3,-215.88C367.3,-206.44 354.8,-193.85 347,-180 322.93,-137.29 314.06,-79.95 310.83,-46.49"/>
<polygon fill="grey" stroke="grey" stroke-width="2" points="314.28,-45.77 309.93,-36.11 307.3,-46.37 314.28,-45.77"/>
</g>
<!-- 8 -->
<g id="node9" class="node">
<title>8</title>
<path fill="none" stroke="#9fd856" stroke-width="2" d="M463.5,-180C463.5,-180 368.5,-180 368.5,-180 362.5,-180 356.5,-174 356.5,-168 356.5,-168 356.5,-156 356.5,-156 356.5,-150 362.5,-144 368.5,-144 368.5,-144 463.5,-144 463.5,-144 469.5,-144 475.5,-150 475.5,-156 475.5,-156 475.5,-168 475.5,-168 475.5,-174 469.5,-180 463.5,-180"/>
<text text-anchor="middle" x="416" y="-159.5" font-family="sans" font-size="10.00">counts_to_cells_ratio</text>
</g>
<!-- 6&#45;&gt;8 -->
<g id="edge14" class="edge">
<title>6&#45;&gt;8</title>
<path fill="none" stroke="grey" stroke-width="2" d="M404.71,-215.7C406.36,-207.98 408.35,-198.71 410.19,-190.11"/>
<polygon fill="grey" stroke="grey" stroke-width="2" points="413.66,-190.62 412.33,-180.1 406.82,-189.15 413.66,-190.62"/>
</g>
<!-- 9 -->
<g id="node10" class="node">
<title>9</title>
<path fill="none" stroke="#56b1d8" stroke-width="2" d="M582.5,-180C582.5,-180 505.5,-180 505.5,-180 499.5,-180 493.5,-174 493.5,-168 493.5,-168 493.5,-156 493.5,-156 493.5,-150 499.5,-144 505.5,-144 505.5,-144 582.5,-144 582.5,-144 588.5,-144 594.5,-150 594.5,-156 594.5,-156 594.5,-168 594.5,-168 594.5,-174 588.5,-180 582.5,-180"/>
<text text-anchor="middle" x="544" y="-159.5" font-family="sans" font-size="10.00">counts_to_scores</text>
</g>
<!-- 6&#45;&gt;9 -->
<g id="edge15" class="edge">
<title>6&#45;&gt;9</title>
<path fill="none" stroke="grey" stroke-width="2" d="M435.98,-215.88C455.2,-206.47 479.23,-194.71 499.74,-184.67"/>
<polygon fill="grey" stroke="grey" stroke-width="2" points="501.44,-187.73 508.88,-180.19 498.36,-181.44 501.44,-187.73"/>
</g>
<!-- 7&#45;&gt;6 -->
<g id="edge11" class="edge">
<title>7&#45;&gt;6</title>
<path fill="none" stroke="grey" stroke-width="2" d="M401,-287.7C401,-279.98 401,-270.71 401,-262.11"/>
<polygon fill="grey" stroke="grey" stroke-width="2" points="404.5,-262.1 401,-252.1 397.5,-262.1 404.5,-262.1"/>
</g>
<!-- 8&#45;&gt;0 -->
<g id="edge4" class="edge">
<title>8&#45;&gt;0</title>
<path fill="none" stroke="grey" stroke-width="2" d="M403.09,-143.87C384.46,-119.14 349.87,-73.24 328.22,-44.51"/>
<polygon fill="grey" stroke="grey" stroke-width="2" points="330.77,-42.07 321.95,-36.19 325.18,-46.28 330.77,-42.07"/>
</g>
<!-- 9&#45;&gt;0 -->
<g id="edge7" class="edge">
<title>9&#45;&gt;0</title>
<path fill="none" stroke="grey" stroke-width="2" d="M515.65,-143.87C473.22,-118.23 393.15,-69.85 346.11,-41.43"/>
<polygon fill="grey" stroke="grey" stroke-width="2" points="347.82,-38.37 337.45,-36.19 344.2,-44.36 347.82,-38.37"/>
</g>
<!-- 10 -->
<g id="node11" class="node">
<title>10</title>
<path fill="none" stroke="#d8b456" stroke-width="2" d="M589.5,-108C589.5,-108 486.5,-108 486.5,-108 480.5,-108 474.5,-102 474.5,-96 474.5,-96 474.5,-84 474.5,-84 474.5,-78 480.5,-72 486.5,-72 486.5,-72 589.5,-72 589.5,-72 595.5,-72 601.5,-78 601.5,-84 601.5,-84 601.5,-96 601.5,-96 601.5,-102 595.5,-108 589.5,-108"/>
<text text-anchor="middle" x="538" y="-87.5" font-family="sans" font-size="10.00">scores_to_frac_escape</text>
</g>
<!-- 9&#45;&gt;10 -->
<g id="edge16" class="edge">
<title>9&#45;&gt;10</title>
<path fill="none" stroke="grey" stroke-width="2" d="M542.52,-143.7C541.86,-135.98 541.06,-126.71 540.32,-118.11"/>
<polygon fill="grey" stroke="grey" stroke-width="2" points="543.81,-117.77 539.47,-108.1 536.83,-118.37 543.81,-117.77"/>
</g>
<!-- 10&#45;&gt;0 -->
<g id="edge3" class="edge">
<title>10&#45;&gt;0</title>
<path fill="none" stroke="grey" stroke-width="2" d="M482.27,-71.97C447.3,-61.28 402.29,-47.52 366.91,-36.7"/>
<polygon fill="grey" stroke="grey" stroke-width="2" points="367.79,-33.31 357.2,-33.73 365.74,-40 367.79,-33.31"/>
</g>
</g>
</svg>
